<svg width="83" height="83" viewBox="0 0 83 83" fill="none" xmlns="http://www.w3.org/2000/svg">
<path d="M31.3281 10.6979H24.5364C24.7864 11.4531 24.9114 18.2448 24.5364 19.8802H31.2031C30.9531 18.3698 31.2031 11.3229 31.3281 10.6979Z" fill="white"/>
<path d="M46.0521 10.6979C46.3021 11.8281 46.3021 18.3698 46.0521 19.8802H51.5885C54.1042 19.8802 55.9896 17.8698 55.9896 15.224C55.9896 13.3386 54.8594 11.5781 53.349 10.9479C52.5937 10.5729 52.2187 10.5729 48.5677 10.5729H46.0521V10.6979Z" fill="white"/>
<mask id="mask0_1_3" style="mask-type:luminance" maskUnits="userSpaceOnUse" x="0" y="9" width="12" height="12">
<path d="M0 9.66669H11.0156V20.3334H0V9.66669Z" fill="white"/>
</mask>
<g mask="url(#mask0_1_3)">
<path d="M10.0625 19.8802C9.8125 19.125 9.6875 12.2084 10.0625 10.6979H4.27604C1.50521 10.6979 0 12.9636 0 15.3542C0 17.6146 1.50521 20.0052 4.27604 20.0052H10.0625V19.8802Z" fill="white"/>
</g>
<path d="M38.7552 25.7969C36.1094 25.7969 33.8438 24.5365 32.4636 22.3958H23.6511C22.2709 24.4115 20.0052 25.7969 17.3594 25.7969C14.7188 25.7969 12.4531 24.5365 11.0729 22.3958H4.27606L8.93231 29.9479C9.18231 30.3281 9.56252 30.5781 9.93752 30.5781H45.6719C46.0521 30.5781 46.4271 30.4531 46.6823 30.0729L51.5886 22.3958H44.7917C43.6615 24.4115 41.2709 25.7969 38.7552 25.7969Z" fill="white"/>
<mask id="mask1_1_3" style="mask-type:luminance" maskUnits="userSpaceOnUse" x="3" y="0" width="50" height="9">
<path d="M3.01562 0H52.349V8.33333H3.01562V0Z" fill="white"/>
</mask>
<g mask="url(#mask1_1_3)">
<path d="M11.0729 8.18229C12.4531 6.16667 14.7188 4.90625 17.3594 4.90625C20.0052 4.90625 22.2709 6.16667 23.6511 8.18229H32.5886C33.9688 6.16667 36.2344 4.90625 38.8802 4.90625C41.5209 4.90625 43.7865 6.16667 45.1719 8.18229H48.8177C50.2031 8.18229 51.2084 8.18229 51.9636 8.18229L47.4323 1.00521C47.3073 0.755208 47.1823 0.505208 46.9323 0.380208L46.8073 0.25C46.4271 0.125 46.1771 0 45.7969 0H10.0625C9.56252 0 9.18231 0.25 8.93231 0.630208L4.15106 8.18229C4.15106 8.18229 4.27606 8.18229 4.40106 8.18229H11.0729Z" fill="white"/>
</g>
<path d="M38.7552 7.42709C36.2344 7.42709 34.099 9.31251 33.7188 11.8281C33.7188 12.3333 33.7188 18.3698 33.7188 18.75C33.9688 21.2656 36.1094 23.2813 38.7552 23.2813C41.2708 23.2813 43.4063 21.3906 43.6615 18.75C43.7865 18.2448 43.6615 12.2083 43.6615 11.8281C43.4063 9.31251 41.2708 7.42709 38.7552 7.42709Z" fill="white"/>
<path d="M17.3594 7.42709C14.8438 7.42709 12.7083 9.31251 12.4531 11.8281C12.4531 12.3333 12.4531 18.2448 12.4531 18.75C12.7083 21.2656 14.8438 23.2813 17.3594 23.2813C20.1302 23.2813 22.3958 21.0156 22.3958 18.2448C22.3958 11.8281 22.3958 12.4583 22.3958 11.8281C22.0156 9.31251 19.8802 7.42709 17.3594 7.42709Z" fill="white"/>
<mask id="mask2_1_3" style="mask-type:luminance" maskUnits="userSpaceOnUse" x="21" y="32" width="15" height="51">
<path d="M21.6823 32.3334H35.0156V83H21.6823V32.3334Z" fill="white"/>
</mask>
<g mask="url(#mask2_1_3)">
<path d="M22.3958 81.7917C22.3958 82.4167 22.8958 83.0469 23.6511 83.0469H32.4636C33.2188 83.0469 33.7188 82.4167 33.7188 81.7917V33.0938H22.3958V81.7917Z" fill="white"/>
</g>
<path d="M36.2344 49.5781H49.6979V58.8906H36.2344V49.5781Z" fill="white"/>
<path d="M67.0625 68.0729H68.1979V69.4584H67.0625V68.0729Z" fill="white"/>
<path d="M59.0104 59.6459H60.1458V61.1511H59.0104V59.6459Z" fill="white"/>
<path d="M59.0104 68.0729H60.1458V69.4584H59.0104V68.0729Z" fill="white"/>
<path d="M67.0625 59.6459H68.1979V61.1511H67.0625V59.6459Z" fill="white"/>
<mask id="mask3_1_3" style="mask-type:luminance" maskUnits="userSpaceOnUse" x="51" y="33" width="32" height="45">
<path d="M51.0156 33.6667H83V77.6667H51.0156V33.6667Z" fill="white"/>
</mask>
<g mask="url(#mask3_1_3)">
<path d="M77.7604 34.224H57.375C54.4792 34.224 52.0885 36.6146 52.0885 39.3855V71.724C52.0885 74.6198 54.4792 77.0105 57.375 77.0105H77.7604C80.651 77.0105 83.0469 74.6198 83.0469 71.724V39.3855C83.0469 36.4896 80.651 34.224 77.7604 34.224ZM58.1302 40.0157C58.1302 39.2605 58.7604 38.7552 59.3906 38.7552H75.8698C76.5 38.7552 77.1302 39.2605 77.1302 40.0157V52.974C77.1302 53.6042 76.5 54.2344 75.8698 54.2344H59.3906C58.7604 54.2344 58.1302 53.6042 58.1302 52.974V40.0157ZM62.7865 70.7188C62.7865 71.474 62.1563 71.974 61.526 71.974H57.8802C57.25 71.974 56.6198 71.474 56.6198 70.7188V66.8177C56.6198 66.0625 57.25 65.5573 57.8802 65.5573H61.526C62.1563 65.5573 62.7865 66.0625 62.7865 66.8177V70.7188ZM62.7865 62.2865C62.7865 62.9167 62.1563 63.5469 61.526 63.5469H57.8802C57.25 63.5469 56.6198 62.9167 56.6198 62.2865V58.2605C56.6198 57.6303 57.25 57 57.8802 57H61.526C62.1563 57 62.7865 57.6303 62.7865 58.2605V62.2865ZM70.7135 70.7188C70.7135 71.474 70.0833 71.974 69.4531 71.974H65.8073C65.1771 71.974 64.5469 71.474 64.5469 70.7188V66.8177C64.5469 66.0625 65.1771 65.5573 65.8073 65.5573H69.4531C70.0833 65.5573 70.7135 66.0625 70.7135 66.8177V70.7188ZM70.7135 62.2865C70.7135 62.9167 70.0833 63.5469 69.4531 63.5469H65.8073C65.1771 63.5469 64.5469 62.9167 64.5469 62.2865V58.2605C64.5469 57.6303 65.1771 57 65.8073 57H69.4531C70.0833 57 70.7135 57.6303 70.7135 58.2605V62.2865ZM78.6406 70.7188C78.6406 71.474 78.1354 71.974 77.3802 71.974H73.7344C73.1042 71.974 72.474 71.474 72.474 70.7188V66.8177C72.474 66.0625 73.1042 65.5573 73.7344 65.5573H77.3802C78.1354 65.5573 78.6406 66.0625 78.6406 66.8177V70.7188ZM78.6406 62.2865C78.6406 62.9167 78.1354 63.5469 77.3802 63.5469H73.7344C73.1042 63.5469 72.474 62.9167 72.474 62.2865V58.2605C72.474 57.6303 73.1042 57 73.7344 57H77.3802C78.1354 57 78.6406 57.6303 78.6406 58.2605V62.2865Z" fill="white"/>
</g>
<path d="M74.9896 59.6459H76.125V61.1511H74.9896V59.6459Z" fill="white"/>
<path d="M74.9896 68.0729H76.125V69.4584H74.9896V68.0729Z" fill="white"/>
</svg>
