<svg width="88" height="87" viewBox="0 0 88 87" fill="none" xmlns="http://www.w3.org/2000/svg">
<mask id="mask0_1_8" style="mask-type:luminance" maskUnits="userSpaceOnUse" x="0" y="0" width="88" height="87">
<path d="M0 0H87.4115V86.6667H0V0Z" fill="white"/>
</mask>
<g mask="url(#mask0_1_8)">
<path d="M47.5417 44.5781L41.6771 50.4427C40.8698 51.3854 39.5573 49.2135 38.3021 48.1458C37.9531 47.8021 38.0573 47.2552 38.4271 46.974L44.0781 41.3281C44.3489 40.974 44.8594 40.8594 45.2031 41.1615L47.5625 43.5208C47.7083 43.6667 47.7812 43.8437 47.776 44.0521C47.7708 44.2604 47.6927 44.4375 47.5417 44.5781ZM42.9792 75.9167V72.3698C42.9792 72.0104 42.8489 71.6979 42.5937 71.4427C42.3385 71.1875 42.0312 71.0573 41.6667 71.0573H8.64061C6.63019 71.099 7.50519 74.1302 7.32811 75.9167H42.9792ZM36.3646 35.3385L32.4427 39.2604L37.8125 44.9844L42.0833 40.7135L36.3646 35.3385ZM38.3646 2.96874C38.2135 2.8177 38.0521 2.67708 37.8854 2.54687C39.0052 0.98437 40.7812 0.0260362 42.75 0.0208282H75.8698C74.1458 1.48958 73.0781 3.60937 73.0729 6V23.2448C63.5521 25.1406 60.0833 38.3958 67.3385 44.75V46.4479H50.8646L49.4062 45.0729C49.6146 44.5885 49.6719 44.0833 49.5729 43.5625C49.4739 43.0417 49.2396 42.5937 48.8646 42.2187C47.5052 40.974 45.6198 38.1146 43.4479 39.4792L37.6614 34.0469C39.3646 32.1146 43.4583 29.6406 40.9167 26.7135L44.5364 24.25C47.6823 27.9844 49.0625 25.2656 51.1719 22.4427C52.776 20.3385 52.5417 17.151 50.6771 15.2812L38.3646 2.96874ZM60.1927 36.2604C60.1927 36.0052 60.1042 35.7917 59.9271 35.6094C59.7448 35.4323 59.5312 35.3385 59.276 35.3385H45.0625C44.8073 35.3385 44.5937 35.4323 44.4114 35.6094C44.2344 35.7917 44.1458 36.0052 44.1458 36.2604C44.1458 36.5156 44.2344 36.7292 44.4114 36.9115C44.5937 37.0885 44.8073 37.1771 45.0625 37.1771H59.276C59.5312 37.1771 59.7448 37.0885 59.9271 36.9115C60.1042 36.7292 60.1927 36.5156 60.1927 36.2604ZM60.3437 29.8854C60.3437 29.6302 60.25 29.4115 60.0729 29.2344C59.8906 29.0521 59.6771 28.9635 59.4219 28.9635H50.6354C50.3698 28.9479 50.1406 29.026 49.9427 29.2135C49.75 29.3958 49.651 29.6198 49.651 29.8854C49.651 30.151 49.75 30.3802 49.9427 30.5625C50.1406 30.7448 50.3698 30.8229 50.6354 30.8073H59.4219C59.6771 30.8073 59.8958 30.7135 60.0729 30.5365C60.25 30.3542 60.3437 30.1354 60.3437 29.8854ZM65.75 22.4583C65.75 22.2031 65.6614 21.9844 65.4792 21.8073C65.3021 21.625 65.0833 21.5365 64.8281 21.5365H55.9271C55.6823 21.5521 55.4792 21.651 55.3125 21.8281C55.1458 22.0052 55.0625 22.2135 55.0625 22.4583C55.0625 22.6979 55.1458 22.9115 55.3125 23.0885C55.4792 23.2656 55.6823 23.3594 55.9271 23.375H64.8281C65.0833 23.3802 65.3021 23.2917 65.4792 23.1094C65.6614 22.9323 65.75 22.7135 65.75 22.4583ZM65.75 15.0312C65.75 14.776 65.6614 14.5573 65.4792 14.3802C65.3021 14.1979 65.0833 14.1094 64.8281 14.1094H55.9271C55.6719 14.1094 55.4531 14.1979 55.276 14.3802C55.0937 14.5573 55.0052 14.776 55.0052 15.0312C55.0052 15.2812 55.0937 15.5 55.276 15.6771C55.4531 15.8594 55.6719 15.9479 55.9271 15.9479H64.8281C65.0833 15.9479 65.3021 15.8594 65.4792 15.6823C65.6614 15.5 65.75 15.2812 65.75 15.0312ZM49.1562 9.57812H66.4167C67.6094 9.59374 67.6042 7.71874 66.4167 7.73437H49.1562C47.9635 7.71874 47.9687 9.59374 49.1562 9.57812ZM74.9167 13.224H86.8646C86.6198 10.1406 87.8177 4.02604 85.1094 1.77604C81.625 -1.97396 74.7396 0.807287 74.9167 6V13.224ZM48.2344 46.4896L43.5937 51.1354C49.3333 57.2656 55.0833 63.6562 60.9427 69.6146C62.4687 71.1302 64.9687 71.0573 66.5208 69.599C68.1302 68.0937 68.3021 65.4323 66.7135 63.849C61.6094 58.2812 54.2187 52.0573 48.2344 46.4896ZM69.1823 46.1927V53.3542L75.8073 51.5781C75.9635 51.5365 76.1198 51.5365 76.2812 51.5781L82.9062 53.3542V46.1927C79.0208 48.8594 73.0677 48.8594 69.1823 46.1927ZM83.6979 27.901C93.5312 38.2344 78.7292 53.0417 68.3906 43.2031C58.5573 32.875 73.3594 18.0677 83.6979 27.901ZM81.0625 32.2187C80.8802 32.0417 80.6614 31.9479 80.4062 31.9479C80.1562 31.9479 79.9375 32.0417 79.7552 32.2187L75.0469 36.9323L72.3333 34.224C72.151 34.0417 71.9323 33.9531 71.6823 33.9531C71.4271 33.9531 71.2083 34.0417 71.0312 34.224C70.8489 34.401 70.7604 34.6198 70.7604 34.875C70.7604 35.125 70.8489 35.3437 71.0312 35.5208L74.3958 38.8854C74.5729 39.0677 74.7917 39.1562 75.0469 39.1562C75.2969 39.1562 75.5156 39.0677 75.6927 38.8854L81.0625 33.526C81.2396 33.3437 81.3281 33.125 81.3281 32.8698C81.3281 32.6198 81.2396 32.401 81.0625 32.2187ZM43.901 77.7552H4.73957C2.3229 77.7552 0.348945 79.7292 0.348945 82.1458V86.5417H49.9583V82.1458C49.8958 78.7708 46.9167 77.401 43.901 77.7552ZM22.4948 42.4948L11.151 31.1562L7.53645 33.6146L20.0312 46.1146L22.4948 42.4948ZM1.37499 39.9635L13.6823 52.2708C16.1979 54.7292 19.5417 52.2344 21.3229 50.2187C19.0781 47.3802 6.27082 35.1354 3.73436 32.4219C3.6354 32.3437 3.52603 32.3125 3.40103 32.3281C3.28124 32.3437 3.18228 32.4062 3.11457 32.5104C2.22915 33.8542 0.015612 35.8281 0.354153 37.6406C0.416653 38.5052 0.765612 39.349 1.37499 39.9635ZM11.9167 29.3177L24.3542 41.7448C24.9219 42.4167 25.8489 43.25 26.6771 42.4167L30.5104 38.5885L39.5208 29.5781C40.3489 28.7396 39.5156 27.8125 38.8281 27.2292L26.4167 14.8177C25.8437 14.151 24.8958 13.2812 24.0677 14.1302L11.2292 26.9687C10.401 27.8073 11.2292 28.7344 11.9167 29.3177ZM43.2135 22.9323L30.7187 10.4323L28.2552 14.0521L39.5989 25.3906L43.2135 22.9323ZM31.2344 8.34375L45.3021 22.4115C45.8542 22.8854 46.901 24.5521 47.5833 24.0937L49.7135 21.3281C50.7552 19.9635 50.5937 17.7969 49.375 16.5833L37.0677 4.27604C35.8489 3.05208 33.6823 2.89062 32.3177 3.93749L29.5573 6.0625C29.026 6.6302 30.8177 7.875 31.2344 8.34375Z" fill="white"/>
</g>
</svg>
