<svg width="96" height="96" viewBox="0 0 96 96" fill="none" xmlns="http://www.w3.org/2000/svg">
<mask id="mask0_0_42" style="mask-type:luminance" maskUnits="userSpaceOnUse" x="0" y="0" width="96" height="96">
<path d="M0 0H96V96H0V0Z" fill="white"/>
</mask>
<g mask="url(#mask0_0_42)">
<path d="M7.29685 65.5312C7.50519 65.5521 7.71873 65.5521 7.91144 65.5521C11.0312 65.5521 12.7344 62.8333 13.2083 61.9583C13.3698 61.651 13.3958 61.3438 13.3229 61.0365C13.2083 60.6094 12.8281 60.2344 12.2396 59.9271C10.8646 59.2135 9.68227 58.9063 8.49998 58.9531C8.2656 58.9792 8.00519 58.9531 7.74477 58.9531C7.62498 58.9531 7.50519 58.9531 7.3906 58.9531C7.36456 58.9531 7.36456 58.9531 7.34373 58.9531C7.31769 58.9531 7.29685 58.9323 7.27081 58.9531C5.99477 59.2865 5.16665 59.9271 4.71873 60.8958C4.21873 61.9844 4.1979 63.1146 4.69269 63.9688C5.16665 64.8646 6.08852 65.4115 7.29685 65.5312ZM4.92706 61.0365C5.35415 60.1146 6.11456 59.5469 7.34373 59.2135C7.36456 59.2135 7.36456 59.2135 7.3906 59.2135C7.50519 59.2135 7.62498 59.2135 7.74477 59.2135C8.00519 59.2135 8.2656 59.2135 8.49998 59.2135C9.6354 59.1667 10.7969 59.4531 12.1198 60.1615C12.6406 60.4427 12.9948 60.776 13.0885 61.1302C13.1614 61.3646 13.1354 61.625 12.9948 61.8646C12.5208 62.7604 10.6771 65.6719 7.31769 65.2917C6.18227 65.1771 5.33331 64.6771 4.90623 63.8958C4.43227 63.0938 4.45831 62.0521 4.92706 61.0365ZM94.5573 55.7865C94.9114 55.8802 95.2448 55.974 95.5989 56.0677C95.5729 56.1406 95.5729 56.2344 95.5521 56.3073C95.1979 56.2135 94.8437 56.1146 94.4896 56.0208C93.5677 55.7604 92.6198 55.5 91.6719 55.3125C90.0677 54.9844 88.3854 54.5573 87.0156 53.375C86.2812 52.7344 85.901 52.0521 85.901 51.3646C85.901 50.7708 86.2344 50.2031 86.8229 49.7083C87.2969 49.3073 87.8177 48.9063 88.3854 48.6667C89.2396 48.3125 90.1146 47.9323 90.9635 47.5573C92.6406 46.7969 94.3698 46.0417 96.1666 45.5C96.1666 45.5677 96.1666 45.6667 96.1666 45.7344C94.3906 46.2552 92.6927 47.0104 91.0573 47.7708C90.2291 48.1458 89.3541 48.526 88.4791 48.9062C87.9375 49.1146 87.4427 49.5208 86.9687 49.8958C86.4219 50.349 86.1406 50.8438 86.1146 51.3646C86.1146 52.1198 86.6614 52.7812 87.1302 53.1823C88.4583 54.3438 90.0885 54.7448 91.6719 55.0781C92.6927 55.2656 93.6354 55.526 94.5573 55.7865ZM21.6719 55.7396C21.7916 55.7396 21.9114 55.7604 22.026 55.7604C22.1719 55.7604 22.3125 55.7396 22.4531 55.7135C23.2344 55.5 24.0625 55.2188 24.9375 54.8646C26.9948 54.0573 28.5312 53.4219 29.9739 52.8073C30.401 52.6146 30.8698 52.3073 31.276 51.9323C31.5364 51.6719 31.6771 51.3385 31.6041 51.0312C31.5364 50.724 31.3229 50.5104 30.9896 50.3958C30.3281 50.1823 29.6198 50.0625 28.9583 49.9427C28.6719 49.8958 28.3646 49.849 28.0833 49.7812C28.0573 49.7812 28.0364 49.7812 28.0104 49.7812C27.9896 49.7812 27.9635 49.7552 27.9375 49.7812C27.6302 49.849 27.3229 49.9219 27.0416 49.9896C26.3802 50.1354 25.6719 50.3021 25.0312 50.5573C23.401 51.224 22.1927 52.5208 21.2969 54.5312C21.1979 54.7448 21.1979 55.0313 21.1979 55.2656C21.1979 55.3854 21.1979 55.4792 21.1979 55.599C21.1979 55.6198 21.1979 55.6667 21.2239 55.6927C21.2448 55.7135 21.2708 55.7396 21.3177 55.7396C21.4375 55.7135 21.5573 55.7135 21.6719 55.7396ZM21.4583 55.2656C21.4583 55.0313 21.4583 54.8177 21.5312 54.625C22.4062 52.6667 23.5625 51.4115 25.151 50.7708C25.7864 50.5104 26.4479 50.3698 27.1146 50.2031C27.4219 50.1354 27.7291 50.0625 28.0364 49.9896C28.0364 49.9896 28.0364 49.9896 28.0573 49.9896H28.0833C28.3646 50.0417 28.6719 50.1094 28.9583 50.1562C29.6198 50.276 30.3281 50.4167 30.9687 50.6094C31.2031 50.6771 31.3698 50.8438 31.4166 51.0573C31.4635 51.2917 31.3698 51.5312 31.1562 51.7396C30.7552 52.1198 30.3281 52.4063 29.901 52.5677C28.4583 53.1823 26.901 53.8229 24.8646 54.625C23.9896 54.9844 23.1614 55.2396 22.4062 55.4792C22.1927 55.5521 21.9583 55.526 21.6979 55.5C21.625 55.5 21.5312 55.5 21.4583 55.4792C21.4583 55.4063 21.4583 55.3385 21.4583 55.2656ZM6.7031 68.3906C5.9479 68.3906 5.16665 68.3177 4.3854 68.1562C4.31248 67.9635 4.21873 67.8021 4.15102 67.6354C7.6979 68.4167 10.9844 67.6354 14.1771 65.2448C17.0625 63.0677 20.1614 60.75 23.2344 58.4115C24.7969 57.2292 26.5208 56.3073 28.3646 55.6667C30.5885 54.9115 32.8594 54.25 35.0833 53.5885C35.8646 53.349 36.6406 53.1354 37.4479 52.901C39.151 52.4063 40.875 52.6146 42.4114 52.8281C45.2291 53.2083 46.8802 52.0729 47.3541 49.4948C47.3802 49.4219 47.3802 49.3542 47.401 49.2604C47.4739 48.9271 47.5208 48.6458 47.5208 48.3385C47.4948 47.224 46.9062 46.6094 45.7708 46.5156C45.6041 46.4896 45.4375 46.4896 45.2969 46.4688L45.0833 46.4427C45.0833 46.4427 45.0833 46.4427 45.0625 46.4427C45.0364 46.4427 45.0364 46.4427 45.0156 46.4427C43.6406 46.4688 42.3646 46.9167 41.1146 47.3438C40.3541 47.6042 39.5521 47.8854 38.7239 48.0781C37.4948 48.3385 36.1719 48.5469 34.776 48.2656C34.1823 48.1458 33.5677 48.125 32.9531 48.099C32.7187 48.099 32.4791 48.0781 32.2448 48.0781C31.9114 48.0521 31.5573 48.0312 31.2031 48.0052C30.375 47.9323 29.5 47.8854 28.6719 47.9323C26.5469 48.0521 24.25 48.2917 22.0729 49.1667C20.5364 49.7813 19.5208 50.9375 18.7396 52C17.8646 53.1615 16.8958 54.5104 15.5469 55.5C13.4427 57.0625 11.125 57.0885 9.1406 56.8958C8.85415 56.875 8.54685 56.849 8.2656 56.849C7.15102 56.849 6.11456 57.0625 5.1406 57.4635C3.72394 58.0781 2.89581 59.2865 2.35415 60.2812C2.1406 60.6354 1.97394 61.0104 1.83331 61.3906C1.7604 61.1563 1.68748 60.8958 1.6406 60.6562C1.73956 60.4427 1.83331 60.2552 1.9479 60.0677C2.54165 59.026 3.43748 57.724 4.97915 57.0625C6.25519 56.5208 7.67185 56.3073 9.18748 56.4479C11.0781 56.6354 13.3021 56.6146 15.2864 55.125C16.5625 54.1771 17.5364 52.875 18.3854 51.7188C19.2135 50.6094 20.276 49.375 21.9114 48.7396C24.1562 47.8385 26.4739 47.6042 28.651 47.4635C29.526 47.4167 30.401 47.4844 31.25 47.5312C31.5833 47.5573 31.9375 47.5781 32.2656 47.6042C32.5052 47.625 32.7396 47.625 32.9531 47.625C33.5677 47.651 34.2291 47.6719 34.8437 47.7917C36.1719 48.0781 37.4219 47.8646 38.6041 47.6042C39.3854 47.4375 40.1666 47.1563 40.9219 46.8958C42.1979 46.4427 43.526 45.974 44.9687 45.974C44.9896 45.974 44.9896 45.974 45.0156 45.974C45.0364 45.974 45.0625 45.974 45.0833 45.974L45.2969 45.9948C45.4375 46.0208 45.6041 46.0417 45.7448 46.0417C47.1198 46.1615 47.901 46.9896 47.9219 48.3385C47.9219 48.6927 47.875 49.0208 47.8073 49.3542C47.7812 49.4219 47.7812 49.4948 47.7552 49.5677C47.2396 52.4063 45.3437 53.6823 42.2708 53.2812C40.7812 53.0885 39.1041 52.8542 37.4948 53.349C36.7135 53.5885 35.9323 53.8229 35.1302 54.0365C32.9323 54.6771 30.6354 55.3594 28.4375 56.0938C26.6406 56.7083 24.9583 57.6094 23.4479 58.7656C20.3698 61.1094 17.276 63.4479 14.3906 65.599C12 67.4688 9.40102 68.3906 6.7031 68.3906ZM0.71873 56.3542C0.671854 56.1406 0.651021 55.9531 0.62498 55.7396C1.38019 54.8854 2.30206 54.1094 3.53644 53.5885C4.73956 53.0677 6.04165 52.9479 7.27081 52.8281C7.65102 52.8073 8.02602 52.7604 8.38019 52.7135C10.2031 52.5 12.1875 51.9531 13.0625 49.6823L13.1823 49.375C13.3958 48.8073 13.6302 48.2188 13.8437 47.625C14.3177 46.2813 15.1927 44.7656 17.8437 44.8125C18.2916 44.8385 18.7396 44.8594 19.1875 44.8854C19.7812 44.9323 20.3958 44.9792 21.0104 44.9531C24.0625 44.8854 27.1614 44.7917 30.1614 44.7188C31.1302 44.6927 32.1041 44.6719 33.0729 44.625C34.7291 44.5781 36.3333 44.224 37.8489 43.5365C39.5729 42.7812 41.0156 42.1875 42.3906 41.6458C45.7448 40.3646 48.0156 38.5938 49.5573 36.0885C50.2864 34.8802 51.3281 33.3906 52.9583 32.4219C54.0937 31.7344 55.3489 31.5938 56.8125 31.974C58.3073 32.349 59.2291 33.4167 60.151 34.4531C60.2656 34.599 60.4114 34.7396 60.526 34.8802C60.9323 35.3073 61.3073 35.7812 61.6875 36.2031C62.3229 36.9635 62.9896 37.7396 63.6979 38.4531C65.8021 40.5104 68.2135 41.5 70.8646 41.3854C71.2656 41.3594 71.6875 41.3385 72.0937 41.2917C72.4479 41.2656 72.8021 41.2396 73.1562 41.2188C76.0885 41.0521 79.0208 41.3854 81.7656 41.7396C83.4896 41.974 85.3125 42.0938 87.0364 41.5469C89.2604 40.8646 90.4687 39.6354 90.7969 37.8125C90.9635 36.8438 91.0104 35.849 91.0833 34.8802C91.1041 34.4323 91.1302 34.0052 91.1771 33.5781C91.3177 31.875 91.7656 30.5312 92.5729 29.4635C92.6406 29.6302 92.7135 29.7969 92.7864 29.9844C92.125 30.9323 91.7656 32.1146 91.651 33.625C91.625 34.0521 91.6041 34.5 91.5573 34.9271C91.5052 35.9219 91.4375 36.9375 91.2708 37.9323C90.9166 39.9427 89.5937 41.2917 87.2031 42.0469C85.3802 42.6146 83.4896 42.4948 81.7187 42.2604C79.0208 41.9062 76.1146 41.599 73.2031 41.7396C72.8489 41.7604 72.4948 41.7865 72.1406 41.8073C71.7396 41.8333 71.3125 41.8802 70.8854 41.9062C68.0937 42.0208 65.5625 40.9844 63.3646 38.8281C62.6302 38.1198 61.9687 37.3177 61.3073 36.5573C60.9323 36.1354 60.5521 35.6615 60.1719 35.2344C60.0573 35.0938 59.9114 34.9531 59.7969 34.8073C58.8958 33.7917 58.0469 32.8229 56.6979 32.4896C55.375 32.1354 54.2135 32.2812 53.1979 32.8958C51.6614 33.8177 50.6406 35.2604 49.9583 36.4167C48.3698 39.0208 46.0052 40.8385 42.5573 42.1667C41.1823 42.6823 39.7396 43.276 38.0364 44.0312C36.4531 44.7188 34.776 45.1198 33.0729 45.1667C32.1041 45.1927 31.1302 45.2135 30.1614 45.2604C27.1614 45.3594 24.0625 45.4531 21.0104 45.5C20.3958 45.5208 19.7552 45.474 19.1406 45.4271C18.7187 45.4062 18.2656 45.3594 17.8177 45.3594C17.7708 45.3594 17.7239 45.3594 17.651 45.3594C15.901 45.3594 14.8854 46.1146 14.2708 47.8385C14.0573 48.4323 13.8437 49.0208 13.6094 49.5885L13.4896 49.8958C12.5469 52.3802 10.4166 52.9479 8.4531 53.1823C8.0729 53.2344 7.6979 53.2552 7.31769 53.3021C6.11456 53.4219 4.85935 53.5156 3.72394 54.0104C2.58852 54.5104 1.61977 55.2396 0.71873 56.3542ZM0.364563 54.0365C0.364563 53.9427 0.34373 53.8229 0.34373 53.7292C0.578104 53.4896 0.81248 53.2552 1.0729 53.0208C2.6354 51.625 4.59894 51.2448 6.60935 50.9375C8.97394 50.6094 10.25 49.6354 10.7708 47.8385C10.9114 47.3646 11.0052 46.849 11.1041 46.375C11.125 46.2083 11.1719 46.0417 11.1979 45.901C11.6719 43.6094 13.0416 42.4479 15.1719 42.5677C16.3281 42.6354 17.3437 42.7812 18.2656 42.9896C20.5156 43.5365 22.9479 44.0313 25.5052 43.9167C27.0625 43.8438 28.625 43.7969 30.4687 43.75C31.9844 43.7031 33.9687 43.5573 35.8125 42.8021C37.776 42 39.7187 41.0781 41.6094 40.1771L42.7448 39.6562C44.9427 38.6406 46.8125 37.0104 48.4427 34.6667L48.4687 34.6198C49.5052 33.1302 50.5937 31.6146 52.2031 30.5781C53.4583 29.7969 54.6875 29.3958 55.8698 29.4167C57.4062 29.4427 58.776 30.0104 59.7969 31.026C60.151 31.3802 60.5052 31.7344 60.8594 32.1146C61.8281 33.0833 62.8229 34.0781 63.8125 35.0469C66.7969 37.9792 70.4375 39.4427 74.5989 39.4688C75.6614 39.4688 76.7291 39.5417 77.7656 39.6354C78.3802 39.7031 78.9739 39.776 79.5625 39.8698C81.1979 40.1094 82.875 40.3438 84.5781 40.1562C86.9687 39.9167 88.526 38.6146 89 36.5573C89.2135 35.6615 89.3541 34.7135 89.4739 33.8177C89.5469 33.3646 89.6146 32.9167 89.6875 32.4688C90.0156 30.5781 90.7291 29.0625 91.8177 27.9062C91.8385 27.974 91.8854 28.0677 91.9323 28.1406C90.9166 29.25 90.2291 30.7188 89.9219 32.4896C89.8541 32.9427 89.7812 33.3906 89.7083 33.8385C89.5677 34.7604 89.4271 35.6823 89.2135 36.6094C88.7187 38.7813 87.0833 40.1302 84.6041 40.3906C82.875 40.5781 81.1719 40.3438 79.5416 40.1094C78.9479 40.0104 78.3333 39.9427 77.7448 39.8698C76.7031 39.75 75.6614 39.7031 74.5989 39.7031C70.3646 39.6823 66.6979 38.1667 63.651 35.2135C62.6562 34.2396 61.6614 33.25 60.6927 32.2812C60.3385 31.9219 59.9844 31.5677 59.6302 31.1927C58.6354 30.1979 57.3333 29.6771 55.8698 29.6562C54.7344 29.6302 53.526 30.0104 52.3437 30.7656C50.7604 31.7604 49.6979 33.2708 48.6823 34.7396L48.6562 34.7865C46.9791 37.151 45.0833 38.8073 42.8646 39.849L41.7291 40.3646C39.8333 41.2656 37.8698 42.1667 35.9114 42.9896C34.0416 43.7708 32.0312 43.9167 30.4948 43.9635C28.651 44.0104 27.0885 44.0573 25.526 44.125C22.9479 44.2448 20.4896 43.75 18.2187 43.2031C17.3229 42.9896 16.3281 42.849 15.1719 42.7812C12.6614 42.6354 11.7656 44.4115 11.4323 45.9219C11.4114 46.0885 11.3646 46.2344 11.3385 46.3958C11.2448 46.8958 11.151 47.3906 11.0052 47.8854C10.4635 49.7812 9.11456 50.7969 6.63019 51.151C4.64581 51.4323 2.72915 51.8125 1.21873 53.1615C0.932271 53.4688 0.651022 53.75 0.364563 54.0365ZM29.8541 5.27083C30.4948 4.94271 31.1302 4.60937 31.7708 4.30208C32.5729 3.90104 33.401 3.47396 34.2083 3.07292C35.0573 2.67188 35.6719 2.15104 36.1198 1.51042C36.3333 1.46354 36.5469 1.41667 36.7604 1.34896C36.2864 2.24479 35.5052 2.95313 34.4219 3.5C33.6146 3.90104 32.7864 4.32813 31.9844 4.72917C31.3437 5.05729 30.7083 5.39062 30.0469 5.72396C28.6041 6.43229 27.3021 7.54167 26.1406 9.01042C24.25 11.4219 21.8385 13.2656 19.4948 15.0625L19.2396 15.276C17.9844 16.2448 17.1094 17.026 16.375 17.8281C15.0052 19.2969 14.6041 21.2344 15.1458 23.5781C15.8073 26.4167 16.6614 29.6771 18.4323 32.4896C19.5937 34.3594 20.9896 35.7344 22.6875 36.7031C25.5521 38.3333 28.651 37.3177 30.4479 35.6146C31.2031 34.8802 32.0781 34.0312 32.8125 33.0573C34.1354 31.3333 35.9114 30.0573 38.5573 28.9688C41.6094 27.7135 43.1719 25.7292 43.3594 22.9375C43.4323 21.7083 43.4531 20.4531 43.4791 19.25C43.5 18.2552 43.5 17.2135 43.5729 16.1979C43.6406 14.6354 43.8073 12.9583 44.5416 11.4219C45.3229 9.69271 46.7864 8.65625 48.2083 7.63542C50.8333 5.74479 52.7969 3.71354 54.2396 1.39583C54.4271 1.08854 54.5677 0.78125 54.6875 0.473958C54.8541 0.494792 54.9948 0.520833 55.1614 0.541667C55.0416 0.921876 54.875 1.27604 54.6406 1.65625C53.1979 4.04167 51.1614 6.125 48.4896 8.04167C47.1198 9.01042 45.7239 10.026 44.9896 11.6354C44.3073 13.125 44.1406 14.7292 44.0677 16.2448C44.0208 17.2604 43.9948 18.2812 43.9739 19.2969C43.9479 20.526 43.9271 21.7812 43.8541 23.0104C43.6666 26.0104 41.9896 28.1146 38.7708 29.4427C36.1927 30.5052 34.4896 31.7135 33.2135 33.3906C32.4583 34.3594 31.5833 35.2604 30.8021 35.9896C29.5469 37.1719 27.7291 38.0469 25.7864 38.0469C24.6979 38.0469 23.5885 37.7917 22.5 37.1719C20.7291 36.1562 19.2864 34.7396 18.0521 32.7969C16.2552 29.9167 15.3802 26.6042 14.6979 23.7396C14.1041 21.2344 14.5521 19.1563 16.0469 17.5677C16.8021 16.7396 17.6979 15.9375 18.9791 14.9688L19.2396 14.7552C21.5573 12.9792 23.9219 11.1354 25.7864 8.77083C26.9948 7.16667 28.3646 6.00521 29.8541 5.27083ZM4.7656 48.974C3.0156 49.4479 1.47915 50.3021 0.130188 51.599C0.130188 51.5052 0.104146 51.3854 0.104146 51.2917C1.4531 50.0417 2.96873 49.2135 4.69269 48.7396C6.48956 48.2656 7.5781 47.0833 8.11977 45.0469C8.17185 44.8854 8.19269 44.7396 8.21873 44.5781C8.23956 44.4323 8.2656 44.2708 8.31248 44.125C8.85415 41.8802 10.0364 40.5573 11.8333 40.25C13.2083 39.9896 14.651 40.1094 15.9948 40.5573C16.4948 40.724 16.9896 40.9115 17.4896 41.0781C18.5521 41.4531 19.6614 41.8594 20.776 42.1406C22.5937 42.5885 24.0833 42.849 25.4583 42.8958C26.6875 42.9427 27.9635 42.8281 29.1719 42.7344C29.6875 42.6823 30.2083 42.6354 30.7291 42.6146C32.6458 42.4948 34.4896 41.974 36.2396 41.0781C36.8802 40.7448 37.5156 40.3906 38.1302 40.0573C39.0781 39.5417 40.0469 38.9948 41.0416 38.5469C43.8802 37.2708 46.1719 35.2604 48.0885 32.4219C50.3333 29.0625 53.0781 27.1719 56.4583 26.625C58.401 26.3177 59.7969 26.7708 60.8333 28.0469C61.1875 28.4948 61.5469 28.9688 61.875 29.4167L62.1354 29.7708C63.9323 32.2344 65.9896 34.1458 68.4271 35.6615C70.6719 37.0573 72.875 37.8385 75.1406 38.026C76.2291 38.1198 77.3437 38.2396 78.4791 38.3594L78.9739 38.4062C80.5833 38.5938 82.0729 38.7604 83.6823 38.5469C85.7864 38.2604 87.0625 37.1042 87.6771 34.9271C87.8646 34.2917 87.9844 33.625 88.125 32.9896C88.1979 32.6094 88.2916 32.2344 88.3646 31.8542C88.9062 29.5573 89.8281 27.8333 91.1771 26.6042C91.2239 26.6719 91.25 26.7448 91.2969 26.8177C89.9948 28.0208 89.1198 29.6771 88.5989 31.901C88.5052 32.2813 88.4323 32.6562 88.3646 33.0365C88.2187 33.6719 88.1041 34.3385 87.9114 34.974C87.276 37.2708 85.9271 38.474 83.7291 38.7812C82.0937 38.9948 80.5104 38.8073 78.9739 38.6406L78.4791 38.5938C77.3437 38.474 76.2291 38.3594 75.1406 38.2604C72.8489 38.0469 70.625 37.2708 68.3333 35.849C65.875 34.3385 63.7916 32.3958 61.9687 29.9167L61.7083 29.5573C61.3802 29.1094 61.0469 28.6354 60.6927 28.2135C59.6979 27.0052 58.375 26.5781 56.5312 26.8646C53.2187 27.3854 50.526 29.25 48.3021 32.5625C46.3646 35.4479 44.0469 37.4844 41.1614 38.7812C40.1666 39.2344 39.1979 39.776 38.25 40.2969C37.6354 40.625 36.9948 40.9844 36.3594 41.3125C34.5833 42.2135 32.7187 42.7344 30.7552 42.875C30.2344 42.8958 29.7135 42.9427 29.1927 42.9896C27.9635 43.1094 26.6875 43.2031 25.4323 43.1562C24.0364 43.1094 22.5469 42.875 20.7031 42.401C19.5677 42.1146 18.4583 41.7135 17.3906 41.3385C16.8958 41.1458 16.401 40.9844 15.901 40.8177C14.6041 40.3646 13.2083 40.2708 11.8594 40.5312C10.1562 40.8385 9.04685 42.0677 8.52602 44.2448C8.47915 44.3854 8.47915 44.5313 8.4531 44.6927C8.42706 44.8594 8.40623 45.026 8.35935 45.1927C7.79165 47.2031 6.63019 48.4792 4.7656 48.974ZM45.4896 96.1562C45.4166 96.1562 45.3229 96.1562 45.25 96.1302C45.3906 94.5938 44.7083 93.2448 43.2187 92.1354C41.2291 90.6458 38.5364 88.8698 35.3177 88.2552C34.1146 88.0208 32.7656 88.1615 31.5104 88.3281C30.0677 88.5417 28.6041 88.8698 27.1823 89.3438C26.3333 89.625 25.6719 89.9583 25.1719 90.4062C25.1041 90.3594 25.0312 90.3125 24.9583 90.2917C25.4791 89.8177 26.2135 89.4375 27.1354 89.1302C28.5781 88.6562 30.0677 88.3021 31.5104 88.1146C32.7864 87.9271 34.1354 87.8073 35.3906 88.0417C38.651 88.6823 41.3698 90.4792 43.3802 91.9688C44.9219 93.125 45.651 94.5208 45.4896 96.1562ZM84.1771 72.8854C85.2187 74.1146 86.1614 75.2708 87.0625 76.3854C87.0156 76.4531 86.9687 76.526 86.9219 76.5729C86 75.4375 85.0521 74.2552 83.9896 73.026C82.3073 71.0156 79.9687 69.9271 77.8854 69.125L77.625 69.0312C76.1354 68.4375 74.5989 67.849 72.9687 67.7031C71.9479 67.6094 70.9323 67.6094 70.0833 67.6094C68.2864 67.6094 66.4375 67.6354 64.6666 67.0885L64.4791 67.0417C63.2969 66.6875 62.0625 66.3073 60.8333 66.099C59.4896 65.8594 58.2812 66.474 57.1719 67.1615C56.651 67.4896 56.1302 67.849 55.6094 68.1771C54.6875 68.7917 53.7656 69.4323 52.7708 69.9531C51.2083 70.8021 49.5312 71.2031 47.7552 71.1823C47.2604 71.1823 46.7396 71.1823 46.2448 71.1823C45.3437 71.2031 44.401 71.2031 43.4791 71.1354C42.625 71.0625 41.7031 70.8281 40.875 70.4479C39.6458 69.8802 39.3646 68.5781 39.2656 67.6354C38.9583 64.8177 37.5625 63.4948 34.4896 63.1146C32.0781 62.8073 30.0469 63.3281 28.2448 64.724C26.9479 65.7396 26.1406 67.2083 25.7864 69.1719C25.7656 69.3594 25.7187 69.5521 25.6927 69.7396C25.526 70.7344 25.3646 71.75 24.9844 72.6927C24.1562 74.776 22.3802 76.0052 20.9375 76.8594C18.125 78.5104 16.1614 80.4271 14.8385 82.8177C14.7916 82.7708 14.7187 82.6979 14.651 82.651C15.9739 80.2396 17.9583 78.3229 20.7969 76.6458C22.2187 75.8177 23.9427 74.6094 24.7448 72.599C25.1041 71.7031 25.2656 70.6823 25.4323 69.6927C25.4583 69.5 25.5052 69.3125 25.526 69.125C25.8802 67.0885 26.7083 65.5781 28.0573 64.5365C29.8802 63.1146 32.0312 62.5521 34.4687 62.8802C37.6823 63.3073 39.151 64.6562 39.4583 67.6094C39.5989 69.0312 40.0729 69.8333 40.9219 70.2344C41.7291 70.6146 42.6041 70.849 43.4323 70.8958C44.3541 70.9688 45.276 70.9427 46.1719 70.9427C46.6719 70.9427 47.1875 70.9219 47.6875 70.9427C49.3906 70.9688 51.0469 70.5677 52.5833 69.7396C53.5521 69.2188 54.5 68.5781 55.3958 67.9896C55.8906 67.6354 56.4375 67.3021 56.9583 66.974C58.1146 66.2396 59.3698 65.599 60.7864 65.8594C62.0416 66.0729 63.2708 66.4531 64.4531 66.8073L64.6406 66.8542C66.3906 67.375 68.2135 67.375 69.9896 67.349C70.8646 67.349 71.8802 67.349 72.9219 67.4427C74.5729 67.5885 76.1354 68.2031 77.651 68.7917L77.9114 68.8854C80.0833 69.7396 82.4479 70.849 84.1771 72.8854ZM87.1302 72.9792C87.5364 73.5 87.9375 74.0208 88.3646 74.5156C88.2656 74.6562 88.1719 74.8021 88.1041 74.9167C87.6302 74.375 87.2031 73.8073 86.7552 73.2396C86.4219 72.8125 86.0937 72.3646 85.7396 71.9375C84.5573 70.4948 82.9687 69.4062 80.7708 68.5104C76.9896 66.974 72.9219 65.625 67.9791 64.2031C66.6979 63.849 65.5156 63.2344 64.3333 62.6198L64.0729 62.4792C61.8073 61.3177 59.7239 61.6771 57.4791 63.5677C56.9583 64.0156 56.4375 64.4427 55.9166 64.8906C55.3229 65.3854 54.7344 65.8854 54.1406 66.4062C52.9583 67.4219 51.5885 68.0104 50.0729 68.1562C48.9896 68.25 47.8541 67.9635 46.6198 67.2812C45.5573 66.7135 44.5885 65.8385 43.5469 64.5833C41.4219 61.9844 38.8437 60.75 35.6979 60.8021C33.6875 60.8229 31.3229 61.0104 29.026 62.0781C26.7344 63.1667 24.9375 64.9375 23.5885 67.5417C23.2344 68.2031 22.901 68.9115 22.5729 69.5729C22.2187 70.3073 21.8385 71.0625 21.4375 71.7969C20.75 73.099 19.5677 73.8281 18.526 74.375C18.0312 74.6354 17.5364 74.9167 17.0625 75.1771C16.3021 75.6042 15.5469 76.0312 14.7448 76.4062C13.2552 77.1146 12.3802 78.25 12.026 79.8385C11.9062 79.6927 11.7656 79.5521 11.6458 79.4115C12.0729 77.849 13.0416 76.6927 14.5312 75.9844C15.3125 75.6042 16.0677 75.1771 16.8229 74.776C17.2969 74.5156 17.7969 74.2344 18.2916 73.974C19.2864 73.4531 20.3698 72.7656 21.0104 71.5833C21.4114 70.849 21.7656 70.0938 22.1198 69.3594C22.4531 68.6771 22.7864 67.9896 23.1614 67.3021C24.5833 64.6302 26.4271 62.7604 28.8125 61.625C31.1823 60.5156 33.6146 60.3281 35.6719 60.3021C38.9844 60.2552 41.6823 61.5573 43.901 64.276C44.8958 65.4844 45.8177 66.3073 46.8333 66.8542C47.9948 67.4896 49.0364 67.75 50.026 67.6562C51.4479 67.5417 52.7239 66.974 53.8333 66.026C54.4271 65.5312 55.0156 65.0312 55.6094 64.5104C56.1302 64.0625 56.651 63.6354 57.1719 63.1875C59.5364 61.1771 61.8541 60.8021 64.2864 62.0312L64.5469 62.1719C65.6823 62.7604 66.8646 63.3542 68.0937 63.7083C73.0625 65.125 77.1302 66.5 80.9375 68.0104C83.2291 68.9323 84.8646 70.0677 86.0937 71.5573C86.4479 72.1042 86.8021 72.5521 87.1302 72.9792ZM66.651 92.5365C66.5833 92.5573 66.4896 92.6094 66.4166 92.6302C65.401 91.5677 64.4062 90.526 63.3906 89.5781C62.4427 88.6823 61.3802 87.8542 59.9114 87.974C59.8906 87.974 59.8906 87.974 59.8646 87.974C58.5885 88.349 57.8802 89.2969 57.6406 90.9531C57.4323 92.3698 57.4323 93.8385 57.6198 95.3021C57.5469 95.3281 57.4531 95.3281 57.3802 95.349C57.1927 93.8385 57.2187 92.3698 57.4062 90.9062C57.6406 89.1771 58.4219 88.1354 59.7969 87.7344C59.8177 87.7344 59.8437 87.7344 59.8646 87.7344H59.8906C61.4479 87.6198 62.6302 88.5156 63.5573 89.4167C64.5937 90.3854 65.6354 91.4479 66.651 92.5365ZM70.3906 90.7865C70.25 90.8594 70.1041 90.9271 69.9635 91C68.3541 87.6667 66.3437 84.401 63.3177 81.8021C62.4687 81.0677 61.5 80.4271 60.5521 79.9531C59.651 79.5312 58.6146 79.599 57.2656 80.1927L56.9791 80.3073C56.2969 80.6146 55.6094 80.9271 54.9687 81.3021C52.7239 82.651 50.2656 83.1719 48.3698 83.4792C47.5677 83.599 46.6458 83.7865 45.7969 84.1667C45.3437 84.3542 44.8021 84.6823 44.7083 85.1823C44.6354 85.5833 44.9219 86.0781 45.4896 86.5781C46.3646 87.3333 47.4479 87.6875 48.4687 87.974C49.6979 88.3281 51.0937 88.7031 52.1823 89.8177C53.2916 90.9531 53.625 92.3958 53.7396 93.3854C53.8802 94.3333 53.8802 95.1615 53.7396 95.9167C53.5729 95.9427 53.4114 95.9635 53.2448 95.9635C53.2448 95.9167 53.2656 95.8958 53.2656 95.849C53.4114 95.1354 53.4114 94.3333 53.2656 93.4583C53.0573 91.9948 52.6041 90.974 51.8229 90.1458C50.8333 89.1302 49.5052 88.75 48.3229 88.4219C47.2396 88.1146 46.1041 87.7344 45.1562 86.9323C44.2552 86.151 44.1406 85.5104 44.2083 85.1094C44.2812 84.7344 44.5625 84.1667 45.5833 83.7396C46.4791 83.3594 47.4479 83.1719 48.276 83.0312C50.1198 82.724 52.5364 82.224 54.6875 80.9271C55.3489 80.5208 56.0573 80.2135 56.7448 79.9062L57.026 79.7917C57.9479 79.3854 59.3437 78.9167 60.7187 79.5521C61.7083 80.026 62.7031 80.6875 63.6041 81.4427C66.6979 84.0677 68.7552 87.4531 70.3906 90.7865ZM1.14581 58.5312C1.11977 58.4115 1.09894 58.3177 1.0729 58.1979C2.25519 56.3542 3.89061 55.2917 5.92185 54.9844C6.72915 54.8646 7.55206 54.8177 8.35935 54.7708C8.71352 54.7448 9.06769 54.724 9.4479 54.6979C10.4375 54.625 11.5729 54.4844 12.6614 54.0365C14.1302 53.3958 15.2864 52.2396 16.0937 50.5573C17.2291 48.2188 18.6458 47.1094 20.75 46.9896C21.3177 46.9635 21.9114 46.8698 22.4791 46.7969C22.901 46.75 23.3281 46.6823 23.7552 46.6562C24.1562 46.6354 24.5364 46.5885 24.9114 46.5625C26.5469 46.4219 28.2448 46.2552 29.901 46.1615C30.6354 46.1146 31.3698 46.1354 32.0781 46.1354C32.8594 46.1615 33.6614 46.1615 34.4427 46.1146C35.7916 46.0208 36.9271 45.8281 37.9219 45.5208C40.4479 44.7188 42.9791 43.8177 45.4166 42.9427L46.0312 42.7344C48.4219 41.8802 50.0729 40.5104 51.1146 38.5208C51.6146 37.5781 52.2031 36.75 52.8437 36.1094C54.3802 34.599 55.776 34.4323 57.1719 35.6823C57.6666 36.1354 58.1406 36.75 58.5625 37.5052C58.9687 38.2396 59.3437 38.974 59.7239 39.7031C60.2187 40.6979 60.7396 41.7396 61.3333 42.6823C62.9375 45.3333 65.0937 45.5938 67.8594 45.1667C68.7552 45.026 69.6302 44.7917 70.5052 44.5521C71.2187 44.3646 71.9271 44.1719 72.6614 44.0312C73.7239 43.8177 75.1198 43.5833 76.5364 43.6094C77.4375 43.6302 78.3594 43.75 79.2344 43.8438C79.8958 43.9375 80.5833 44.0104 81.2448 44.0573C82.1406 44.1042 83.0677 44.1042 83.9375 44.0781C84.2708 44.0781 84.5781 44.0573 84.9114 44.0573C86.6614 44.0312 88.3854 43.6094 89.9948 42.7812C91.5312 41.974 93.1875 40.8854 93.5677 38.9219C93.7552 37.9792 93.6354 36.9375 93.4948 35.9219C93.4687 35.7083 93.4479 35.4948 93.4219 35.3073C93.3073 34.1719 93.2552 33.0365 93.5677 31.9948C93.6146 32.1354 93.6614 32.2812 93.7083 32.4219C93.5156 33.3438 93.5677 34.3125 93.6614 35.2812C93.6823 35.4948 93.7083 35.6823 93.7291 35.8958C93.8489 36.9375 93.9896 37.9792 93.776 38.974C93.375 41.0312 91.6719 42.1667 90.0885 42.9896C88.4583 43.8438 86.7083 44.2917 84.9114 44.2917C84.5781 44.2917 84.2708 44.2917 83.9427 44.3177C83.0416 44.3385 82.1198 44.3385 81.2187 44.2917C80.5364 44.2448 79.8489 44.151 79.1875 44.0781C78.3125 43.9635 77.4114 43.8438 76.5156 43.8438C75.1406 43.8177 73.75 44.0573 72.7083 44.2448C72 44.3854 71.2656 44.5781 70.5781 44.7656C69.7031 45 68.8073 45.2604 67.9062 45.3802C65.4219 45.7604 62.9166 45.7135 61.1406 42.7812C60.5521 41.8073 60.0312 40.7708 59.5104 39.776C59.1302 39.0417 58.7552 38.3073 58.3541 37.5781C57.9479 36.8438 57.5 36.25 57.0052 35.8281C55.7291 34.6667 54.4479 34.8073 53.0052 36.25C52.3906 36.8646 51.8021 37.6927 51.3281 38.6146C50.2656 40.651 48.5625 42.0677 46.1041 42.9219L45.4896 43.1354C43.026 44.0104 40.4948 44.9323 37.9687 45.7135C36.9739 46.0208 35.8125 46.2344 34.4427 46.3281C33.6614 46.375 32.8333 46.375 32.0573 46.349C31.6979 46.349 31.3437 46.3281 30.9896 46.3281C30.6146 46.3281 30.2552 46.3281 29.901 46.349C28.2448 46.4427 26.5469 46.5885 24.9114 46.75C24.5104 46.776 24.1302 46.8229 23.7552 46.849C23.3281 46.8958 22.901 46.9427 22.5 46.9896C21.9323 47.0573 21.3437 47.1302 20.776 47.1771C18.7656 47.2969 17.3906 48.3594 16.3281 50.6094C15.5 52.3333 14.3177 53.5417 12.7812 54.1771C11.6719 54.651 10.4896 54.7917 9.49477 54.8646C9.1406 54.8854 8.7604 54.9115 8.40623 54.9323C7.60415 54.9844 6.79685 55.0313 5.99477 55.1458C3.91144 55.526 2.30206 56.6354 1.14581 58.5312ZM94.1562 62.2656C94.1302 62.3385 94.1094 62.4323 94.0833 62.5C90.6562 60.2552 87.1562 59.5677 83.375 60.3958C82.3073 60.6354 81.2187 60.7292 80.276 60.6354C78.5729 60.4896 77.3437 59.2865 76.3489 58.3177C75 56.9896 73.6302 56.0208 72.1875 55.3594C71.7135 55.1458 71.2396 54.9323 70.7916 54.724C69.5625 54.1771 68.2604 53.6094 67.0781 52.9271C65.875 52.2396 64.6666 51.3646 63.3906 50.276C62.8698 49.8281 62.3958 49.2604 61.9687 48.7135C61.6406 48.3385 61.3073 47.9115 60.9531 47.5573C59.5104 46.0885 56.8854 45.6406 54.8541 46.5417C52.7969 47.4375 51.8489 49.1875 51.1614 50.7708C50.901 51.4115 50.6875 52.0729 50.4791 52.7344C50.3125 53.2813 50.1458 53.8229 49.9323 54.3438C49.3646 55.8594 48.2552 56.5885 46.8333 56.474C46.151 56.401 45.4635 56.3073 44.8021 56.1875C44.4687 56.1406 44.1614 56.0938 43.8333 56.0469C43.2864 55.974 42.7187 55.8802 42.1979 55.7865C40.9479 55.5729 39.6458 55.3594 38.3698 55.3385C37.3281 55.3125 36.2396 55.526 35.1979 55.7396C34.8229 55.8073 34.4219 55.9063 34.0416 55.9531C29.2187 56.7813 25.0052 58.8854 21.5312 62.1458C19.6875 63.875 17.2031 66.099 14.3437 67.8229C13.0885 68.5781 11.7396 69.3385 10.2031 69.6198C9.37498 69.7865 8.5729 69.9271 7.74477 70.0677C7.03644 70.1875 6.30206 70.3281 5.59373 70.474C5.54685 70.401 5.52081 70.3281 5.47394 70.2604C6.22915 70.1146 6.96352 69.974 7.6979 69.8333C8.52602 69.6927 9.32811 69.526 10.1562 69.3854C11.6458 69.099 12.9948 68.3438 14.2239 67.6094C17.0625 65.9062 19.5469 63.7083 21.3906 61.9844C24.9114 58.6719 29.1719 56.5677 34.0156 55.7135C34.3958 55.6458 34.7969 55.5729 35.1771 55.5C36.2396 55.2917 37.3281 55.0521 38.3906 55.0781C39.6927 55.099 40.9948 55.3125 42.2448 55.526C42.7916 55.6198 43.3333 55.7135 43.8802 55.7865C44.2083 55.8333 44.5156 55.8802 44.8489 55.9271C45.5104 56.0208 46.1979 56.1406 46.8802 56.1875C48.6562 56.3542 49.4375 55.0313 49.7448 54.224C49.9583 53.7031 50.1198 53.1615 50.2864 52.6146C50.5 51.9531 50.7135 51.2917 50.9739 50.6302C51.6614 49 52.651 47.2031 54.7812 46.2812C56.9114 45.3594 59.651 45.8281 61.1406 47.3646C61.5 47.7448 61.8541 48.1458 62.1614 48.5521C62.5833 49.0677 63.0364 49.6354 63.5573 50.0625C64.8333 51.1771 66.0156 52.026 67.2187 52.6875C68.401 53.349 69.6823 53.9167 70.9114 54.4844C71.3802 54.6979 71.8541 54.9115 72.3281 55.125C73.7969 55.8073 75.1875 56.8021 76.5625 58.125C77.5312 59.0729 78.7135 60.2552 80.3437 60.375C81.2916 60.4427 82.3333 60.375 83.375 60.1354C87.1302 59.3073 90.6823 59.9948 94.1562 62.2656ZM88.6927 70.3073C89.0937 70.875 89.5 71.4427 89.9687 71.9375C89.9219 72.0104 89.875 72.0781 89.8541 72.151C89.3541 71.6302 88.9323 71.0417 88.5052 70.4479L88.4583 70.401C87.2969 68.7708 86 67.776 84.4844 67.3021C83.7969 67.0885 83.0625 66.9479 82.3541 66.8073C81.9062 66.7135 81.4323 66.6146 80.9844 66.5208C77.1302 65.599 73.6771 63.7813 70.5312 61.9844C69.8229 61.5781 69.1146 61.1302 68.4271 60.7031C66.9583 59.8073 65.4479 58.8594 63.8646 58.1979C60.7396 56.875 58.7083 57.349 56.8125 59.875C56.0104 60.9635 54.9948 62.099 53.6458 63.401C51.6823 65.2917 49.5573 65.4844 47.2864 63.9219C46.4583 63.3542 45.6979 62.6927 44.9687 62.0312C42.8646 60.1615 40.5208 59.1458 38.0156 58.9323C36.5729 58.8125 34.9635 58.9323 32.9062 59.2604C29.9479 59.7344 27.5833 60.75 25.6927 62.3854C24.1094 63.7344 22.5937 65.4115 20.9166 67.6562C19.4271 69.6667 17.5833 71.1823 15.4791 72.125C13.75 72.9323 12 73.6146 10.0833 74.349C9.37498 74.6354 8.83331 74.9427 8.42706 75.2969C8.38019 75.224 8.33331 75.1771 8.28644 75.1094C8.71352 74.7292 9.28123 74.4219 9.98956 74.1354C11.9062 73.3802 13.6302 72.6927 15.3594 71.9167C17.4166 70.9688 19.2135 69.4792 20.7031 67.5156C22.4062 65.2448 23.9219 63.5677 25.526 62.1927C27.4687 60.5417 29.8541 59.5208 32.8594 59.026C34.9166 58.6927 36.5469 58.5781 38.0156 58.6927C40.5677 58.8854 42.9583 59.9479 45.1094 61.8385C45.8437 62.4792 46.5989 63.1406 47.401 63.7083C49.5781 65.1771 51.6146 65.0104 53.4791 63.2135C54.8281 61.9115 55.8229 60.8021 56.625 59.7135C58.5885 57.0625 60.6927 56.5677 63.9583 57.9635C65.5625 58.6458 67.0781 59.5938 68.5677 60.4896C69.2552 60.9167 69.9635 61.3438 70.6719 61.7448C73.8177 63.5417 77.2708 65.3385 81.0781 66.2604C81.526 66.3802 82 66.474 82.4479 66.5469C83.1614 66.6875 83.8906 66.8281 84.6041 67.0417C86.1614 67.5156 87.4896 68.5573 88.6927 70.2344V70.3073ZM91.7916 64.9635C92.1719 65.2448 92.5469 65.5312 92.9271 65.7656C92.8802 65.9062 92.8073 66.0729 92.7396 66.2135C92.3333 65.9531 91.9114 65.6458 91.5052 65.3385C89.6146 63.875 87.5104 63.4948 84.4844 64.0156C83.3021 64.2292 81.9062 64.4167 80.5833 64.25C78.5469 64.0156 76.5364 63.1146 74.6458 61.5781C72.0937 59.5208 69.8906 57.9167 67.4114 56.6615C64.7864 55.3594 61.9219 54.0104 58.6823 52.5677C57.9479 52.2396 57.2187 51.9531 56.4583 52.2135C55.1614 52.6406 54.8073 53.7031 54.4739 55.0312C54.4271 55.2396 54.3802 55.4531 54.3073 55.6667C54.0937 56.5885 53.8594 57.5104 53.5052 58.3854C52.9583 59.6875 52.0625 60.6354 51.0469 61.0104C50.1198 61.3646 49.0833 61.2708 47.9948 60.7292C47.2396 60.349 46.4791 59.974 45.7239 59.5938C45.1562 59.3073 44.6146 59.026 44.0469 58.7656C42.2969 57.8906 40.4271 57.3958 38.4896 57.25C36.526 57.1094 34.6302 57.4167 32.3854 57.9167C28.651 58.7396 25.6927 60.3021 23.3541 62.6458C22.2656 63.7083 21.151 64.7969 20.0625 65.8125C19.6875 66.1927 19.2864 66.5469 18.9062 66.9271C16.2812 69.4323 13.0625 71.1354 9.04685 72.125C8.35935 72.2917 7.65102 72.5312 6.84373 72.8385C6.74998 72.6927 6.67706 72.5521 6.60935 72.4115C7.45831 72.0781 8.21873 71.8438 8.9479 71.6771C12.875 70.7083 16.0208 69.0521 18.5989 66.5938C18.9791 66.2135 19.3802 65.8594 19.7552 65.4844C20.8437 64.4427 21.9583 63.375 23.0208 62.3125C25.4323 59.901 28.4583 58.3177 32.2916 57.4635C34.2552 57.0156 36.3802 56.6354 38.5104 56.7812C40.5208 56.9219 42.4375 57.4427 44.2344 58.3385C44.8021 58.625 45.3437 58.9063 45.9114 59.1667C46.6719 59.5469 47.4271 59.9271 48.1823 60.3021C49.151 60.776 50.0521 60.8698 50.8541 60.5625C51.776 60.2344 52.5573 59.3802 53.0573 58.1979C53.4114 57.3698 53.625 56.4479 53.8333 55.5521C53.8802 55.3385 53.9323 55.125 54 54.9115C54.3541 53.4688 54.7812 52.2396 56.2969 51.7396C57.2187 51.4323 58.0677 51.7656 58.8489 52.1198C62.0885 53.5625 64.9479 54.9115 67.5729 56.2135C70.1041 57.4635 72.3281 59.099 74.9062 61.1771C76.7291 62.6458 78.6406 63.5208 80.6041 63.7552C81.8802 63.8958 83.2291 63.7344 84.3646 63.5208C86.5156 63.1875 89.2604 63 91.7916 64.9635ZM11.3854 17.3073C11.2187 17.4062 11.0521 17.5208 10.8906 17.6146C11.0521 17.4271 11.2187 17.2135 11.3854 17.026C12.2864 16.5052 13.2291 15.9844 14.1041 15.4635L15.0052 14.9427C18.8125 12.7708 21.8646 10.7344 24.276 7.84896C25.5521 6.33854 27.0416 5.13021 28.3437 4.18229C28.7187 4.02083 29.0729 3.85417 29.4531 3.71354C27.9375 4.72917 26.026 6.14583 24.4375 8.01562C22.026 10.9219 18.9791 12.9792 15.1458 15.1562L14.2448 15.6771C13.3021 16.1979 12.3333 16.7396 11.3854 17.3073ZM29.1198 83.8802C29.7604 83.8802 30.5156 83.6198 30.8229 83.1927C31.0625 82.8854 31.1562 82.6042 31.0833 82.3438C31.0364 82.1094 30.8229 81.8958 30.5156 81.75C30.3541 81.6823 30.1875 81.6354 30.0208 81.6094C29.9479 81.5885 29.8802 81.5885 29.8073 81.5625C29.7864 81.5625 29.7604 81.5625 29.7396 81.5625C29.7135 81.5625 29.6666 81.5625 29.6406 81.5625C29.5 81.6354 29.3594 81.7031 29.1927 81.776C28.8385 81.9427 28.4844 82.1094 28.1771 82.3646C27.9896 82.5312 27.8906 82.7448 27.9166 83.0052C27.9375 83.3125 28.151 83.599 28.4375 83.7396C28.625 83.8594 28.8646 83.8802 29.1198 83.8802ZM28.1771 82.9844C28.151 82.8177 28.2239 82.651 28.3437 82.5573C28.625 82.3177 28.9791 82.1562 29.3125 82.0104C29.4531 81.9427 29.6198 81.8698 29.7604 81.8021C29.7604 81.8021 29.7604 81.8021 29.7864 81.8021C29.8541 81.8229 29.9271 81.8229 29.9948 81.849C30.1614 81.8698 30.3073 81.8958 30.4219 81.9635C30.6823 82.0833 30.8229 82.224 30.8698 82.4167C30.9219 82.6042 30.8489 82.8177 30.6614 83.0781C30.3073 83.5521 29.0989 83.8333 28.5781 83.5521C28.3437 83.4323 28.1979 83.2188 28.1771 82.9844ZM83.2552 77.6354C83.776 78.4896 84.0573 79.2917 84.1041 80.0729C83.9375 80.2604 83.7969 80.4271 83.6302 80.5938C83.7291 79.7656 83.4687 78.8438 82.8541 77.875C81.7864 76.1719 80.276 74.75 78.1719 73.5677C77.1771 73 75.8281 72.3385 74.4114 72.224C73.4896 72.151 72.401 72.3177 71.0989 72.6927C69.5625 73.1667 68.1875 73.5208 66.7239 73.3333C65.4948 73.1667 64.1927 72.8594 62.8229 72.3854C60.5052 71.6094 58.3073 71.8906 56.0833 73.2396C55.1146 73.8281 54.1406 74.4427 53.2187 75.0573C52.4635 75.5573 51.6614 76.0781 50.8802 76.5729C48.9896 77.7552 46.8333 78.3958 44.4479 78.4896C44.0208 78.5104 43.5937 78.5365 43.1458 78.5573C42.5312 78.6094 41.8906 78.6302 41.276 78.6562C39.2187 78.7031 37.2812 78.2031 35.651 77.7344C34.5364 77.401 33.3541 77.0677 32.1979 77C30.9219 76.9062 29.5469 77.2604 28.2239 77.9688C24.8437 79.8125 22.5 81.8229 20.8698 84.3073C20.3021 85.1562 19.875 85.9844 19.5469 86.8125C19.401 86.7188 19.2864 86.625 19.1406 86.5312C19.4739 85.724 19.901 84.8958 20.4687 84.0677C22.1458 81.5156 24.5364 79.4583 27.9896 77.5885C29.3802 76.8333 30.8489 76.4792 32.2187 76.5521C33.4271 76.6198 34.6302 76.974 35.7656 77.3073C37.3541 77.7812 39.2656 78.25 41.2552 78.2031C41.8698 78.1823 42.5052 78.1562 43.1198 78.1094C43.5469 78.0885 43.9948 78.0625 44.4219 78.0417C46.7396 77.9427 48.8229 77.3073 50.6406 76.1927C51.4219 75.6979 52.2291 75.2031 52.9844 74.7031C53.9323 74.0885 54.901 73.474 55.8698 72.8854C58.2083 71.4635 60.5521 71.1562 62.9896 71.9844C64.3125 72.4323 65.5885 72.7396 66.7969 72.9062C68.1666 73.099 69.4896 72.7396 70.9791 72.2917C72.3541 71.8646 73.4896 71.7031 74.4791 71.7969C76.0156 71.9167 77.4114 72.625 78.4531 73.2135C80.5833 74.3958 82.1666 75.8646 83.2552 77.6354ZM84.6979 76.0521C85.1719 76.6667 85.5729 77.2812 85.901 77.8958C85.8541 77.9688 85.8073 78.0156 85.7396 78.0885C85.3802 77.4479 84.9583 76.8333 84.4844 76.1927C82.1666 73.099 79.0208 70.9896 75.1406 69.9271C73.5573 69.4792 71.8802 69.5 69.9896 70C67.8594 70.5677 65.6146 70.4271 63.151 69.5729C62.2552 69.2656 61.4479 69.0781 60.6927 68.9844C59.6302 68.8646 58.4687 69.125 57.2656 69.7396C56.2708 70.2604 55.2552 70.8281 54.2864 71.3958C53.1041 72.0781 51.8958 72.7656 50.6406 73.3802C48.5156 74.4427 46.4323 75.0833 44.2812 75.3438C41.5364 75.6771 39.1041 74.9896 36.2656 73.8281C35.5052 73.5208 34.75 73.1198 34.0416 72.7396C33.7552 72.599 33.4739 72.4323 33.1666 72.2917C31.7239 71.5573 31.1302 71.6302 29.8802 72.6927C27.7291 74.5417 25.7396 76.1719 23.8021 77.7344C23.0937 78.3021 22.3333 78.8646 21.625 79.4115C20.9166 79.9531 20.1614 80.5 19.4479 81.0885C18.2656 82.0365 17.4635 83.3385 16.7291 84.6146C16.6614 84.5677 16.6146 84.5208 16.5416 84.4479C17.2969 83.1458 18.1041 81.8698 19.3073 80.901C20.0156 80.3333 20.776 79.7656 21.4844 79.224C22.1927 78.6771 22.9479 78.1094 23.6614 77.5417C25.5989 75.9844 27.5833 74.3281 29.7396 72.5052C31.0625 71.3698 31.7708 71.3021 33.2864 72.0573C33.5677 72.1979 33.875 72.3646 34.1614 72.5052C34.8698 72.8854 35.6041 73.2604 36.3594 73.5677C39.151 74.7031 41.5625 75.3906 44.2552 75.0573C46.3854 74.8021 48.4219 74.1615 50.526 73.1198C51.7552 72.5052 52.9583 71.8177 54.1406 71.1354C55.1146 70.5677 56.1302 70 57.125 69.4792C58.3541 68.8385 59.5573 68.5781 60.6927 68.6979C61.4479 68.7917 62.276 68.9844 63.1979 69.2917C65.6146 70.1146 67.7864 70.2604 69.8906 69.7135C71.8073 69.2188 73.5364 69.1927 75.1666 69.6458C79.1875 70.7812 82.3541 72.9323 84.6979 76.0521ZM94.3437 59.3333C94.5104 59.4271 94.6979 59.5208 94.8906 59.5938C94.8646 59.6667 94.8437 59.7604 94.8437 59.8281C94.651 59.7344 94.4427 59.6406 94.25 59.5469C92.2187 58.4583 90.0156 57.8906 87.3437 57.3698C83.5833 56.6354 80.6979 54.9844 78.5469 52.2865C77.8125 51.3854 76.9635 50.5365 75.5677 50.4896C74.9531 50.4635 74.3385 50.1823 73.8177 49.8958C73.4635 49.7083 73.3229 49.5417 73.2969 49.3281C73.2969 49.1146 73.4375 48.9271 73.7969 48.6667C74.3646 48.2656 75.0469 48.2188 75.8541 48.5C77.1302 48.9531 78.2396 48.7135 79.6354 48.1719C81.526 47.4375 83.375 46.7292 85.2864 46.375C89.026 45.6875 92.4531 44.224 95.7396 41.9062C95.7864 41.8802 95.8125 41.8594 95.8594 41.8333C95.8594 41.9271 95.8802 42.0208 95.8802 42.0938C92.5469 44.4323 89.0937 45.9219 85.3333 46.6094C83.4427 46.9635 81.5989 47.651 79.7083 48.3854C78.3125 48.9271 77.1041 49.2135 75.7552 48.7135C75.4479 48.599 75.1406 48.5521 74.8802 48.5521C74.526 48.5521 74.1979 48.6458 73.9114 48.8594C73.651 49.0469 73.5104 49.1875 73.5104 49.3073C73.5104 49.401 73.651 49.5208 73.9114 49.6615C74.4114 49.9219 75 50.2031 75.5677 50.2292C77.0573 50.276 78.0052 51.1979 78.7135 52.099C80.8437 54.7448 83.6823 56.375 87.3698 57.1094C89.5469 57.5365 92.0521 58.1042 94.3437 59.3333ZM78.0521 77.4948C78.7604 78.3958 78.7604 79.2917 78.026 80.0521C77.4583 80.6146 76.8437 81.1146 76.2291 81.6094C74.6458 82.8646 73.8646 84.0677 73.75 85.4635C73.651 86.5312 73.6302 87.6667 73.6771 88.9167C73.6041 88.9635 73.5364 89.0104 73.4375 89.0573C73.3698 87.7604 73.3906 86.5781 73.5104 85.4427C73.6979 83.5521 74.9791 82.2969 76.0885 81.4219C76.7031 80.9479 77.3177 80.4531 77.8646 79.8854C78.526 79.224 78.526 78.4635 77.8646 77.6354C77.0573 76.6458 75.9687 76.0781 74.6927 76.0312C73.9375 76.0052 73.0156 76.1927 72.2083 76.599C70.0364 77.6354 67.8333 77.5885 65.2552 76.4062C64.125 75.8854 62.9166 75.3646 61.6875 75.0573C60.0781 74.6562 58.4479 74.8958 57.0052 75.7917C55.3229 76.8333 53.7864 77.8021 52.2969 78.7708C50.6406 79.8594 48.75 80.2396 46.9531 80.5938C46.5521 80.6667 46.151 80.7344 45.7448 80.8281C44.3073 81.0885 42.8125 81.375 41.4219 81.8229C40 82.2708 39.1979 82.9323 38.9844 83.7604C38.7708 84.5885 39.2448 85.6094 40.2864 86.6927C41.1614 87.5938 42.2448 88.3021 43.2864 88.9896C43.5469 89.1771 43.8333 89.3438 44.0937 89.5104C44.776 89.9583 45.4896 90.3854 46.1979 90.7865C46.5521 91 46.8802 91.1875 47.2396 91.401C48.4219 92.1094 49.1041 92.8698 49.2969 93.7448C49.4583 94.474 49.2969 95.2812 48.776 96.2031C48.6823 96.2031 48.5833 96.2031 48.4896 96.2031C49.0364 95.3021 49.2239 94.5208 49.0573 93.7917C48.8698 92.9844 48.2291 92.25 47.0937 91.5885C46.7396 91.375 46.4114 91.1875 46.0573 90.974C45.3437 90.5729 44.6146 90.1458 43.9271 89.6771C43.6666 89.4844 43.4062 89.3177 43.1198 89.1562C42.0573 88.4427 40.9687 87.7344 40.0729 86.8385C38.9375 85.6771 38.4635 84.5885 38.6979 83.6667C38.9114 82.7448 39.7864 82.0365 41.3021 81.5625C42.7187 81.1146 44.2083 80.8281 45.651 80.5677C46.0573 80.5 46.4583 80.4271 46.8594 80.3333C48.6562 79.9792 50.5 79.625 52.1094 78.5573C53.5989 77.5885 55.1354 76.599 56.8125 75.5573C58.3281 74.6354 60.0052 74.375 61.6875 74.8021C62.9375 75.1302 64.1719 75.651 65.3073 76.1719C67.8125 77.3073 69.9635 77.375 72.0677 76.3594C72.9219 75.9583 73.8646 75.7448 74.6719 75.7708C76.0416 75.8385 77.1979 76.4323 78.0521 77.4948ZM77.6719 30.8385C77.7448 30.8385 77.8385 30.8385 77.9114 30.8385C79.4479 30.8385 80.5364 30.1042 81.1041 28.6823C82 26.4375 83.0416 23.7656 83.9166 21.0677C84.4844 19.3177 84.8385 16.6927 81.2448 14.2812L81.0052 14.1146C80.3698 13.6927 79.7083 13.2396 79 12.9115C78.5729 12.724 78.0989 12.625 77.625 12.5573C77.4114 12.5313 77.2239 12.4844 77.0104 12.4375C76.9896 12.4375 76.9635 12.4375 76.9375 12.4375C76.9166 12.4375 76.8906 12.4375 76.8698 12.4375C76.1823 12.5573 75.901 13.0052 76.0156 13.6927C76.0416 13.8073 76.0416 13.9271 76.0625 14.0469C76.1146 14.401 76.1614 14.7552 76.3021 15.0885C77.4844 17.974 77.0833 20.6198 75.1198 23.1979C74.8125 23.599 74.5052 24.099 74.1719 24.6667C73.4166 26.0365 73.3906 27.3854 74.1041 28.6146C74.9062 30.0104 76.1146 30.7656 77.6719 30.8385ZM74.3854 24.7812C74.7187 24.2135 75 23.7396 75.3073 23.3385C77.3177 20.7396 77.7187 17.9219 76.5364 15.0156C76.4219 14.7083 76.375 14.375 76.3229 14.0469C76.3021 13.9271 76.3021 13.8073 76.276 13.6927C76.1823 13.1458 76.4219 12.8177 76.9375 12.724H76.9635C76.9635 12.724 76.9635 12.724 76.9896 12.724C77.1979 12.7708 77.3906 12.7917 77.6041 12.8385C78.0521 12.9115 78.526 12.9792 78.901 13.1719C79.5885 13.4792 80.25 13.9271 80.8906 14.3542L81.125 14.5208C83.7969 16.3177 84.6041 18.3281 83.7031 21.0469C82.8281 23.7396 81.7864 26.4167 80.8906 28.6615C80.3229 30.0573 79.2552 30.7396 77.6979 30.6458C76.2291 30.5781 75.0729 29.8646 74.2916 28.5417C73.6302 27.3594 73.651 26.0573 74.3854 24.7812ZM42.9114 95.9427C42.8125 95.9427 42.7448 95.9167 42.651 95.9167C42.3437 94.8542 41.6562 93.9323 40.5937 93.151C38.8906 91.8958 36.9739 91.2604 34.75 91.2135C33.5208 91.1875 32.1041 91.1875 30.776 91.6615C30.2344 91.849 29.7396 92.1094 29.3125 92.4167C29.2396 92.3958 29.1458 92.349 29.0729 92.3021C29.5469 91.9427 30.0937 91.6354 30.7083 91.4271C32.0781 90.9531 33.5208 90.9271 34.75 90.974C37.0208 91.0208 38.9844 91.6823 40.7344 92.9635C41.8698 93.7917 42.6041 94.7813 42.9114 95.9427ZM40.1198 95.5625C40 95.5417 39.8802 95.5156 39.7864 95.5156C39.0573 94.6406 37.9219 94.0729 36.4531 93.7917C35.9583 93.6927 35.4583 93.6719 34.9375 93.6458C34.7031 93.6458 34.4687 93.625 34.2291 93.599C34.2083 93.599 34.2083 93.599 34.2083 93.599C34.2083 93.599 34.2083 93.599 34.1823 93.599C34.0416 93.625 33.901 93.6719 33.7344 93.6927C33.5469 93.7448 33.3541 93.7917 33.1406 93.8385C33 93.7917 32.8802 93.7448 32.7396 93.6927C33.0469 93.599 33.3802 93.5312 33.6875 93.4583C33.8281 93.4323 33.9687 93.3854 34.1146 93.3646C34.1354 93.3646 34.1614 93.3646 34.1823 93.3646C34.2083 93.3646 34.2083 93.3646 34.2291 93.3646C34.4687 93.3854 34.7031 93.3854 34.9375 93.4115C35.4375 93.4323 35.9583 93.4583 36.4791 93.5521C38.1302 93.8594 39.3646 94.5208 40.1198 95.5625ZM1.28644 47.7448C0.838521 48.0781 0.437479 48.4062 0.036438 48.7865C0.036438 48.5729 0.036438 48.3594 0.036438 48.1719C0.364562 47.8854 0.671855 47.625 1.02602 47.3646L1.09894 47.3177C2.40102 46.375 3.74477 45.3802 4.55206 43.9375C4.85935 43.3698 5.16665 42.7552 5.42706 42.1667C5.6406 41.7135 5.85415 41.2396 6.08852 40.7917C7.43748 38.1667 9.80206 37.0781 13.0885 37.599C15.026 37.9062 16.776 38.7604 18.4583 39.5885C18.6927 39.7031 18.9062 39.7969 19.1406 39.9167C21.8125 41.2188 24.0156 41.7396 26.2135 41.6198C26.5208 41.599 26.8541 41.599 27.1614 41.5729C27.8437 41.5469 28.5781 41.526 29.2656 41.4323C31.7708 41.1458 33.7083 40.5312 35.3437 39.5156C36.6875 38.6875 38.1094 37.8854 39.4583 37.125C40.1666 36.724 40.875 36.3229 41.5833 35.9219C43.6198 34.7396 45.1823 33.3438 46.3854 31.6406C48.2083 29.0625 49.8125 26.9583 51.8021 25.0885C52.5364 24.4062 53.2187 23.6458 53.9062 22.9375C54.3333 22.4635 54.7812 21.9896 55.2552 21.5208C55.776 21 56.2969 20.4531 56.9323 20.0521C58.0469 19.3177 59.3698 18.8698 60.9531 18.6823C62.2083 18.5417 63.151 18.75 63.7656 19.3438C64.3802 19.9115 64.6666 20.8333 64.6198 22.0417C64.5729 23.125 64.4323 24.2135 64.2864 25.1354C64.0729 26.5781 64.3594 27.9531 65.1406 29.25C66.9583 32.2812 69.776 34.526 73.4635 35.9219C75.9479 36.8646 78.6875 37.1979 82.0937 36.9844C84.0104 36.8646 85.2656 36.0417 85.8333 34.526C86.1146 33.7448 86.401 32.9635 86.6614 32.1823C86.9427 31.3594 87.25 30.4844 87.5573 29.6302C88.2448 27.8073 89.2135 26.3177 90.4896 25.1354C90.5625 25.2812 90.6302 25.4219 90.7291 25.5625C89.5469 26.6719 88.625 28.0938 88.0052 29.7969C87.6979 30.625 87.3906 31.5 87.1094 32.3281C86.8489 33.0833 86.5677 33.8854 86.2812 34.6667C85.6666 36.349 84.2239 37.3177 82.1406 37.4323C78.6666 37.6458 75.875 37.2917 73.3229 36.349C69.5156 34.9062 66.6302 32.5885 64.7604 29.4896C63.9323 28.0938 63.6041 26.6042 63.8385 25.0677C63.9791 24.1458 64.125 23.0781 64.1719 22.0156C64.2187 20.9531 63.9791 20.1719 63.4583 19.6979C62.9375 19.224 62.1146 19.0365 61.026 19.1562C59.4896 19.3177 58.2812 19.7448 57.2187 20.4531C56.625 20.8333 56.1302 21.3542 55.6302 21.875C55.1823 22.3229 54.7344 22.8177 54.3073 23.2708C53.625 24 52.9375 24.7604 52.2031 25.4427C50.2656 27.2917 48.6562 29.3698 46.8594 31.9219C45.6302 33.6979 43.9948 35.1406 41.9166 36.349C41.2083 36.75 40.4948 37.151 39.7864 37.5521C38.4375 38.3073 37.0208 39.1146 35.6979 39.9427C34.0156 40.9844 32.0052 41.6198 29.4323 41.9271C28.7187 42.0208 27.9896 42.0469 27.276 42.0677C26.9687 42.0938 26.6406 42.0938 26.3333 42.1146C24.0833 42.2344 21.7656 41.6927 19.0469 40.3646C18.8125 40.25 18.5989 40.1562 18.3646 40.0365C16.7083 39.2344 14.9791 38.3802 13.1146 38.099C10.0156 37.599 7.8854 38.5677 6.60935 41.0312C6.36977 41.4792 6.16144 41.9531 5.9479 42.375C5.66144 42.9688 5.38019 43.5833 5.04685 44.1719C4.1979 45.7344 2.80206 46.7292 1.4531 47.724L1.28644 47.7448ZM21.6719 8.46354C20.0156 10.026 18.1719 11.2552 16.0677 12.224C16.5625 11.776 17.0625 11.349 17.5833 10.9219C18.9271 10.1458 20.1823 9.22396 21.3437 8.13542L21.3646 8.10938C22.0521 7.66146 22.7396 7.21354 23.4479 6.78646C23.0469 7.16667 22.6406 7.54167 22.2396 7.94271L21.6719 8.46354ZM45.2291 0.328125C45.1094 0.260417 44.9896 0.187499 44.8958 0.09375C45.0156 0.09375 45.1302 0.0677083 45.25 0.0677083C45.276 0.093751 45.3229 0.114584 45.3437 0.140625C45.4635 0.213542 45.6302 0.213542 45.8177 0.114583C45.8646 0.09375 45.9375 0.067708 45.9844 0.0208333C46.125 0.0208333 46.2656 0.0208333 46.4114 0C46.2656 0.140625 46.1041 0.234374 45.9114 0.307292C45.7708 0.354166 45.651 0.401042 45.5364 0.401042C45.4166 0.421876 45.3229 0.375 45.2291 0.328125ZM36.2187 8.18229C36.0052 8.15625 35.7916 8.10938 35.5781 8.0625C35.4844 8.04167 35.3906 8.01562 35.2708 8.01562C35.2448 8.01562 35.2239 8.01562 35.1979 8.01562C35.1771 8.01562 35.151 8.01562 35.1302 8.01562C34.8906 8.0625 34.6562 8.08854 34.4427 8.13542C33.9219 8.20312 33.401 8.29688 32.9062 8.46354C31.5104 8.98437 30.3073 9.93229 29.1458 11.4688C28.2239 12.724 27.0885 14.1875 25.8125 15.5573C25.151 16.2917 24.3698 16.9323 23.6146 17.5677C23.3281 17.8073 23.0469 18.0677 22.7604 18.3021C21.2239 19.651 20.4427 21.4219 20.4427 23.4323C20.4687 25.7031 20.7031 28.6354 22.4062 31.099C23.1614 32.1823 24.0833 32.849 25.1041 33.0104C25.2656 33.0365 25.4114 33.0573 25.5729 33.0573C26.4271 33.0573 27.276 32.7292 28.1041 32.0885C29.0729 31.3333 30.0208 30.5313 30.9687 29.75C31.651 29.1823 32.3854 28.5677 33.0937 28C34.0625 27.2188 34.8229 26.6719 35.5573 26.2031C38.3906 24.4531 39.8333 21.849 39.9791 18.2344C40 17.7813 40.026 17.3333 40.0469 16.8854C40.0937 16.0573 40.1406 15.2031 40.1198 14.375C40.0729 12.8385 39.8333 11.6354 39.3646 10.5677C38.7969 9.17188 37.7291 8.36979 36.2187 8.18229ZM39.8333 16.8594C39.8125 17.3073 39.7864 17.7604 39.7656 18.2083C39.6458 21.7344 38.2291 24.2865 35.4583 25.9896C34.7031 26.4375 33.9479 27.0052 32.9791 27.7865C32.2656 28.3542 31.5364 28.9688 30.8489 29.5365C29.9271 30.3177 28.9791 31.1198 28.0104 31.8542C27.0885 32.5885 26.0937 32.8958 25.1719 32.75C24.2291 32.6094 23.3541 31.974 22.6406 30.9531C20.9896 28.5417 20.75 25.6563 20.7291 23.4115C20.7031 21.4479 21.4844 19.7448 22.9479 18.4427C23.2344 18.2083 23.5156 17.9479 23.8021 17.7135C24.5573 17.0729 25.3385 16.4115 26.026 15.6771C27.3021 14.2812 28.4375 12.8177 29.3802 11.5625C30.5156 10.0729 31.6771 9.125 33.026 8.63021C33.4948 8.46354 34.0156 8.36979 34.5156 8.29688C34.75 8.25 34.9896 8.22917 35.2239 8.18229H35.2708C35.3646 8.20312 35.4583 8.22917 35.5573 8.22917C35.7656 8.27604 35.9791 8.32292 36.2187 8.34896C37.6614 8.53646 38.6302 9.27083 39.1979 10.5938C39.6458 11.6354 39.8802 12.8177 39.9323 14.3073C39.9531 15.2031 39.8802 16.0573 39.8333 16.8594ZM36.2864 5.15625C36.7396 5.01042 37.1875 4.86979 37.6354 4.75C38.651 4.48958 39.2656 3.80729 39.5052 2.79167C39.6198 2.24479 39.7187 1.65625 39.7656 0.921875C39.7656 0.848958 39.7656 0.755209 39.7864 0.682292C39.8594 0.661458 39.9531 0.661458 40.026 0.635417C40.026 0.729166 40.026 0.828124 40 0.921875C39.9531 1.65625 39.8594 2.27083 39.7396 2.8125C39.4791 3.94792 38.7969 4.65625 37.7083 4.96354C37.2552 5.08333 36.8073 5.22396 36.3802 5.36458C35.651 5.60417 34.8906 5.83854 34.1146 5.97917C31.5104 6.5 29.3333 7.89583 27.6302 10.099C25.7656 12.5313 23.4948 14.474 21.3437 16.2917C20.276 17.1927 19.3073 18.2344 18.5521 19.3438C17.4375 20.974 17.651 22.9167 17.9583 24.4531C18.4114 26.6979 18.9791 29.0625 20.0885 31.1667C20.776 32.4896 21.8125 34.1458 23.6823 35.0677C25.125 35.7813 26.5208 35.7083 27.8229 34.8594C29.0521 34.0521 30.1146 33.1302 30.9427 32.1615C32.6719 30.151 34.75 28.7344 36.5469 27.6198C37.5416 27.0052 38.5573 26.2708 39.526 25.4896C40.6406 24.5938 41.2291 23.2917 41.4427 21.401C41.5364 20.4531 41.5833 19.4844 41.6302 18.5417C41.6823 17.5469 41.7291 16.5052 41.8437 15.4896C41.9166 14.7812 41.9635 14.0469 41.9896 13.3594C42.0573 11.9427 42.1041 10.474 42.5781 9.05729C42.9583 7.875 43.6666 7.04688 44.8021 6.43229C46.1979 5.69792 47.6614 4.86979 48.8906 3.73438C49.9583 2.76563 50.7604 1.65625 51.3541 0.328125C51.375 0.260417 51.401 0.187499 51.4219 0.114583C51.5156 0.114583 51.5885 0.114584 51.6614 0.140625C51.6354 0.234374 51.5885 0.328124 51.5416 0.421875C50.9479 1.77083 50.1198 2.90625 49.0364 3.90104C47.7552 5.05729 46.2916 5.88542 44.8958 6.64583C43.8073 7.21354 43.1458 8.01563 42.7916 9.125C42.3437 10.5208 42.2708 11.9635 42.2239 13.3854C42.1979 14.0938 42.151 14.8281 42.0833 15.5365C41.9635 16.5312 41.9166 17.5677 41.8698 18.5625C41.8229 19.5104 41.776 20.4792 41.6823 21.4219C41.4687 23.3854 40.8281 24.7344 39.6927 25.6823C38.7239 26.4844 37.7083 27.1927 36.6875 27.8333C34.8906 28.9427 32.8333 30.3385 31.1302 32.3281C30.2812 33.3177 29.1927 34.2656 27.9375 35.0677C27.1823 35.5677 26.401 35.8021 25.5989 35.8021C24.9375 35.8021 24.25 35.6354 23.5625 35.3073C21.625 34.3594 20.5625 32.6562 19.8541 31.3073C18.7396 29.1563 18.151 26.7708 17.6979 24.5208C17.3906 22.9635 17.1771 20.9271 18.3385 19.25C19.0937 18.1146 20.0885 17.0469 21.1771 16.151C23.3281 14.3542 25.5729 12.4167 27.4219 10C29.1458 7.75521 31.3698 6.33854 34.0416 5.81771C34.7969 5.625 35.5573 5.39062 36.2864 5.15625ZM34.3958 11.0885H34.3698C34.3489 11.0885 34.3229 11.0885 34.3229 11.0885C32.5729 11.349 31.6041 12.6042 30.6823 13.974C29.7135 15.4167 28.5573 16.8125 26.9219 18.4896L26.8541 18.5625C25.6927 19.7448 24.5104 20.974 23.8958 22.6094C23.1406 24.6406 23.1875 26.5104 24.0156 28.1667C24.4896 29.0625 25.0312 29.6094 25.6927 29.7969C25.8594 29.8438 26.026 29.8646 26.2135 29.8646C26.7552 29.8646 27.3958 29.6563 28.0573 29.2292C29.526 28.3073 30.9427 27.2188 32.3125 26.1771C33.0469 25.6094 33.8281 25.0417 34.5833 24.474C36.2187 23.2917 37.2552 21.6615 37.7083 19.6042C38.1094 17.6875 38.1562 15.7969 37.776 14C37.401 12.2031 35.9323 10.9219 34.3958 11.0885ZM37.4479 19.5573C37.0208 21.5417 36.0052 23.151 34.4219 24.2865C33.6614 24.8281 32.8802 25.4219 32.151 25.9896C30.776 27.0312 29.3594 28.0938 27.9166 29.0417C27.0885 29.5573 26.3541 29.75 25.7396 29.5833C25.151 29.4167 24.6302 28.9219 24.2031 28.0677C23.401 26.4844 23.3541 24.6667 24.0833 22.7031C24.6771 21.1146 25.8594 19.9115 26.9948 18.7292L27.0625 18.6562C28.6979 16.9792 29.8802 15.5833 30.8489 14.1146C31.7448 12.7917 32.6719 11.5885 34.3489 11.3281H34.3698C34.3958 11.3281 34.3958 11.3281 34.4219 11.3281C35.8125 11.1615 37.1875 12.3646 37.5156 14.0469C37.8698 15.8177 37.8489 17.6667 37.4479 19.5573ZM9.84894 20.3385C9.68227 19.9583 9.56248 19.6719 9.5156 19.4167C9.58852 19.3177 9.66144 19.224 9.72915 19.1302C9.72915 19.4167 9.84894 19.7448 10.0625 20.2396C10.2031 20.5469 10.3437 20.8802 10.4896 21.1875C10.9844 22.25 11.4791 23.3385 11.9271 24.4531C12.2864 25.375 12.6146 26.3177 12.9219 27.2188C13.3021 28.2812 13.6771 29.3698 14.1041 30.4115C14.4844 31.3594 15.0052 32.2344 15.6198 32.9427C17.1302 34.6927 19.2135 36.8906 21.9791 38.3073C25.3854 40.0573 30.0677 39.349 32.8802 36.6302C33.3073 36.2031 33.7344 35.7552 34.1354 35.3073C35.0364 34.3125 35.9583 33.2708 37.1875 32.6094C37.8489 32.2552 38.5364 31.974 39.2187 31.6875C39.8802 31.4063 40.5677 31.1198 41.2083 30.7917C44.1146 29.2031 45.7708 26.5781 46.1041 22.9375C46.2187 21.7552 46.0781 20.5729 45.9583 19.4167C45.8906 18.776 45.8177 18.1146 45.7969 17.474C45.651 14.2813 46.6927 11.9427 48.9896 10.3542C50.3333 9.41146 51.6823 8.46354 53.0052 7.52083C53.7187 7.02083 54.4271 6.5 55.1614 6.00521L55.276 5.91146C55.4687 5.77083 55.6562 5.625 55.8698 5.55729C57.3333 5.03646 58.2552 5.08333 58.9219 6.90625C59.0833 7.35417 59.25 7.80208 59.3906 8.25C59.6302 8.91667 59.8646 9.57812 60.125 10.2396C60.4791 11.1823 61.2396 11.849 62.4427 12.224C63.1302 12.4375 63.8125 12.651 64.5 12.8646L65.1875 13.0781C67.6719 13.8542 69.2291 15.5104 69.8698 18.0417C70.151 19.2031 70.1041 20.4531 69.7291 21.6146C69.5156 22.276 69.3229 22.9375 69.1354 23.5781C68.3073 26.4375 68.875 28.8281 70.8854 30.8385C72.0937 32.0417 73.7708 33.4844 76.0625 34.0521C77.9114 34.5 79.875 34.7604 81.9062 33.8385C83.0885 33.2969 83.8698 32.3021 84.3437 30.7917C85.3333 27.599 87.0156 24.875 88.8594 22.4167C88.9062 22.4896 88.9531 22.5573 89 22.6302C87.1823 25.0677 85.5469 27.7396 84.5573 30.8594C84.0573 32.4219 83.2291 33.4844 81.9791 34.0521C79.8958 35.0208 77.8646 34.7396 75.9948 34.2917C73.651 33.724 71.9479 32.2552 70.6979 31.026C68.6146 28.9427 68.026 26.5104 68.875 23.5312C69.0625 22.8906 69.2552 22.2292 69.4687 21.5677C69.8437 20.4323 69.8906 19.25 69.6094 18.1354C68.9948 15.7031 67.4791 14.0938 65.0937 13.3385L64.4062 13.125C63.7187 12.9115 63.0364 12.6979 62.3489 12.4844C61.0729 12.0833 60.2656 11.3958 59.8906 10.3542C59.6302 9.69271 59.3906 9.01042 59.1562 8.34896C58.9896 7.89583 58.8489 7.44792 58.6823 7.02083C58.1406 5.53125 57.5 5.25 55.9375 5.81771C55.75 5.88542 55.5625 6.00521 55.3958 6.14583L55.276 6.23958C54.5677 6.73958 53.8594 7.26042 53.125 7.75521C51.8021 8.70312 50.4531 9.64583 49.1041 10.5938C46.8802 12.1302 45.8646 14.401 46.0312 17.5C46.0573 18.1354 46.125 18.7969 46.1979 19.4375C46.3125 20.599 46.4583 21.8021 46.3385 23.0104C45.9844 26.724 44.3073 29.4167 41.3021 31.0469C40.6614 31.4062 39.9791 31.6875 39.3125 31.974C38.651 32.2552 37.9427 32.5417 37.3073 32.8958C36.1198 33.5573 35.1979 34.5729 34.3229 35.5417C33.9219 35.9896 33.4948 36.4635 33.0729 36.8906C31.25 38.6406 28.651 39.5885 26.1198 39.5885C24.651 39.5885 23.1875 39.2552 21.9114 38.6146C19.0937 37.1719 16.9896 34.9531 15.4791 33.1771C14.8385 32.4427 14.3177 31.5469 13.9166 30.5781C13.4896 29.5104 13.1146 28.4219 12.7344 27.3594C12.4271 26.4635 12.0937 25.5156 11.7396 24.5938C11.3125 23.4844 10.7969 22.3958 10.3229 21.3542C10.1302 20.9531 9.98956 20.6458 9.84894 20.3385ZM2.8229 39.7031C2.14061 41.3125 1.23956 42.6823 0.197896 43.8438C0.223939 43.5833 0.244772 43.2969 0.270813 43.0417C1.09894 42.0208 1.80727 40.8646 2.37498 39.5156C3.41665 37.1042 4.81248 35.5417 6.74998 34.599C8.00519 33.9844 9.30206 33.8385 10.6771 34.1719C13.2083 34.7604 15.4271 36.0885 17.6041 37.3385C19 38.1458 20.6094 39.0885 22.2864 39.7969C24.7708 40.8385 27.3229 40.5781 29.5 40.1771C32.3854 39.6562 34.6562 37.9792 36.6406 36.276C37.7291 35.3281 39.0781 34.526 40.7083 33.8385C42.651 33.0104 44.2344 31.7344 45.3698 30.0573C46.5729 28.2813 47.9479 26.2708 48.8229 24.0469C49.2969 22.8646 49.2239 21.7083 49.151 20.4792C49.1302 19.8646 48.9635 19.2708 48.776 18.6562C48.6823 18.3021 48.5833 17.9479 48.5156 17.5938C48.2291 16.2448 48.7969 14.7083 49.9583 13.5469C51.0937 12.4375 52.5364 11.9427 53.8125 12.224C54.7083 12.4167 55.5156 13.0521 56.0573 13.5469C57.5729 14.9688 59.3437 15.2031 61.0469 15.276C62.1823 15.3229 63.25 15.4635 64.1719 15.7031C66.651 16.3646 67.8333 18.3958 67.3385 21.1667L67.2916 21.474C67.0312 22.8646 66.7969 24.3333 66.5833 25.776C66.3698 27.3594 66.8906 28.849 68.1666 30.3646C70.2969 32.8698 72.5416 34.4062 75.0469 35.0938C77.651 35.8021 79.6354 35.9427 81.526 35.5885C83.3489 35.2344 84.5573 34.0521 85.3125 31.8281L85.3594 31.6875C85.9479 29.9167 86.5885 28.0938 87.6302 26.4635C88.2187 25.4896 88.9323 24.6406 89.6875 23.8594C89.7552 24 89.8541 24.1458 89.9219 24.2865C89.2135 25.0208 88.5729 25.8229 88.0052 26.724C86.9896 28.3281 86.375 30.1042 85.7864 31.8542L85.7396 31.9948C84.9323 34.3385 83.5833 35.6823 81.5989 36.0625C79.6354 36.4427 77.5781 36.276 74.9062 35.5677C72.3073 34.8594 69.9896 33.2708 67.7864 30.6927C66.4375 29.1094 65.875 27.4323 66.0833 25.7292C66.2969 24.2865 66.5364 22.8177 66.7969 21.4219L66.8437 21.1146C67.2916 18.6094 66.2291 16.7656 64.0052 16.1979C63.1041 15.9635 62.0885 15.8177 60.9791 15.7708C59.276 15.7031 57.2864 15.4427 55.6823 13.9271C54.9948 13.2917 54.2864 12.8646 53.6719 12.724C52.5364 12.4635 51.2552 12.9115 50.2396 13.9271C49.1771 14.9688 48.6823 16.3646 48.9166 17.5469C48.9896 17.901 49.0833 18.2552 49.1771 18.5885C49.3437 19.2031 49.5312 19.8385 49.5573 20.5C49.625 21.7344 49.6979 23.0104 49.1771 24.2865C48.276 26.5573 46.9062 28.5885 45.6771 30.3854C44.4687 32.1354 42.8385 33.4635 40.8073 34.3385C39.1979 35.0208 37.9219 35.7812 36.8541 36.7031C34.7969 38.4531 32.4791 40.1771 29.4791 40.724C27.2291 41.125 24.5833 41.4063 22.0052 40.3177C20.3021 39.6094 18.6719 38.6667 17.276 37.8385C15.1458 36.5833 12.9479 35.2812 10.4896 34.7135C9.20831 34.4062 8.02602 34.5469 6.86977 35.1146C5.11977 35.8958 3.81769 37.3854 2.8229 39.7031ZM63.9114 6.76042C63.8646 5.51042 63.9114 4.39583 64.0989 3.40625C64.1458 3.19271 64.1927 2.95312 64.2396 2.73958C64.3125 2.76562 64.3802 2.79167 64.4791 2.8125C64.4323 3.02604 64.3802 3.23958 64.3333 3.45312C64.1719 4.44271 64.0989 5.51042 64.1458 6.76042C64.1927 7.98958 64.8802 8.9375 66.1094 9.47917C70.4114 11.375 71.9479 15.3229 72.8021 18.5625C73.1562 19.8854 72.6146 21.1875 72.0677 22.4635C72.0208 22.5833 71.9739 22.724 71.901 22.8438C71.4531 23.9062 71.1458 24.9219 70.9791 25.8958C70.7656 27.099 71.125 28.3281 72.0677 29.5365C73.7969 31.7604 75.875 32.849 78.4531 32.849H78.4791C80.3906 32.849 81.7396 32.0208 82.6146 30.3385C82.901 29.7969 83.1354 29.2031 83.375 28.6146C83.5625 28.1406 83.776 27.6458 83.9896 27.1719C84.9323 25.1823 85.9271 23.125 86.9896 21.0938C87.1302 20.8073 87.25 20.526 87.3698 20.2656C87.4166 20.3385 87.4896 20.4323 87.5364 20.5C87.4427 20.7396 87.3229 20.974 87.2031 21.2135C86.1406 23.2448 85.1719 25.3021 84.1979 27.2917C83.9896 27.7604 83.776 28.2344 83.5833 28.7083C83.3489 29.276 83.1146 29.8646 82.8073 30.4323C81.9062 32.1823 80.4375 33.0833 78.4531 33.0833H78.4323C75.8073 33.0573 73.6041 31.9219 71.8541 29.6771C70.8854 28.4219 70.5052 27.099 70.7187 25.849C70.9114 24.875 71.2187 23.8125 71.6666 22.75C71.7135 22.6302 71.7604 22.4896 71.8333 22.3698C72.3541 21.1406 72.875 19.8854 72.5416 18.6354C70.9323 12.5781 68.1875 10.6875 65.9896 9.71875C64.6875 9.10417 63.9583 8.08854 63.9114 6.76042Z" fill="white"/>
</g>
</svg>
