<svg width="121" height="125" viewBox="0 0 121 125" fill="none" xmlns="http://www.w3.org/2000/svg">
<mask id="mask0_1_4" style="mask-type:luminance" maskUnits="userSpaceOnUse" x="0" y="0" width="121" height="125">
<path d="M0 0H121V125H0V0Z" fill="white"/>
</mask>
<g mask="url(#mask0_1_4)">
<path d="M85.7292 3.02083H70.1406C69.4687 2.07813 68.6198 1.33333 67.5885 0.802083C66.5573 0.270833 65.4635 0 64.3021 0H32.4062C31.2448 0 30.151 0.270833 29.1198 0.802083C28.0885 1.33333 27.2396 2.07813 26.5677 3.02083H10.9844C10.2812 3.02083 9.58332 3.08854 8.89582 3.22396C8.20312 3.35937 7.53124 3.5625 6.88541 3.83333C6.23437 4.09896 5.61457 4.42708 5.03124 4.81771C4.4427 5.20833 3.90103 5.65104 3.40103 6.15104C2.90624 6.64583 2.45832 7.1875 2.0677 7.77083C1.67707 8.35417 1.34374 8.96875 1.07291 9.61979C0.802072 10.2708 0.598949 10.9375 0.458323 11.6302C0.317698 12.3177 0.249989 13.0156 0.244781 13.7188V114.375C0.249989 115.078 0.317698 115.776 0.458323 116.469C0.593739 117.156 0.802072 117.828 1.07291 118.479C1.34374 119.13 1.67186 119.745 2.06249 120.328C2.45832 120.917 2.90103 121.458 3.40103 121.953C3.89582 122.453 4.4427 122.896 5.02603 123.286C5.60936 123.677 6.22916 124.005 6.8802 124.276C7.53124 124.547 8.20312 124.75 8.89062 124.885C9.58332 125.026 10.2812 125.094 10.9844 125.094H118.589C118.865 125.094 119.13 125.042 119.385 124.932C119.641 124.828 119.87 124.677 120.062 124.479C120.26 124.286 120.411 124.063 120.516 123.807C120.62 123.552 120.677 123.286 120.677 123.005C120.672 121.313 120.521 119.63 120.214 117.964C119.911 116.297 119.458 114.672 118.865 113.083C118.271 111.5 117.536 109.979 116.667 108.521C115.802 107.068 114.812 105.703 113.698 104.422C112.583 103.146 111.365 101.979 110.047 100.917C108.724 99.8594 107.318 98.9271 105.828 98.1146C104.339 97.3073 102.786 96.6406 101.177 96.1094C99.5677 95.5833 97.9219 95.1979 96.2448 94.9635C97.4271 94.0781 98.4948 93.0677 99.4375 91.9323C100.385 90.8021 101.193 89.5729 101.854 88.2552C102.516 86.9323 103.016 85.5521 103.354 84.1146C103.693 82.6771 103.865 81.2188 103.865 79.7448V77.4896C104.521 77.349 105.135 77.1198 105.719 76.7969C106.302 76.4688 106.823 76.0677 107.286 75.5833C107.745 75.099 108.125 74.5625 108.422 73.9635C108.719 73.3698 108.922 72.7396 109.031 72.0833C109.141 71.4219 109.151 70.7656 109.057 70.1042C108.969 69.4427 108.781 68.8073 108.5 68.2031C108.219 67.599 107.854 67.0521 107.406 66.5573C106.958 66.0625 106.448 65.6406 105.875 65.3021C105.786 63.651 105.51 62.0365 105.042 60.4531C104.578 58.8698 103.932 57.3594 103.115 55.9271C102.297 54.4948 101.323 53.1719 100.198 51.9688C99.0677 50.7604 97.8177 49.6979 96.4427 48.7865V13.7188C96.4427 13.0156 96.375 12.3177 96.2344 11.6302C96.0937 10.9427 95.8906 10.2708 95.6198 9.625C95.3542 8.97396 95.0208 8.35938 94.6302 7.77604C94.2396 7.19271 93.7969 6.65104 93.2969 6.15104C92.8021 5.65625 92.2604 5.21354 91.6719 4.82292C91.0885 4.43229 90.474 4.10417 89.8229 3.83854C89.1719 3.56771 88.5052 3.36458 87.8177 3.22917C87.125 3.08854 86.4323 3.02083 85.7292 3.02083ZM92.151 46.5938L92.276 45.5365V46.6458C92.2292 46.625 92.1927 46.6042 92.151 46.5885V46.5938ZM66.25 84.2083H41.2552C40.9792 84.2083 40.7135 84.2604 40.4583 84.3646C40.2031 84.474 39.9792 84.625 39.7812 84.8177C39.5885 85.0156 39.4375 85.2396 39.3281 85.4948C39.2239 85.75 39.1719 86.0156 39.1719 86.2917C39.1719 86.5677 39.2239 86.8333 39.3333 87.0885C39.4375 87.3438 39.5885 87.5729 39.7812 87.7656C39.9792 87.9635 40.2031 88.1146 40.4583 88.2188C40.7135 88.3229 40.9792 88.375 41.2552 88.375H67.7917C68.3073 89.3906 68.9167 90.3542 69.6094 91.2604H41.2552C40.9792 91.2604 40.7135 91.3125 40.4583 91.4219C40.2031 91.526 39.9739 91.6771 39.7812 91.8698C39.5833 92.0677 39.4323 92.2917 39.3281 92.5469C39.2239 92.8021 39.1719 93.0677 39.1719 93.3438C39.1719 93.6198 39.2239 93.8854 39.3281 94.1458C39.4323 94.401 39.5833 94.625 39.7812 94.8177C39.9739 95.0156 40.2031 95.1667 40.4583 95.2708C40.7135 95.375 40.9792 95.4323 41.2552 95.4323H70.2604C68.2656 95.901 66.3437 96.5781 64.4948 97.4635C62.651 98.3542 60.9167 99.4271 59.3021 100.688C57.6875 101.948 56.224 103.365 54.9167 104.943C53.6094 106.521 52.4844 108.219 51.5417 110.042H15.3021V18.0729H26.2292C26.8698 19.1771 27.7396 20.0469 28.8385 20.6823C29.9427 21.3177 31.1302 21.6406 32.4062 21.6458H64.3021C65.5781 21.6406 66.7656 21.3177 67.8646 20.6823C68.9687 20.0469 69.8385 19.1771 70.4792 18.0729H81.3906V42.7396H79.2917C78.9948 42.7396 78.7135 42.8021 78.4375 42.9219C78.1667 43.0417 77.9323 43.2135 77.7344 43.4375C77.5365 43.6615 77.3958 43.9167 77.3073 44.1979C77.2135 44.4844 77.1875 44.7708 77.224 45.0677L77.401 46.5885C76.0312 47.099 74.7292 47.75 73.4896 48.5313C72.2552 49.3177 71.1146 50.2188 70.0625 51.2396C69.0156 52.2552 68.0833 53.375 67.2656 54.5885C66.4479 55.7969 65.7604 57.0833 65.2083 58.4375H41.2552C40.9792 58.4375 40.7135 58.4896 40.4583 58.599C40.2031 58.7031 39.9792 58.8542 39.7864 59.0521C39.5885 59.2448 39.4375 59.4688 39.3333 59.724C39.2292 59.9792 39.1771 60.2448 39.1771 60.5208C39.1771 60.7969 39.2292 61.0625 39.3333 61.3177C39.4375 61.5729 39.5885 61.8021 39.7864 61.9948C39.9792 62.1927 40.2031 62.3438 40.4583 62.4479C40.7135 62.5521 40.9792 62.6094 41.2552 62.6094H63.9844C63.8229 63.5 63.7187 64.3958 63.6719 65.3021C63.5573 65.375 63.4323 65.4271 63.3229 65.5104H41.2552C40.9792 65.5104 40.7135 65.5625 40.4583 65.6667C40.2031 65.776 39.9792 65.9271 39.7812 66.1198C39.5885 66.3177 39.4375 66.5417 39.3281 66.7969C39.2239 67.0521 39.1719 67.3177 39.1719 67.5938C39.1719 67.8698 39.2239 68.1354 39.3333 68.3906C39.4375 68.6458 39.5885 68.875 39.7812 69.0677C39.9792 69.2656 40.2031 69.4167 40.4583 69.5208C40.7135 69.625 40.9792 69.6823 41.2552 69.6823H60.5625C60.474 70.1146 60.4323 70.5521 60.4323 70.9896C60.4323 71.7552 60.5625 72.4948 60.8177 73.2083C61.0729 73.9271 61.4375 74.5833 61.9167 75.1771C62.3958 75.7656 62.9583 76.2604 63.6094 76.6615C64.2604 77.0625 64.9531 77.3385 65.6979 77.5V79.7552C65.7083 81.2604 65.8906 82.7448 66.25 84.2083ZM77.9062 50.8906L79.4896 64.3281H67.9375C68.1198 62.8698 68.4844 61.4635 69.0312 60.1042C69.5781 58.7448 70.2865 57.474 71.1615 56.3021C72.0312 55.125 73.0417 54.0781 74.1823 53.1615C75.3281 52.2448 76.5677 51.4844 77.9062 50.8906ZM81.6354 46.9063H87.9115L85.8646 64.3281H83.6875L81.6354 46.9063ZM92.2708 13.7188V44.4948C92.2187 44.099 92.0677 43.7448 91.8125 43.4375C91.3958 42.974 90.8802 42.7396 90.2552 42.7396H85.5625V15.9896C85.5625 15.7135 85.5104 15.4479 85.401 15.1927C85.2969 14.9375 85.1458 14.7135 84.9479 14.5156C84.7552 14.3177 84.5312 14.1719 84.276 14.0625C84.0208 13.9583 83.75 13.9063 83.474 13.9063H71.4948V7.19271H85.7292C86.1562 7.19271 86.5833 7.23438 87.0052 7.31771C87.4219 7.40104 87.8333 7.52083 88.2292 7.6875C88.625 7.84896 89 8.05208 89.3594 8.29167C89.7187 8.52604 90.0469 8.79688 90.349 9.09896C90.6562 9.40104 90.9271 9.73437 91.1667 10.0885C91.4062 10.4479 91.6042 10.8229 91.7708 11.2188C91.9375 11.6146 92.0625 12.0208 92.1458 12.4427C92.2292 12.8646 92.2708 13.2865 92.276 13.7188H92.2708ZM32.4062 4.16667H64.3021C64.7031 4.16667 65.0885 4.24479 65.4583 4.40104C65.8281 4.55208 66.1562 4.77083 66.4375 5.05208C66.724 5.33854 66.9375 5.66146 67.0937 6.03646C67.2448 6.40625 67.3229 6.78646 67.3229 7.1875V14.4531C67.3229 14.8542 67.2448 15.2396 67.0937 15.6094C66.9375 15.9792 66.724 16.3073 66.4375 16.5885C66.1562 16.8698 65.8281 17.0885 65.4583 17.2448C65.0885 17.3958 64.7031 17.474 64.3021 17.474H32.4062C32.0052 17.474 31.6198 17.3958 31.25 17.2448C30.8802 17.0885 30.5521 16.8698 30.2708 16.5885C29.9844 16.3073 29.7656 15.9792 29.6146 15.6094C29.4635 15.2396 29.3854 14.8542 29.3854 14.4531V7.1875C29.3854 6.78646 29.4635 6.40625 29.6146 6.03646C29.7656 5.66667 29.9844 5.33854 30.2708 5.05208C30.5521 4.77083 30.8802 4.55208 31.25 4.40104C31.6198 4.24479 32.0052 4.16667 32.4062 4.16667ZM4.41666 114.375V13.7188C4.41666 13.2865 4.46353 12.8646 4.54686 12.4427C4.63541 12.0208 4.76041 11.6094 4.92707 11.2135C5.08853 10.8177 5.29166 10.4427 5.53124 10.0833C5.77603 9.72917 6.04686 9.40104 6.34895 9.09375C6.65624 8.79167 6.98957 8.52083 7.34374 8.28646C7.70312 8.04688 8.08332 7.84896 8.47916 7.68229C8.87499 7.52083 9.28645 7.39583 9.70832 7.3125C10.1302 7.22917 10.5521 7.19271 10.9844 7.19271H25.2135V13.9063H13.2135C12.9375 13.9063 12.6719 13.9583 12.4167 14.0625C12.1614 14.1719 11.9375 14.3177 11.7396 14.5156C11.5469 14.7135 11.3958 14.9375 11.2864 15.1927C11.1823 15.4479 11.1302 15.7135 11.1302 15.9896V112.125C11.1302 112.401 11.1823 112.667 11.2864 112.922C11.3958 113.177 11.5469 113.401 11.7396 113.599C11.9375 113.792 12.1614 113.943 12.4167 114.052C12.6719 114.156 12.9375 114.208 13.2135 114.208H49.7917C49.0833 116.396 48.6458 118.63 48.4844 120.922H10.9844C10.5521 120.922 10.125 120.88 9.70312 120.797C9.28124 120.714 8.87499 120.589 8.47395 120.427C8.07812 120.26 7.69791 120.063 7.33853 119.823C6.98437 119.583 6.65103 119.313 6.34895 119.005C6.04166 118.703 5.77082 118.375 5.53124 118.016C5.29166 117.656 5.08853 117.281 4.92186 116.885C4.7552 116.484 4.6302 116.078 4.54686 115.656C4.46353 115.234 4.41666 114.807 4.41666 114.375ZM116.417 120.922H52.6354C52.7656 119.427 53.0365 117.958 53.4375 116.516C53.8437 115.073 54.375 113.677 55.0364 112.333C55.7031 110.99 56.4844 109.714 57.3802 108.516C58.2812 107.318 59.2812 106.208 60.3854 105.193C61.4948 104.182 62.6823 103.276 63.9531 102.484C65.2292 101.693 66.5625 101.021 67.9583 100.479C69.3542 99.9323 70.7917 99.5208 72.2656 99.2448C73.7396 98.9635 75.224 98.8229 76.724 98.8229H92.3229C93.8229 98.8229 95.3125 98.9635 96.7865 99.2396C98.2604 99.5208 99.6927 99.9323 101.089 100.474C102.49 101.021 103.823 101.688 105.094 102.484C106.37 103.276 107.557 104.177 108.661 105.193C109.771 106.208 110.771 107.313 111.672 108.51C112.568 109.714 113.349 110.984 114.016 112.333C114.677 113.677 115.208 115.073 115.615 116.516C116.016 117.958 116.286 119.427 116.417 120.922ZM84.7969 94.651C83.8177 94.651 82.849 94.5573 81.8906 94.3646C80.9271 94.1771 79.9948 93.8958 79.0937 93.5208C78.1875 93.1458 77.3281 92.6875 76.5156 92.1458C75.6979 91.599 74.9479 90.9844 74.2552 90.2917C73.5625 89.599 72.9427 88.849 72.3958 88.0365C71.8542 87.224 71.3906 86.3646 71.0156 85.4583C70.6406 84.5573 70.3542 83.625 70.1615 82.6667C69.9687 81.7031 69.8698 80.7344 69.8698 79.7552V77.6458H99.6979V79.75C99.6979 80.7292 99.599 81.6979 99.4062 82.6563C99.2187 83.6146 98.9323 84.5469 98.5573 85.4479C98.1823 86.3542 97.724 87.2135 97.1823 88.026C96.6406 88.8385 96.0208 89.5885 95.3281 90.2813C94.6354 90.974 93.8854 91.5938 93.0729 92.1354C92.2604 92.6771 91.401 93.1406 90.5 93.5156C89.5937 93.8906 88.6615 94.1719 87.7031 94.3646C86.7448 94.5573 85.776 94.651 84.7969 94.651ZM102.458 73.4844H101.833C101.812 73.4844 101.792 73.4688 101.771 73.4688C101.75 73.4688 101.734 73.4844 101.714 73.4844H67.8437C67.8229 73.4844 67.8073 73.4688 67.7865 73.4688C67.7656 73.4688 67.7448 73.4844 67.724 73.4844H67.099C66.776 73.474 66.4635 73.401 66.1667 73.2708C65.8698 73.1406 65.6094 72.9583 65.3854 72.7292C65.1562 72.4948 64.9844 72.2292 64.8646 71.9271C64.7396 71.6302 64.6823 71.3177 64.6823 70.9948C64.6823 70.6667 64.7396 70.3542 64.8646 70.0573C64.9844 69.7552 65.1562 69.4896 65.3854 69.2552C65.6094 69.026 65.8698 68.8438 66.1667 68.7135C66.4635 68.5833 66.776 68.5104 67.099 68.5H102.458C102.781 68.5104 103.094 68.5833 103.391 68.7135C103.687 68.8438 103.948 69.026 104.172 69.2552C104.401 69.4896 104.573 69.7552 104.698 70.0573C104.818 70.3542 104.88 70.6667 104.88 70.9948C104.88 71.3177 104.818 71.6302 104.698 71.9271C104.573 72.2292 104.401 72.4948 104.172 72.7292C103.948 72.9583 103.687 73.1406 103.391 73.2708C103.094 73.401 102.781 73.474 102.458 73.4844ZM101.609 64.3333H90.0677L91.651 50.8958C92.9844 51.4948 94.2292 52.25 95.3698 53.1667C96.5156 54.0781 97.5208 55.125 98.3958 56.3021C99.2656 57.4792 99.974 58.7448 100.521 60.1094C101.068 61.4688 101.427 62.875 101.609 64.3281V64.3333Z" fill="white"/>
</g>
<path d="M32.1042 31.1198H21.9167C21.6406 31.1198 21.375 31.1719 21.1198 31.2761C20.8646 31.3854 20.6354 31.5365 20.4427 31.7292C20.2448 31.9271 20.0937 32.1511 19.9896 32.4063C19.8854 32.6615 19.8281 32.9271 19.8281 33.2031V43.3959C19.8281 43.6719 19.8854 43.9375 19.9896 44.1927C20.0937 44.4479 20.2448 44.6719 20.4427 44.8698C20.6354 45.0625 20.8646 45.2136 21.1198 45.3177C21.375 45.4271 21.6406 45.4792 21.9167 45.4792H32.1042C32.3802 45.4792 32.651 45.4271 32.9063 45.3177C33.1615 45.2136 33.3854 45.0625 33.5781 44.8698C33.776 44.6719 33.9271 44.4479 34.0313 44.1927C34.1406 43.9375 34.1927 43.6719 34.1927 43.3959V33.2031C34.1927 32.9271 34.1406 32.6615 34.0313 32.4063C33.9271 32.1511 33.776 31.9271 33.5781 31.7292C33.3854 31.5365 33.1615 31.3854 32.9063 31.2761C32.651 31.1719 32.3802 31.1198 32.1042 31.1198ZM30.0208 41.3073H24V35.2917H30.0208V41.3073Z" fill="white"/>
<path d="M41.2552 36.8542H74.0417C74.3177 36.8542 74.5833 36.8021 74.8385 36.6927C75.0938 36.5886 75.3229 36.4375 75.5156 36.2448C75.7135 36.0469 75.8646 35.8229 75.9688 35.5677C76.0729 35.3125 76.125 35.0469 76.125 34.7709C76.125 34.4896 76.0729 34.224 75.9688 33.9688C75.8646 33.7136 75.7135 33.4896 75.5156 33.2917C75.3229 33.099 75.0938 32.9479 74.8385 32.8438C74.5833 32.7344 74.3177 32.6823 74.0417 32.6823H41.2552C40.9792 32.6823 40.7135 32.7344 40.4583 32.8438C40.2031 32.9479 39.974 33.099 39.7813 33.2917C39.5833 33.4896 39.4323 33.7136 39.3281 33.9688C39.224 34.224 39.1719 34.4896 39.1719 34.7709C39.1719 35.0469 39.224 35.3125 39.3281 35.5677C39.4323 35.8229 39.5833 36.0469 39.7813 36.2448C39.974 36.4375 40.2031 36.5886 40.4583 36.6927C40.7135 36.8021 40.9792 36.8542 41.2552 36.8542Z" fill="white"/>
<path d="M41.2552 43.9167H74.0417C74.3177 43.9167 74.5833 43.8594 74.8385 43.7552C75.0938 43.6511 75.3229 43.5 75.5156 43.3021C75.7135 43.1094 75.8646 42.8854 75.9688 42.6302C76.0729 42.3698 76.125 42.1042 76.125 41.8281C76.125 41.5521 76.0729 41.2865 75.9688 41.0313C75.8646 40.7761 75.7135 40.5521 75.5156 40.3542C75.3229 40.1615 75.0938 40.0104 74.8385 39.9063C74.5833 39.7969 74.3177 39.7448 74.0417 39.7448H41.2552C40.9792 39.7448 40.7135 39.7969 40.4583 39.9063C40.2031 40.0104 39.974 40.1615 39.7813 40.3542C39.5833 40.5521 39.4323 40.7761 39.3281 41.0313C39.224 41.2865 39.1719 41.5521 39.1719 41.8281C39.1719 42.1042 39.224 42.3698 39.3281 42.6302C39.4323 42.8854 39.5833 43.1094 39.7813 43.3021C39.974 43.5 40.2031 43.6511 40.4583 43.7552C40.7135 43.8594 40.9792 43.9167 41.2552 43.9167Z" fill="white"/>
<path d="M32.1042 56.8802H21.9167C21.6406 56.8802 21.375 56.9323 21.1198 57.0365C20.8646 57.1406 20.6354 57.2917 20.4427 57.4896C20.2448 57.6823 20.0937 57.9115 19.9896 58.1667C19.8854 58.4219 19.8281 58.6875 19.8281 58.9636V69.1511C19.8281 69.4271 19.8854 69.6927 19.9896 69.9479C20.0937 70.2083 20.2448 70.4323 20.4427 70.625C20.6354 70.8229 20.8646 70.974 21.1198 71.0781C21.375 71.1823 21.6406 71.2396 21.9167 71.2396H32.1042C32.3802 71.2396 32.651 71.1823 32.9063 71.0781C33.1615 70.974 33.3854 70.8229 33.5781 70.625C33.776 70.4323 33.9271 70.2083 34.0313 69.9479C34.1406 69.6927 34.1927 69.4271 34.1927 69.1511V58.9636C34.1927 58.6875 34.1406 58.4219 34.0313 58.1667C33.9271 57.9115 33.776 57.6823 33.5781 57.4896C33.3854 57.2917 33.1615 57.1406 32.9063 57.0365C32.651 56.9323 32.3802 56.8802 32.1042 56.8802ZM30.0208 67.0677H24V61.0469H30.0208V67.0677Z" fill="white"/>
<path d="M32.1042 82.6354H21.9167C21.6406 82.6354 21.375 82.6927 21.1198 82.7969C20.8646 82.9011 20.6354 83.0521 20.4427 83.25C20.2448 83.4427 20.0937 83.6667 19.9896 83.9271C19.8854 84.1823 19.8281 84.4479 19.8281 84.724V94.9115C19.8281 95.1875 19.8854 95.4531 19.9896 95.7084C20.0937 95.9636 20.2448 96.1875 20.4427 96.3854C20.6354 96.5781 20.8646 96.7292 21.1198 96.8334C21.375 96.9427 21.6406 96.9948 21.9167 96.9948H32.1042C32.3802 96.9948 32.651 96.9427 32.9063 96.8334C33.1615 96.7292 33.3854 96.5781 33.5781 96.3854C33.776 96.1875 33.9271 95.9636 34.0313 95.7084C34.1406 95.4531 34.1927 95.1875 34.1927 94.9115V84.724C34.1927 84.4479 34.1406 84.1823 34.0313 83.9271C33.9271 83.6667 33.776 83.4427 33.5781 83.25C33.3854 83.0521 33.1615 82.9011 32.9063 82.7969C32.651 82.6927 32.3802 82.6354 32.1042 82.6354ZM30.0208 92.8229H24V86.8073H30.0208V92.8229Z" fill="white"/>
</svg>
