<svg width="92" height="92" viewBox="0 0 92 92" fill="none" xmlns="http://www.w3.org/2000/svg">
<mask id="mask0_1_11" style="mask-type:luminance" maskUnits="userSpaceOnUse" x="0" y="57" width="92" height="35">
<path d="M0 57.0261H92V92H0V57.0261Z" fill="white"/>
</mask>
<g mask="url(#mask0_1_11)">
<path d="M46.1927 92.3177C46.3385 92.3906 46.4844 92.3906 46.625 92.3906C46.7708 92.3906 46.9167 92.3906 47.0625 92.3177H47.1302C47.2031 92.3177 47.2031 92.3177 47.276 92.2448L91.5208 71.5313C92.026 71.3125 92.3906 70.8073 92.3906 70.2292V63.1563V63.0834C92.3906 63.0104 92.3906 62.9375 92.3906 62.8698V62.7969C92.3906 62.724 92.3906 62.724 92.3177 62.6511C92.3177 62.6511 92.3177 62.5781 92.2448 62.5781C92.2448 62.5052 92.1719 62.5052 92.1719 62.4323C92.1719 62.4323 92.1719 62.3646 92.099 62.3646C92.026 62.2917 92.026 62.2917 91.9583 62.2188C91.9583 62.2188 91.9583 62.2188 91.8854 62.1459C91.8125 62.0729 91.7396 62 91.6667 62C91.6667 62 91.5938 62 91.5938 61.9271C91.5208 61.9271 91.5208 61.8594 91.4531 61.8594C91.0885 61.7136 85.4583 59.1146 79.0365 57.1667C79.2552 58.1771 79.1823 59.1875 78.75 60.125C81.5625 60.9896 84.2344 62 86.3281 62.8698C83.7292 63.8802 80.2656 65.9688 76.8698 69.9427C76.151 70.5209 71.3125 74.0573 64.9635 74.2709C58.3906 74.5625 49.3698 79.3959 46.625 80.9844C45.3281 80.1927 42.8021 79.1823 39.5521 80.2604C37.6042 80.9115 35.5833 79.3959 34.5729 78.3854C33.4167 77.2292 32.0469 76.4375 30.6042 75.9323C28.6563 75.2813 25.625 74.5625 22.3021 74.9948C19.4896 74.9948 13.3542 74.4167 12.0521 72.3959C10.9688 70.6615 8.94792 69.7969 7 69.3646C10.7552 67.7761 13.1354 67.0521 13.6406 66.9115C13.8594 66.9115 14.0729 66.8386 14.2188 66.8386C13.7135 65.9688 13.4948 64.9584 13.6406 64.0209C13.4948 64.0209 13.3542 64.0938 13.1354 64.0938C13.0625 64.0938 12.9896 64.0938 12.9167 64.1667C12.7031 64.2396 8.22917 65.4636 0.651042 69.1459C0.578126 69.2188 0.505209 69.2188 0.432292 69.2917L0.359375 69.3646C0.359375 69.2188 0.359374 69.2917 0.286458 69.2917L0.213542 69.3646C0.213542 69.4375 0.140625 69.4375 0.140625 69.5104C0.140625 69.5104 0.140625 69.5781 0.0729167 69.5781C0.0729167 69.6511 0 69.6511 0 69.724C0 69.7969 0 69.7969 0 69.8698C0 69.9427 0 69.9427 0 70.0156C0 70.0834 0 70.0834 0 70.1563V70.2292V77.0886C0 77.7344 0.432291 78.3125 1.01042 78.4584L46.1927 92.3177ZM65.1042 77.0886C72.901 76.7969 78.6042 72.1771 78.8177 72.0365C78.8906 71.9636 78.9635 71.8906 79.0365 71.8177C83.224 66.9115 87.3385 65.3229 89.5 64.8177V69.2917L48.1406 88.6354V83.4375C50.526 81.9948 59.1875 77.3021 65.1042 77.0886ZM9.67188 73.9115C12.2708 77.8802 21.4375 77.8073 22.5208 77.8073C22.5938 77.8073 22.6615 77.8073 22.6615 77.8073C25.4063 77.4479 28.0052 78.0261 29.7396 78.6042C30.8177 78.9636 31.8281 79.6146 32.625 80.4063C35.224 82.9323 37.9635 83.8021 40.5625 82.9323C42.7292 82.2136 44.4635 82.8594 45.1823 83.3646V88.9948L2.8125 76.0781V71.6719C4.97917 71.6719 8.51562 72.1042 9.67188 73.9115Z" fill="white"/>
</g>
<path d="M66.8386 57.7448C67.4896 57.7448 68.2083 57.8125 68.9323 57.8854C68.7136 57.6719 68.4271 57.5261 68.2083 57.2396C67.6302 56.5156 67.2708 55.724 67.1979 54.8542C67.0521 54.8542 66.9115 54.8542 66.7656 54.8542C58.0313 54.8542 50.5261 50.7396 50.4531 50.7396C50.2344 50.599 50.0208 50.599 49.8021 50.599C50.1667 51.2448 50.3802 51.9688 50.3802 52.7604C50.3802 53.125 50.3073 53.5573 50.2344 53.9167C52.8333 55.0729 59.4011 57.7448 66.8386 57.7448Z" fill="white"/>
<path d="M47.5677 23.0937C47.5677 23.2864 47.5313 23.4739 47.4531 23.651C47.3802 23.8229 47.2761 23.9792 47.1406 24.1146C47.0052 24.25 46.849 24.3542 46.6719 24.4323C46.5 24.5052 46.3125 24.5417 46.1198 24.5417C45.9323 24.5417 45.7448 24.5052 45.5677 24.4323C45.3906 24.3542 45.2344 24.25 45.099 24.1146C44.9636 23.9792 44.8594 23.8229 44.7865 23.651C44.7136 23.4739 44.6771 23.2864 44.6771 23.0937C44.6771 22.9062 44.7136 22.7187 44.7865 22.5417C44.8594 22.3646 44.9636 22.2083 45.099 22.0729C45.2344 21.9375 45.3906 21.8333 45.5677 21.7604C45.7448 21.6875 45.9323 21.651 46.1198 21.651C46.3125 21.651 46.5 21.6875 46.6719 21.7604C46.849 21.8333 47.0052 21.9375 47.1406 22.0729C47.2761 22.2083 47.3802 22.3646 47.4531 22.5417C47.5313 22.7187 47.5677 22.9062 47.5677 23.0937Z" fill="white"/>
<mask id="mask1_1_11" style="mask-type:luminance" maskUnits="userSpaceOnUse" x="16" y="0" width="61" height="30">
<path d="M16.1406 0H76.1406V29.026H16.1406V0Z" fill="white"/>
</mask>
<g mask="url(#mask1_1_11)">
<path d="M74.9948 1.44271C74.9948 0.645834 74.3438 0 73.5521 0H62C61.2083 0 60.5573 0.645834 60.5573 1.44271C60.5573 2.23438 61.2083 2.88542 62 2.88542H66.3333V4.32813H64.8906C64.0938 4.32813 63.4427 4.97917 63.4427 5.77083V7.21875H57.8854C56.5156 5.84375 52.401 2.23438 45.9792 2.23438C39.5521 2.23438 35.5833 5.84375 34.2135 7.21875H28.7969V5.77083C28.7969 4.97917 28.151 4.32813 27.3542 4.32813H25.9115V2.88542H30.2448C31.0365 2.88542 31.6875 2.23438 31.6875 1.44271C31.6875 0.645834 31.0365 0 30.2448 0H18.6927C17.901 0 17.25 0.645834 17.25 1.44271C17.25 2.23438 17.901 2.88542 18.6927 2.88542H23.026V4.32813H21.5781C20.7865 4.32813 20.1354 4.97917 20.1354 5.77083V14.4323C20.1354 15.2292 20.7865 15.8802 21.5781 15.8802H34.9323L37.3177 18.2604C35.151 19.5573 33.7813 22.1563 33.7813 25.2604C33.7813 26.0573 34.4271 26.7031 35.224 26.7031C36.0156 26.7031 36.6667 26.0573 36.6667 25.2604C36.6667 22.1563 38.4688 20.4271 40.276 20.2083V25.9844C40.276 27.5729 41.5729 28.8698 43.1615 28.8698H48.9375C50.526 28.8698 51.8229 27.5729 51.8229 25.9844V20.2813C53.5573 20.6406 55.0729 22.375 55.0729 25.2604C55.0729 26.0573 55.724 26.7031 56.5156 26.7031C57.3125 26.7031 57.9583 26.0573 57.9583 25.2604C57.9583 22.4479 56.8021 20.0625 55 18.6927L58.0313 15.8802H64.526C64.599 15.8802 64.7448 15.8802 64.8177 15.8802H70.5885C71.3854 15.8802 72.0365 15.2292 72.0365 14.4323V5.77083C72.0365 4.97917 71.3854 4.32813 70.5885 4.32813H69.1458V2.88542H73.4792C74.3438 2.88542 74.9948 2.23438 74.9948 1.44271ZM25.9115 12.9896H23.026V7.21875H25.9115V12.9896ZM43.2344 25.9844V20.2083H49.0104V25.9844H43.2344ZM57.526 12.9896C57.1667 12.9896 56.8021 13.1354 56.5156 13.3542L52.9063 16.7448C52.474 17.1042 51.8229 17.3229 51.1771 17.3229H41.6458C40.9271 17.3229 40.2031 17.0312 39.7708 16.599L36.5938 13.4219C36.3073 13.1354 35.9427 12.9896 35.5833 12.9896H28.7969V10.1042H34.9323C35.3646 10.1042 35.8021 9.88542 36.0885 9.52604C36.1615 9.38021 39.1198 5.70312 44.6771 5.19792V8.66146C44.6771 9.45313 45.3281 10.1042 46.1198 10.1042C46.9167 10.1042 47.5677 9.45313 47.5677 8.66146V5.19792C52.9792 5.77083 56.0104 9.38021 56.1563 9.59896C56.4427 9.95833 56.875 10.1042 57.3125 10.1042H63.4427V12.9896H57.526ZM69.2188 12.9896H66.3333V7.21875H69.2188V12.9896Z" fill="white"/>
</g>
<path d="M29.5937 49.4427C30.026 49.4427 30.5312 49.224 30.75 48.7917C31.1823 48.1406 31.0364 47.2761 30.3854 46.7708C29.7396 46.3386 28.8698 46.4844 28.3646 47.1302C27.9323 47.7813 28.0781 48.7188 28.7239 49.1511C29.0156 49.2969 29.3021 49.4427 29.5937 49.4427Z" fill="white"/>
<path d="M26.7031 53.5573C27.1406 53.5573 27.6458 53.3385 27.8594 52.9062C28.2917 52.2552 28.151 51.3177 27.5 50.8854C26.8489 50.4531 25.9114 50.599 25.4792 51.2448C25.0469 51.8958 25.1875 52.7604 25.8385 53.2656C26.1302 53.4844 26.4167 53.5573 26.7031 53.5573Z" fill="white"/>
<path d="M32.4792 45.2552C32.9114 45.2552 33.4167 45.0365 33.6354 44.6771C34.0677 44.026 33.9219 43.0885 33.276 42.6563C32.625 42.224 31.6875 42.3698 31.2552 43.0156C30.8177 43.6667 30.9635 44.6042 31.6146 45.0365C31.901 45.1823 32.1927 45.2552 32.4792 45.2552Z" fill="white"/>
<path d="M23.7448 57.6719C24.1771 57.6719 24.6823 57.4531 24.901 57.0208C25.3333 56.3698 25.1875 55.5052 24.5417 55C23.8906 54.5677 22.9531 54.7135 22.5208 55.3594C22.0885 56.0104 22.2292 56.9479 22.8802 57.3802C23.2396 57.599 23.4583 57.6719 23.7448 57.6719Z" fill="white"/>
<path d="M35.3646 41.1406C35.8021 41.1406 36.3073 40.9271 36.5208 40.4896C36.9531 39.8437 36.8125 38.901 36.1615 38.4687C35.5104 38.0364 34.5729 38.1823 34.1406 38.8333C33.7083 39.4792 33.849 40.4219 34.5 40.8542C34.7917 41.0677 35.0781 41.1406 35.3646 41.1406Z" fill="white"/>
<path d="M42.0052 30.2396C41.3594 29.8073 40.4219 29.9531 39.9844 30.6042C39.5521 31.25 39.6979 32.1198 40.349 32.625C40.5625 32.7708 40.9271 32.9115 41.1406 32.9115C41.5729 32.9115 42.0781 32.6979 42.2969 32.3333C42.8021 31.6146 42.6563 30.6771 42.0052 30.2396Z" fill="white"/>
<path d="M16.8177 63.6615C16.3854 64.3125 16.526 65.1771 17.1771 65.6823C17.3958 65.901 17.7552 65.9688 17.974 65.9688C18.4063 65.9688 18.9115 65.7552 19.125 65.3229C19.5573 64.6719 19.4167 63.7344 18.7656 63.3021C18.1875 62.8698 17.25 63.0104 16.8177 63.6615Z" fill="white"/>
<path d="M38.2552 37.026C38.6875 37.026 39.1927 36.8125 39.4115 36.375C39.8438 35.7292 39.6979 34.8594 39.0469 34.3542C38.401 33.9219 37.4583 34.0677 37.026 34.7188C36.5938 35.3646 36.7396 36.3073 37.3906 36.7396C37.6771 36.8802 37.9635 37.026 38.2552 37.026Z" fill="white"/>
<path d="M21.724 59.1875C21.0729 58.7552 20.2083 58.8958 19.7031 59.5469C19.2708 60.1979 19.4167 61.1354 20.0625 61.5677C20.3542 61.7865 20.6406 61.8594 20.8594 61.8594C21.2917 61.8594 21.7969 61.6406 22.0156 61.2812C22.5208 60.5573 22.375 59.6198 21.724 59.1875Z" fill="white"/>
<path d="M65.901 47.8542C66.4792 47.349 66.5469 46.4115 66.0417 45.8333C65.5365 45.2552 64.599 45.1823 64.0208 45.6875C63.4427 46.1927 63.375 47.1302 63.8802 47.7083C64.1667 48.0729 64.599 48.2135 64.9635 48.2135C65.25 48.2135 65.6094 48.0729 65.901 47.8542Z" fill="white"/>
<path d="M74.8489 59.6198C75.2083 59.6198 75.5 59.474 75.7864 59.2604C76.3646 58.7552 76.4375 57.8125 75.9323 57.2396C75.4271 56.6615 74.4896 56.5885 73.9114 57.0938C73.3333 57.599 73.2604 58.5365 73.7656 59.1146C74.0573 59.474 74.4896 59.6198 74.8489 59.6198Z" fill="white"/>
<path d="M69.3646 49.6562C68.8594 49.0833 67.9219 49.0104 67.3437 49.5156C66.7656 50.0208 66.6927 50.9583 67.1979 51.5364C67.4896 51.8958 67.9219 52.0417 68.2812 52.0417C68.6406 52.0417 68.9323 51.8958 69.2187 51.6771C69.7969 51.1042 69.8698 50.2344 69.3646 49.6562Z" fill="white"/>
<path d="M62.5781 44.026C63.1562 43.5208 63.2292 42.5833 62.7239 42.0052C62.2187 41.4323 61.2812 41.3594 60.7031 41.8646C60.125 42.3698 60.0521 43.3073 60.5573 43.8854C60.8489 44.2448 61.2083 44.3906 61.6406 44.3906C61.9271 44.3906 62.2917 44.2448 62.5781 44.026Z" fill="white"/>
<path d="M55.9375 36.4479C56.5156 35.9427 56.5885 35.0052 56.0833 34.4271C55.5781 33.849 54.6406 33.7813 54.0625 34.2865C53.4844 34.7917 53.4115 35.7292 53.9167 36.3073C54.2083 36.6667 54.6406 36.8125 55 36.8125C55.2865 36.7396 55.651 36.6667 55.9375 36.4479Z" fill="white"/>
<path d="M59.2604 40.2031C59.8385 39.6979 59.9063 38.7604 59.401 38.1823C58.8958 37.6042 57.9583 37.5313 57.3802 38.0365C56.8021 38.5417 56.7344 39.4792 57.2396 40.0573C57.526 40.4219 57.9583 40.5625 58.3229 40.5625C58.6094 40.5625 58.9688 40.4896 59.2604 40.2031Z" fill="white"/>
<path d="M51.6823 32.9844C52.0417 32.9844 52.3281 32.8386 52.6198 32.625C53.1979 32.1198 53.2656 31.1823 52.7604 30.6042C52.2552 30.0261 51.3177 29.9531 50.7396 30.4583C50.1615 30.9636 50.0938 31.9011 50.599 32.4792C50.8125 32.7708 51.2448 32.9844 51.6823 32.9844Z" fill="white"/>
<path d="M70.5886 53.2656C70.0156 53.7708 69.9427 54.7135 70.4479 55.2865C70.7344 55.651 71.0938 55.7917 71.5313 55.7917C71.8906 55.7917 72.1771 55.651 72.4688 55.4323C73.0469 54.9271 73.1198 53.9896 72.6146 53.4115C72.1094 52.8333 71.2396 52.7604 70.5886 53.2656Z" fill="white"/>
<path d="M46.1198 32.4792C45.3281 32.4792 44.6771 33.1302 44.6771 33.9219C44.6771 34.7187 45.3281 35.3646 46.1198 35.3646C46.9167 35.3646 47.5677 34.7187 47.5677 33.9219C47.5677 33.1302 46.9167 32.4792 46.1198 32.4792Z" fill="white"/>
<path d="M46.1198 37.5312C45.3281 37.5312 44.6771 38.1823 44.6771 38.974C44.6771 39.7708 45.3281 40.4219 46.1198 40.4219C46.9167 40.4219 47.5677 39.7708 47.5677 38.974C47.5677 38.1823 46.9167 37.5312 46.1198 37.5312Z" fill="white"/>
<path d="M46.1198 47.6354C45.3281 47.6354 44.6771 48.2865 44.6771 49.0834C44.6771 49.875 45.3281 50.5261 46.1198 50.5261C46.9167 50.5261 47.5677 49.875 47.5677 49.0834C47.5677 48.2865 46.9167 47.6354 46.1198 47.6354Z" fill="white"/>
<path d="M46.1198 52.6875C45.3281 52.6875 44.6771 53.3385 44.6771 54.1354C44.6771 54.9271 45.3281 55.5781 46.1198 55.5781C46.9167 55.5781 47.5677 54.9271 47.5677 54.1354C47.5677 53.3385 46.9167 52.6875 46.1198 52.6875Z" fill="white"/>
<path d="M46.1198 57.7448C45.3281 57.7448 44.6771 58.3906 44.6771 59.1875C44.6771 59.9792 45.3281 60.6302 46.1198 60.6302C46.9167 60.6302 47.5677 59.9792 47.5677 59.1875C47.5677 58.3906 46.9167 57.7448 46.1198 57.7448Z" fill="white"/>
<path d="M46.1198 42.5833C45.3281 42.5833 44.6771 43.2344 44.6771 44.0261C44.6771 44.8229 45.3281 45.474 46.1198 45.474C46.9167 45.474 47.5677 44.8229 47.5677 44.0261C47.5677 43.2344 46.9167 42.5833 46.1198 42.5833Z" fill="white"/>
<path d="M31.2552 59.5469C32.7708 58.8958 35.3646 58.0312 38.6875 57.3073C39.8438 57.0208 40.9948 56.7344 42.0052 56.4427C42.1511 56.0104 42.3698 55.651 42.5833 55.2865C42.224 54.7813 41.9375 54.1354 41.8646 53.4844C40.7083 53.8437 39.4115 54.2083 38.0365 54.4948C34.5 55.2865 31.7604 56.2292 30.099 56.875C29.2344 57.2396 28.3646 57.6719 27.5729 58.25C27.5 58.4635 27.3542 58.6094 27.2813 58.7552C26.7031 59.5469 25.9844 60.0521 25.1875 60.3385C25.1875 61.2083 24.974 62.1458 24.3958 62.8698C23.8177 63.6615 23.099 64.1667 22.3021 64.4531C22.3021 64.599 22.3021 64.7448 22.3021 64.8177C25.2604 63.7344 27.0677 62.3646 28.0781 61.4948C29.0156 60.7031 30.0261 59.9792 31.2552 59.5469Z" fill="white"/>
</svg>
