<?xml version="1.0" encoding="utf-8"?>
<svg xmlns="http://www.w3.org/2000/svg" width="520" zoomAndPan="magnify" viewBox="0 0 256 146" height="347" preserveAspectRatio="none" version="1.0" xmlns:bx="https://boxy-svg.com"><defs><g/><bx:export><bx:file format="png" excluded="true"/><bx:file format="svg"/></bx:export></defs><g transform="matrix(1, 0, 0, 1, -66.581429, -45.563187)"><g fill="#000000" fill-opacity="1"><g transform="translate(84.420829, 161.668604)"><g><path d="M 44.5625 -100.28125 L 46.109375 -100.28125 L 79.953125 -2.234375 L 91.5 -2.234375 L 91.5 0 L 50.703125 0 L 50.703125 -2.234375 L 64.34375 -2.234375 L 54.3125 -31.75 L 24.515625 -31.75 C 22.660156 -26.09375 21.21875 -21.660156 20.1875 -18.453125 C 19.164062 -15.253906 18.398438 -12.816406 17.890625 -11.140625 C 17.378906 -9.472656 17.054688 -8.3125 16.921875 -7.65625 C 16.785156 -7.007812 16.71875 -6.359375 16.71875 -5.703125 C 16.71875 -3.390625 18.898438 -2.234375 23.265625 -2.234375 L 30.078125 -2.234375 L 30.078125 0 L 1.390625 0 L 1.390625 -2.234375 L 6.40625 -2.234375 C 9.007812 -2.234375 10.796875 -2.925781 11.765625 -4.3125 C 12.742188 -5.707031 13.789062 -8.03125 14.90625 -11.28125 Z M 39 -76.1875 L 25.34375 -33.984375 L 53.625 -33.984375 L 39.28125 -76.1875 Z M 39 -76.1875 "/></g></g></g><g fill="#000000" fill-opacity="1"><g transform="translate(204.337977, 161.668604)"><g><path d="M 43.59375 -98.046875 L 43.59375 -95.828125 L 28.828125 -95.828125 L 28.828125 -22.5625 C 28.828125 -19.3125 29.382812 -16.316406 30.5 -13.578125 C 31.613281 -10.835938 33.210938 -8.445312 35.296875 -6.40625 C 37.390625 -4.363281 39.921875 -2.785156 42.890625 -1.671875 C 45.867188 -0.554688 49.164062 0 52.78125 0 C 62.90625 0 70.707031 -2.484375 76.1875 -7.453125 C 81.664062 -12.421875 84.40625 -19.78125 84.40625 -29.53125 L 84.40625 -86.90625 C 84.40625 -90.15625 83.773438 -92.453125 82.515625 -93.796875 C 81.265625 -95.148438 79.109375 -95.828125 76.046875 -95.828125 L 68.109375 -95.828125 L 68.109375 -98.046875 L 100.421875 -98.046875 L 100.421875 -95.828125 L 94.15625 -95.828125 C 91.1875 -95.828125 89.191406 -95.101562 88.171875 -93.65625 C 87.148438 -92.21875 86.640625 -89.921875 86.640625 -86.765625 L 86.640625 -28 C 86.640625 -18.707031 83.664062 -11.34375 77.71875 -5.90625 C 71.78125 -0.476562 63.238281 2.234375 52.09375 2.234375 C 44.570312 2.234375 38.394531 1.582031 33.5625 0.28125 C 28.738281 -1.019531 24.910156 -2.898438 22.078125 -5.359375 C 19.242188 -7.816406 17.289062 -10.765625 16.21875 -14.203125 C 15.15625 -17.640625 14.625 -21.492188 14.625 -25.765625 L 14.625 -95.828125 L 1.390625 -95.828125 L 1.390625 -98.046875 Z M 43.59375 -98.046875 "/></g></g></g><path stroke-linecap="butt" fill="none" stroke-linejoin="miter" d="M 121.904 118.783 L 267.416 118.783" stroke="#000000" stroke-width="2" stroke-opacity="1" stroke-miterlimit="4" style="transform-box: fill-box; transform-origin: 50% 50%;" transform="matrix(0, -1, 1, 0, -0.000042, -0.000014)"/><path fill="#FFFFFF" d="M 67.34375 102.683594 L 321.984375 102.683594 L 321.984375 121.492188 L 67.34375 121.492188 L 67.34375 102.683594 " fill-opacity="1" fill-rule="nonzero"/><g fill="#000000" fill-opacity="1"><g transform="translate(75.228019, 115.452139)"><g><path d="M 7.460938 0 L 4.367188 -7.667969 L 3.183594 -7.667969 L 0.101562 0 L 1.160156 0 L 1.839844 -1.699219 L 5.722656 -1.699219 L 6.402344 0 Z M 5.4375 -2.550781 L 2.113281 -2.550781 L 3.78125 -6.816406 Z M 5.4375 -2.550781 "/></g></g></g><g fill="#000000" fill-opacity="1"><g transform="translate(89.361654, 115.452139)"><g><path d="M 0.585938 -3.828125 C 0.585938 -1.449219 2.34375 0.148438 4.527344 0.148438 C 5.78125 0.148438 6.828125 -0.378906 7.539062 -1.171875 L 7.539062 -3.941406 L 3.953125 -3.941406 L 3.953125 -3.09375 L 6.585938 -3.09375 L 6.585938 -1.527344 C 6.207031 -1.148438 5.449219 -0.699219 4.527344 -0.699219 C 2.851562 -0.699219 1.574219 -2.011719 1.574219 -3.828125 C 1.574219 -5.65625 2.851562 -6.941406 4.527344 -6.941406 C 5.449219 -6.941406 6.265625 -6.503906 6.746094 -5.886719 L 7.503906 -6.355469 C 6.828125 -7.195312 5.886719 -7.792969 4.527344 -7.792969 C 2.34375 -7.792969 0.585938 -6.207031 0.585938 -3.828125 Z M 0.585938 -3.828125 "/></g></g></g><g fill="#000000" fill-opacity="1"><g transform="translate(104.127036, 115.452139)"><g><path d="M 6.460938 0 L 4.390625 -3.125 C 5.4375 -3.21875 6.378906 -3.976562 6.378906 -5.355469 C 6.378906 -6.769531 5.378906 -7.667969 3.976562 -7.667969 L 0.898438 -7.667969 L 0.898438 0 L 1.851562 0 L 1.851562 -3.046875 L 3.378906 -3.046875 L 5.332031 0 Z M 5.390625 -5.355469 C 5.390625 -4.496094 4.769531 -3.886719 3.863281 -3.886719 L 1.851562 -3.886719 L 1.851562 -6.816406 L 3.863281 -6.816406 C 4.769531 -6.816406 5.390625 -6.21875 5.390625 -5.355469 Z M 5.390625 -5.355469 "/></g></g></g><g fill="#000000" fill-opacity="1"><g transform="translate(117.686345, 115.452139)"><g><path d="M 1.851562 0 L 1.851562 -7.667969 L 0.898438 -7.667969 L 0.898438 0 Z M 1.851562 0 "/></g></g></g><g fill="#000000" fill-opacity="1"><g transform="translate(127.007155, 115.452139)"><g><path d="M 8.402344 0 L 8.402344 -7.667969 L 7.035156 -7.667969 L 4.644531 -1.828125 L 2.265625 -7.667969 L 0.898438 -7.667969 L 0.898438 0 L 1.851562 0 L 1.851562 -6.378906 L 4.449219 0 L 4.839844 0 L 7.449219 -6.378906 L 7.449219 0 Z M 8.402344 0 "/></g></g></g><g fill="#000000" fill-opacity="1"><g transform="translate(142.875236, 115.452139)"><g><path d="M 5.917969 0 L 5.917969 -0.851562 L 1.851562 -0.851562 L 1.851562 -3.496094 L 5.839844 -3.496094 L 5.839844 -4.34375 L 1.851562 -4.34375 L 1.851562 -6.816406 L 5.917969 -6.816406 L 5.917969 -7.667969 L 0.898438 -7.667969 L 0.898438 0 Z M 5.917969 0 "/></g></g></g><g fill="#000000" fill-opacity="1"><g transform="translate(155.986575, 115.452139)"><g><path d="M 7.242188 0 L 7.242188 -7.667969 L 6.289062 -7.667969 L 6.289062 -1.609375 L 1.875 -7.667969 L 0.898438 -7.667969 L 0.898438 0 L 1.851562 0 L 1.851562 -6.183594 L 6.320312 0 Z M 7.242188 0 "/></g></g></g><g fill="#000000" fill-opacity="1"><g transform="translate(170.694525, 115.452139)"><g><path d="M 0.4375 -1.082031 C 1.070312 -0.367188 2.046875 0.136719 3.378906 0.136719 C 5.449219 0.136719 6.207031 -1 6.207031 -2.113281 C 6.207031 -3.722656 4.78125 -4.113281 3.527344 -4.449219 C 2.550781 -4.710938 1.667969 -4.941406 1.667969 -5.710938 C 1.667969 -6.4375 2.320312 -6.929688 3.242188 -6.929688 C 4.082031 -6.929688 4.886719 -6.644531 5.460938 -6.011719 L 6.035156 -6.710938 C 5.390625 -7.390625 4.484375 -7.78125 3.308594 -7.78125 C 1.804688 -7.78125 0.679688 -6.917969 0.679688 -5.65625 C 0.679688 -4.148438 2.046875 -3.804688 3.277344 -3.484375 C 4.289062 -3.207031 5.21875 -2.953125 5.21875 -2.035156 C 5.21875 -1.449219 4.78125 -0.710938 3.414062 -0.710938 C 2.332031 -0.710938 1.503906 -1.242188 1 -1.804688 Z M 0.4375 -1.082031 "/></g></g></g><g fill="#000000" fill-opacity="1"><g transform="translate(184.001132, 115.452139)"><g><path d="M 0.898438 -2.976562 C 0.898438 -1.09375 1.941406 0.136719 4.023438 0.136719 C 6.101562 0.136719 7.148438 -1.082031 7.148438 -2.988281 L 7.148438 -7.667969 L 6.195312 -7.667969 L 6.195312 -3 C 6.195312 -1.597656 5.4375 -0.710938 4.023438 -0.710938 C 2.609375 -0.710938 1.851562 -1.597656 1.851562 -3 L 1.851562 -7.667969 L 0.898438 -7.667969 Z M 0.898438 -2.976562 "/></g></g></g><g fill="#000000" fill-opacity="1"><g transform="translate(198.617198, 115.452139)"><g><path d="M 6.460938 0 L 4.390625 -3.125 C 5.4375 -3.21875 6.378906 -3.976562 6.378906 -5.355469 C 6.378906 -6.769531 5.378906 -7.667969 3.976562 -7.667969 L 0.898438 -7.667969 L 0.898438 0 L 1.851562 0 L 1.851562 -3.046875 L 3.378906 -3.046875 L 5.332031 0 Z M 5.390625 -5.355469 C 5.390625 -4.496094 4.769531 -3.886719 3.863281 -3.886719 L 1.851562 -3.886719 L 1.851562 -6.816406 L 3.863281 -6.816406 C 4.769531 -6.816406 5.390625 -6.21875 5.390625 -5.355469 Z M 5.390625 -5.355469 "/></g></g></g><g fill="#000000" fill-opacity="1"><g transform="translate(212.176507, 115.452139)"><g><path d="M 7.460938 0 L 4.367188 -7.667969 L 3.183594 -7.667969 L 0.101562 0 L 1.160156 0 L 1.839844 -1.699219 L 5.722656 -1.699219 L 6.402344 0 Z M 5.4375 -2.550781 L 2.113281 -2.550781 L 3.78125 -6.816406 Z M 5.4375 -2.550781 "/></g></g></g><g fill="#000000" fill-opacity="1"><g transform="translate(235.849192, 115.452139)"><g><path d="M 0.898438 -2.976562 C 0.898438 -1.09375 1.941406 0.136719 4.023438 0.136719 C 6.101562 0.136719 7.148438 -1.082031 7.148438 -2.988281 L 7.148438 -7.667969 L 6.195312 -7.667969 L 6.195312 -3 C 6.195312 -1.597656 5.4375 -0.710938 4.023438 -0.710938 C 2.609375 -0.710938 1.851562 -1.597656 1.851562 -3 L 1.851562 -7.667969 L 0.898438 -7.667969 Z M 0.898438 -2.976562 "/></g></g></g><g fill="#000000" fill-opacity="1"><g transform="translate(250.465258, 115.452139)"><g><path d="M 8.402344 0 L 8.402344 -7.667969 L 7.035156 -7.667969 L 4.644531 -1.828125 L 2.265625 -7.667969 L 0.898438 -7.667969 L 0.898438 0 L 1.851562 0 L 1.851562 -6.378906 L 4.449219 0 L 4.839844 0 L 7.449219 -6.378906 L 7.449219 0 Z M 8.402344 0 "/></g></g></g><g fill="#000000" fill-opacity="1"><g transform="translate(266.333339, 115.452139)"><g><path d="M 5.917969 0 L 5.917969 -0.851562 L 1.851562 -0.851562 L 1.851562 -3.496094 L 5.839844 -3.496094 L 5.839844 -4.34375 L 1.851562 -4.34375 L 1.851562 -6.816406 L 5.917969 -6.816406 L 5.917969 -7.667969 L 0.898438 -7.667969 L 0.898438 0 Z M 5.917969 0 "/></g></g></g><g fill="#000000" fill-opacity="1"><g transform="translate(279.444678, 115.452139)"><g><path d="M 1.851562 0 L 1.851562 -3.046875 L 3.976562 -3.046875 C 5.496094 -3.046875 6.378906 -4.101562 6.378906 -5.355469 C 6.378906 -6.609375 5.515625 -7.667969 3.976562 -7.667969 L 0.898438 -7.667969 L 0.898438 0 Z M 5.390625 -5.355469 C 5.390625 -4.496094 4.769531 -3.898438 3.863281 -3.898438 L 1.851562 -3.898438 L 1.851562 -6.816406 L 3.863281 -6.816406 C 4.769531 -6.816406 5.390625 -6.21875 5.390625 -5.355469 Z M 5.390625 -5.355469 "/></g></g></g><g fill="#000000" fill-opacity="1"><g transform="translate(292.762765, 115.452139)"><g><path d="M 7.460938 0 L 4.367188 -7.667969 L 3.183594 -7.667969 L 0.101562 0 L 1.160156 0 L 1.839844 -1.699219 L 5.722656 -1.699219 L 6.402344 0 Z M 5.4375 -2.550781 L 2.113281 -2.550781 L 3.78125 -6.816406 Z M 5.4375 -2.550781 "/></g></g></g><g fill="#000000" fill-opacity="1"><g transform="translate(306.896412, 115.452139)"><g><path d="M 4.082031 0 L 4.082031 -3.242188 L 7.09375 -7.667969 L 5.976562 -7.667969 L 3.597656 -4.101562 L 1.21875 -7.667969 L 0.101562 -7.667969 L 3.125 -3.242188 L 3.125 0 Z M 4.082031 0 "/></g></g></g></g><g fill="#000000" fill-opacity="1"><g transform="translate(226.310142, 115.452139)"><g/></g></g></svg>