<svg width="116" height="106" viewBox="0 0 116 106" fill="none" xmlns="http://www.w3.org/2000/svg">
<path d="M59.3125 26.0469C62.4271 26.0469 64.9531 23.3802 64.9531 20.1042C64.9531 16.823 62.4271 14.1615 59.3125 14.1615C56.2031 14.1615 53.6719 16.8282 53.6719 20.1042C53.6719 23.3802 56.2031 26.0469 59.3125 26.0469ZM59.3125 16.0677C61.375 16.0677 63.0469 17.875 63.0469 20.1042C63.0469 22.3282 61.375 24.1407 59.3125 24.1407C57.2552 24.1407 55.5781 22.3282 55.5781 20.1042C55.5781 17.875 57.2552 16.0677 59.3125 16.0677Z" fill="white"/>
<path d="M54.2083 14.7604C54.9896 12.9375 56.9792 11.6406 59.3125 11.6406C61.6458 11.6406 63.6406 12.9375 64.4219 14.7604C64.4844 14.9063 64.7292 14.8802 64.75 14.7188C64.7604 14.6094 64.7656 14.5052 64.7708 14.3959C64.8489 11.625 62.2396 9.34898 59.1146 9.44793C56.1927 9.54168 53.8542 11.6615 53.8542 14.2709C53.8542 14.4219 53.8646 14.5729 53.8802 14.7188C53.8958 14.8802 54.1458 14.9063 54.2083 14.7604Z" fill="white"/>
<path d="M64.75 25.4843C64.7292 25.3281 64.4844 25.2968 64.4219 25.4479C63.6406 27.2708 61.6458 28.5625 59.3125 28.5625C56.9792 28.5625 54.9896 27.2656 54.2083 25.4479C54.1458 25.2968 53.8958 25.3281 53.8802 25.4843C53.8646 25.6354 53.8542 25.7864 53.8542 25.9375C53.8542 28.5416 56.1927 30.6666 59.1146 30.7604C62.2396 30.8593 64.8489 28.5781 64.7708 25.8125C64.7656 25.7031 64.7604 25.5937 64.75 25.4843Z" fill="white"/>
<mask id="mask0_1_7" style="mask-type:luminance" maskUnits="userSpaceOnUse" x="0" y="0" width="116" height="106">
<path d="M0 0H116V106H0V0Z" fill="white"/>
</mask>
<g mask="url(#mask0_1_7)">
<path d="M102.917 82.9688C102.859 82.7708 102.745 82.6094 102.583 82.4844L92.7604 65.8646H72.6198C72.3281 64.6979 72.0416 63.5365 71.75 62.3802C70.0677 55.6719 68.3333 48.7344 66.651 41.9635L66.5677 41.6354C67.0156 40.7292 67.2396 39.7656 67.2396 38.7552V37.8021H64.9531V35.5677H67.8073C68.1927 35.5677 68.5573 35.4948 68.9062 35.349C69.2604 35.2031 69.5677 34.9948 69.8385 34.7292C70.1094 34.4583 70.3125 34.1458 70.4583 33.7969C70.6041 33.4427 70.6771 33.0781 70.6823 32.6979V7.50521C70.6771 7.125 70.6041 6.76042 70.4583 6.40625C70.3125 6.05729 70.1094 5.74479 69.8385 5.47917C69.5677 5.20833 69.2604 5 68.9062 4.85417C68.5573 4.70833 68.1927 4.63542 67.8073 4.63542H64V1.58333C64 1.36979 63.9635 1.17187 63.8802 0.973958C63.8021 0.781249 63.6875 0.609375 63.5364 0.463542C63.3906 0.3125 63.2187 0.197916 63.026 0.119792C62.8333 0.0416663 62.6302 0 62.4219 0H56.2031C55.9948 0 55.7916 0.0416663 55.5989 0.119792C55.4062 0.197916 55.2344 0.3125 55.0885 0.463542C54.9375 0.609375 54.8229 0.781249 54.7448 0.973958C54.6614 1.17187 54.625 1.36979 54.625 1.58333V4.63542H50.8125C50.4323 4.63542 50.0677 4.70833 49.7187 4.85417C49.3646 5 49.0573 5.20833 48.7864 5.47396C48.5156 5.74479 48.3073 6.05729 48.1614 6.40625C48.0156 6.76042 47.9427 7.125 47.9427 7.50521V32.6979C47.9427 33.0781 48.0156 33.4479 48.1614 33.7969C48.3073 34.151 48.5156 34.4583 48.7864 34.7292C49.0573 35 49.3646 35.2031 49.7187 35.349C50.0677 35.4948 50.4323 35.5677 50.8125 35.5677H53.6719V37.8021H51.3854V38.7552C51.3854 39.9948 51.7083 41.1354 52.3594 42.1875L52.3021 42.4219C50.6198 49.1875 48.8698 56.1823 47.1771 62.9375C46.9323 63.9115 46.6875 64.8854 46.4427 65.8646H33.2552L34.0416 63.0417C34.1823 62.7656 34.8958 61.2917 34.2239 59.6823C33.5885 58.1667 31.9062 56.9896 29.9531 57.1094C28.026 57.224 26.5521 58.5521 26.0469 60.0469C25.4427 61.8333 26.3906 63.3385 26.5469 63.5781L27.5573 65.8646H23.5312L23.25 66.3333C15.7916 78.9479 8.33331 91.5677 0.87498 104.182L0.020813 105.625H116.26L102.948 83.1042C102.943 83.0573 102.932 83.0104 102.917 82.9688ZM50.8177 33.6615C50.5521 33.6615 50.3229 33.5677 50.1354 33.3802C49.9479 33.1927 49.8541 32.9635 49.8541 32.6979V7.50521C49.8541 7.23958 49.9479 7.01042 50.1354 6.82292C50.3229 6.63542 50.5521 6.54167 50.8177 6.54167H67.8073C68.0781 6.54167 68.3021 6.63542 68.4896 6.82292C68.6771 7.01042 68.7708 7.23958 68.7708 7.50521V32.6979C68.7708 32.9635 68.6771 33.1927 68.4896 33.3802C68.3021 33.5677 68.0781 33.6615 67.8073 33.6615H50.8177ZM63.0469 35.5677V37.7708H55.5781V35.5677H63.0469ZM30.0312 59.1198C31.1823 59.0365 32.1771 59.8438 32.2552 60.9167C32.3333 61.9948 31.4583 62.9323 30.3073 63.0104C29.1562 63.0885 28.1614 62.2865 28.0833 61.2135C28.0104 60.1354 28.8802 59.1979 30.0312 59.1198ZM65.2344 39.7083C64.7135 42.1302 62.2552 43.9688 59.3125 43.9688C58.2187 43.974 57.1875 43.724 56.2135 43.224L55.9271 43.0677C54.6302 42.2969 53.6927 41.099 53.3958 39.7135L65.2344 39.7083ZM53.8541 44.0938L54.9219 44.6875C56.2135 45.4583 57.7291 45.875 59.3125 45.875C61.4062 45.875 63.3854 45.1458 64.875 43.8281C64.9531 43.7604 65.026 43.6927 65.0989 43.625C66.6875 50.0104 68.3177 56.526 69.901 62.8385C71.5989 69.6198 73.3541 76.6354 75.0521 83.4792C75.5052 85.2917 75.2656 86.4688 75.0625 86.7656C74.7969 86.6354 74.125 85.9896 73.5677 84.4479L63.4948 56.7604L60.4739 48.4375L59.5781 48.7656L58.6823 48.4375L55.1979 58.0208L55.1406 58.1823L45.3281 85.1562C44.7708 86.6927 44.0989 87.3438 43.8333 87.474C43.625 87.1771 43.3906 86 43.8385 84.1823C45.5416 77.3333 47.3177 70.25 49.0312 63.401C50.6198 57.0417 52.2656 50.4792 53.8541 44.0938ZM55.5729 66.2135H54.2448L55.3958 63.0469L55.5729 66.2135ZM59.5729 51.5573L61.6354 57.2344L60.125 84.7969C60.0364 86.4531 59.5364 87.2865 59.3125 87.4688C59.0885 87.2865 58.5885 86.4531 58.4948 84.7969L57.0521 58.4792L59.5729 51.5573ZM63.2969 61.7969L64.901 66.2135H63.0573L63.2969 61.7969ZM41.9844 83.724C41.7031 84.8698 41.6041 86.0104 41.7187 86.9375C41.901 88.4219 42.5416 89.0104 43.0521 89.2448C43.2812 89.349 43.5208 89.4062 43.776 89.4062C44.0364 89.401 44.2864 89.349 44.5312 89.2448C45.5312 88.8281 46.4739 87.5781 47.1198 85.8073L53.8021 67.4219H55.6354L56.5937 84.901C56.7396 87.5938 57.8333 89.401 59.3125 89.401C60.7916 89.401 61.8854 87.5938 62.0312 84.901L62.9896 67.4219H65.3437L71.7708 85.099C72.4114 86.8698 73.3594 88.1198 74.3594 88.5365C74.5989 88.6406 74.8541 88.6927 75.1146 88.6979C75.3646 88.6979 75.6094 88.6406 75.8385 88.5365C76.3437 88.3021 76.9896 87.7135 77.1666 86.2292C77.2812 85.3021 77.1875 84.1615 76.901 83.0156C75.6458 77.974 74.3646 72.8385 73.0989 67.7708H91.6666L100.437 82.599C98.9114 82.9479 97.4114 83.3802 96 84.0521C95.0833 84.4792 94.2552 85.0312 93.5052 85.7135C92.9844 86.1927 92.5364 86.7396 92.1666 87.349C92.0625 87.4531 91.9687 87.5625 91.8802 87.6771C91.4375 88.2604 91.1927 88.9167 91.1562 89.6458C90.8958 90.4323 90.6562 91.224 90.3437 91.9896C90.0833 92.5833 89.7604 93.1406 89.375 93.6615C88.8333 94.3333 88.2187 94.9323 87.5364 95.4635C86.151 96.5104 84.6041 97.3229 83.0677 98.125C82.875 98.0469 82.6823 97.9688 82.4896 97.8958L82.2291 98.5625L76.5416 101.536L73.0208 103.38C72.875 103.458 72.7656 103.568 72.6875 103.714H37.1302C37.1146 103.693 37.0989 103.672 37.0781 103.651C36.0781 102.604 35.0885 101.547 34.1927 100.411L34.1302 100.333C34.0833 100.266 34.0312 100.203 33.9844 100.141C33.875 99.9948 33.7656 99.8438 33.6614 99.6979C33.4583 99.4115 33.2656 99.1198 33.0781 98.8177C32.8854 98.5156 32.7083 98.2031 32.5416 97.8854C32.4635 97.7344 32.3854 97.5833 32.3125 97.4323C32.276 97.349 32.2396 97.2708 32.2031 97.1875L32.1562 97.0781C32.1614 97.0365 32.0833 96.9062 32.0677 96.8646C32.0364 96.7865 32.0104 96.7135 31.9844 96.6406C31.9166 96.4635 31.8594 96.2812 31.8021 96.1042C31.6979 95.7708 31.6146 95.4323 31.5469 95.0885C31.5364 95.0104 31.5208 94.9375 31.5104 94.8594C31.5052 94.8385 31.4896 94.7396 31.4844 94.6875C31.4739 94.6406 31.4739 94.5938 31.4687 94.5781C31.4583 94.4844 31.4531 94.3958 31.4479 94.3073C31.4219 93.9948 31.4166 93.6823 31.4271 93.3698C31.4323 93.2188 31.4427 93.0677 31.4531 92.9167C31.4583 92.8438 31.4635 92.7708 31.4739 92.7031C31.4739 92.6667 31.4791 92.6302 31.4844 92.5938V92.5885C31.5364 92.2812 31.5833 91.9844 31.6562 91.6771C31.7291 91.375 31.8229 91.0729 31.9219 90.776C31.9739 90.6354 32.026 90.4896 32.0833 90.349C32.0885 90.3333 32.0989 90.3125 32.1041 90.2969C32.1406 90.224 32.1666 90.151 32.2031 90.0781C32.4687 89.5 32.7916 88.9479 33.1666 88.4323C33.2083 88.375 33.2552 88.3177 33.2969 88.2604C33.3073 88.2448 33.3177 88.2292 33.3333 88.2135C33.3958 88.1354 33.4583 88.0625 33.526 87.9844L34.5677 87.5625C34.5104 87.4115 34.4479 87.2604 34.3906 87.1042C34.4844 87.026 34.5781 86.9427 34.6719 86.8646L34.7552 86.7969L34.8021 86.7656L34.9114 86.6875C35.1614 86.5052 35.4219 86.3385 35.6927 86.1823C36.2344 85.8698 36.7916 85.5885 37.3333 85.276C38.5416 84.5677 39.6719 83.6146 40.0312 82.2031C40.4635 80.5156 39.7291 78.8594 39.0469 77.3542C38.9687 77.1875 38.8906 77.0208 38.8177 76.8542C38.776 76.7604 38.7396 76.6719 38.7031 76.5833L38.6875 76.5521C38.6719 76.5156 38.6562 76.474 38.6406 76.4375C38.4948 76.0781 38.3646 75.7135 38.2396 75.349C38 74.599 37.8073 73.8385 37.6614 73.0677C37.6302 72.8958 37.6041 72.7188 37.5729 72.5469C37.5677 72.4896 37.5573 72.4375 37.5521 72.3802C37.5469 72.349 37.5312 72.2344 37.5416 72.2969L37.5364 72.2656C37.5312 72.2083 37.5208 72.1562 37.5156 72.099C37.4739 71.7188 37.4427 71.3281 37.4219 70.9427C37.3854 70.1562 37.4062 69.375 37.4739 68.5885C37.4896 68.4062 37.5104 68.2188 37.5312 68.0312C37.5312 68.0104 37.5364 67.9896 37.5364 67.9688C37.5416 67.9635 37.5416 67.9531 37.5416 67.9479C37.5521 67.8906 37.5625 67.8281 37.5677 67.7708H45.9687C44.6406 73.0833 43.2916 78.474 41.9896 83.724H41.9844ZM93.4739 89.3594C93.7187 88.3594 94.8281 87.7708 95.9479 88.0469C97.0729 88.3177 97.7812 89.3542 97.5364 90.3542C97.2864 91.3594 96.1823 91.9479 95.0573 91.6719C93.9375 91.3958 93.2291 90.3594 93.4739 89.3594ZM34.151 100.359L34.1458 100.354C34.1458 100.354 34.1458 100.359 34.151 100.359ZM24.6198 67.7708H28.3958L30.7552 73.1406C30.8489 73.349 31.1719 73.3281 31.2291 73.1094L32.7187 67.7708H35.7031C35.3229 70.8177 35.6614 73.9479 36.7916 76.8125C36.9583 77.2344 37.1406 77.651 37.3281 78.0573C37.4062 78.2396 37.4896 78.4167 37.5677 78.5938C37.6041 78.6771 37.6406 78.7552 37.6771 78.8385C37.6927 78.875 37.7083 78.9167 37.7291 78.9583L37.7344 78.974C37.8854 79.3333 38.0156 79.7031 38.1302 80.0781C38.1719 80.25 38.2187 80.4219 38.25 80.599C38.2552 80.6302 38.2604 80.6562 38.2656 80.6927C38.2656 80.6927 38.2656 80.6927 38.2656 80.6875C38.2656 80.6823 38.2656 80.6875 38.2656 80.6927C38.2656 80.7031 38.2708 80.7135 38.2708 80.7188C38.2916 80.8281 38.276 80.8073 38.2708 80.7656C38.276 80.8542 38.2916 80.9792 38.2916 80.9948C38.3021 81.1562 38.2916 81.3125 38.2812 81.474C38.276 81.5 38.2708 81.5312 38.2656 81.5625C38.2448 81.6667 38.2187 81.7656 38.1875 81.8646C38.1614 81.9531 38.0312 82.1979 38.1719 81.9427C38.1354 82.0052 38.1146 82.0677 38.0833 82.125C38.0156 82.2552 37.9427 82.3802 37.8594 82.5L37.875 82.4792C37.8646 82.4896 37.8541 82.5 37.8489 82.5156L37.8385 82.5312C37.8229 82.5469 37.8125 82.5573 37.8021 82.5729C37.7604 82.6146 37.7239 82.6615 37.6823 82.7031C37.5729 82.8177 37.4635 82.9271 37.3437 83.026C37.2916 83.0729 37.2344 83.1094 37.1875 83.1562L37.151 83.1823C37.026 83.2708 36.901 83.3594 36.7656 83.4427C36.2344 83.7812 35.6666 84.0677 35.1094 84.375C34.651 84.6302 34.2083 84.9115 33.7864 85.2188C33.7448 85.0677 33.7031 84.9167 33.6666 84.7604L31.8125 85.2188C31.9375 85.7135 32.0677 86.1875 32.2135 86.6562C31.6875 87.2552 31.2344 87.9062 30.8541 88.6146C29.5156 91.099 29.1823 94.0469 30.0469 96.7448C30.9062 99.4323 32.6979 101.667 34.5833 103.719H3.36456L24.6198 67.7708ZM76.3958 103.719L83.1146 100.203C83.6146 100.406 84.1146 100.62 84.6094 100.844L85.3854 99.099L85.2864 99.0573C87.5469 97.8333 89.7552 96.4375 91.2187 94.2812C91.3594 94.0677 91.4948 93.849 91.6146 93.6198C91.9062 96.0885 92.1927 98.5521 92.4844 101.021C92.5104 101.234 92.8229 101.312 92.9479 101.13L98.6094 92.8333C98.8281 92.6198 99.9427 91.5 99.776 89.8333C99.6198 88.2552 98.3698 86.6771 96.4739 86.1927C96.3489 86.1562 96.2187 86.1302 96.0937 86.1094C96.4948 85.875 96.9062 85.6667 97.3333 85.4844C98.651 84.9375 100.042 84.5833 101.432 84.2865L112.922 103.714L76.3958 103.719Z" fill="white"/>
</g>
<path d="M37.8021 82.5678L37.8177 82.5522C37.8281 82.5417 37.8386 82.5261 37.849 82.5105L37.8646 82.4949C37.7552 82.599 37.7709 82.6042 37.8021 82.5678Z" fill="white"/>
<path d="M38.2708 80.7657C38.2708 80.7448 38.2708 80.7188 38.2708 80.6927C38.2656 80.7188 38.2656 80.7448 38.2708 80.7657Z" fill="white"/>
<path d="M78.7135 92.5417C80.3594 93.5729 83.6302 91 84.1771 90.5521C84.5885 90.2187 85.4583 89.4635 86.5729 87.8385C88.8542 84.5104 88.1719 83.3802 90.1562 80.2708C91.6615 77.901 92.5937 77.7187 92.8437 75.9167C92.9323 75.3021 93.2656 72.9271 91.5104 71.5417C91.2083 71.3073 90.875 71.1198 90.5156 70.9844C89.1823 70.474 87.6667 70.7292 86.5469 71.6198C84.2917 73.401 83.6719 75.0833 83.5833 76.3906C83.4271 78.724 84.9375 80.3281 83.9531 81.8333C83.1198 83.1042 81.7552 82.3906 80.0052 83.8385C77.9635 85.5208 77.8437 88.1146 77.8125 88.8802C77.7552 90.0729 77.6719 91.8854 78.7135 92.5417Z" fill="white"/>
<path d="M32.7656 74.3386L30.8594 74.2865C30.8438 74.8021 30.8386 75.3073 30.8386 75.8021L32.7448 75.8073C32.7448 75.3282 32.7552 74.8334 32.7656 74.3386Z" fill="white"/>
<path d="M79.5417 96.8386C78.5469 96.5157 77.5417 96.2084 76.5365 95.9324L76.0365 97.7761C77.0052 98.0365 77.9844 98.3334 78.9427 98.6511L79.5417 96.8386Z" fill="white"/>
<path d="M35.901 90.1355L34.3073 91.1824C34.9167 92.1147 35.6302 92.9584 36.4583 93.7084L37.7344 92.2917C37.0312 91.6511 36.4167 90.9324 35.901 90.1355Z" fill="white"/>
<path d="M67.0989 96.0834L67.2969 94.1875C66.8437 94.1407 66.375 94.0938 65.9167 94.0573C65.3385 94.0105 64.75 93.9688 64.1719 93.9427L64.0729 95.849C64.6354 95.875 65.2031 95.9167 65.7604 95.9584C66.2083 95.9948 66.6562 96.0365 67.0989 96.0834Z" fill="white"/>
<path d="M73.4948 95.1876C72.4739 94.9636 71.4375 94.7657 70.4114 94.6042L70.1042 96.4845C71.0989 96.6459 72.0989 96.8334 73.0885 97.0522L73.4948 95.1876Z" fill="white"/>
<path d="M61.0417 95.7761L61.0365 93.8646C60.0104 93.8646 58.9896 93.8959 57.9062 93.9532L58 95.8542C59.0521 95.8021 60.0469 95.7761 61.0417 95.7761Z" fill="white"/>
<path d="M48.8125 96.6667L48.6511 94.7656C47.4583 94.8698 46.5 94.9167 45.6458 94.9219L45.6563 96.8281C46.5625 96.8229 47.5677 96.7708 48.8125 96.6667Z" fill="white"/>
<path d="M31.224 82.0886L33.1146 81.8282C32.9844 80.8802 32.8854 79.875 32.8281 78.8334L30.9219 78.9427C30.9844 80.0365 31.0885 81.0938 31.224 82.0886Z" fill="white"/>
<path d="M39.2292 95.5834C40.2448 96.0677 41.3021 96.4011 42.4114 96.5834L42.7396 94.7084C41.8073 94.5521 40.9114 94.2709 40.0573 93.8646L39.2292 95.5834Z" fill="white"/>
<path d="M54.9583 96.0678L54.7917 94.1667C53.7448 94.2605 52.776 94.3595 51.7031 94.4688L51.901 96.3647C52.9635 96.2553 53.9271 96.1563 54.9583 96.0678Z" fill="white"/>
<path d="M87.3698 102.151C87.8021 102.365 88.2396 102.594 88.6719 102.823L89.5625 101.135C89.1198 100.901 88.6667 100.667 88.2239 100.443L87.3698 102.151Z" fill="white"/>
<path d="M88.7136 7.54163H78.3958V42.6406H88.7136V7.54163ZM86.8021 40.7343H80.3021V38.375H82.7604V37.1666H80.3021V35.1562H82.7604V33.9479H80.3021V31.9323H82.7604V30.7239H80.3021V28.7135H82.7604V27.5052H80.3021V25.4895H82.7604V24.2812H80.3021V22.2708H82.7604V21.0625H80.3021V19.0468H82.7604V17.8385H80.3021V15.8281H82.7604V14.6198H80.3021V12.6041H82.7604V11.3958H80.3021V9.44788H86.8021V40.7343Z" fill="white"/>
<path d="M86.3698 10.474C86.3698 10.6562 86.3021 10.8125 86.1719 10.9427C86.0417 11.0729 85.8854 11.1406 85.7031 11.1406C85.5208 11.1406 85.3646 11.0729 85.2344 10.9427C85.1042 10.8125 85.0417 10.6562 85.0417 10.474C85.0417 10.2917 85.1042 10.1354 85.2344 10.0052C85.3646 9.875 85.5208 9.8125 85.7031 9.8125C85.8854 9.8125 86.0417 9.875 86.1719 10.0052C86.3021 10.1354 86.3698 10.2917 86.3698 10.474Z" fill="white"/>
<path d="M67.5833 8.78125C67.5833 9.0625 67.4844 9.30729 67.2813 9.51042C67.0781 9.70833 66.8386 9.8125 66.5521 9.8125C66.2656 9.8125 66.0261 9.70833 65.8229 9.51042C65.6198 9.30729 65.5208 9.0625 65.5208 8.78125C65.5208 8.49479 65.6198 8.25 65.8229 8.05208C66.0261 7.84896 66.2656 7.75 66.5521 7.75C66.8386 7.75 67.0781 7.84896 67.2813 8.05208C67.4844 8.25 67.5833 8.49479 67.5833 8.78125Z" fill="white"/>
<path d="M52.3385 7.75C52.0573 7.75 51.8125 7.84896 51.6094 8.05208C51.4114 8.25 51.3073 8.49479 51.3073 8.78125C51.3073 9.0625 51.4114 9.30729 51.6094 9.51042C51.8125 9.70833 52.0573 9.8125 52.3385 9.8125C52.625 9.8125 52.8698 9.70833 53.0729 9.51042C53.2708 9.30729 53.375 9.0625 53.375 8.78125C53.375 8.49479 53.2708 8.25 53.0677 8.05208C52.8698 7.84896 52.625 7.75 52.3385 7.75Z" fill="white"/>
<path d="M67.5833 31.3281C67.5833 31.6146 67.4844 31.8594 67.2813 32.0573C67.0781 32.2604 66.8386 32.3594 66.5521 32.3594C66.2656 32.3594 66.0261 32.2604 65.8229 32.0573C65.6198 31.8594 65.5208 31.6146 65.5208 31.3281C65.5208 31.0469 65.6198 30.8021 65.8229 30.599C66.0261 30.3958 66.2656 30.2969 66.5521 30.2969C66.8386 30.2969 67.0781 30.3958 67.2813 30.599C67.4844 30.8021 67.5833 31.0469 67.5833 31.3281Z" fill="white"/>
<path d="M52.3385 30.2969C52.0573 30.2969 51.8125 30.3958 51.6094 30.599C51.4114 30.8021 51.3073 31.0469 51.3073 31.3281C51.3073 31.6146 51.4114 31.8594 51.6094 32.0573C51.8125 32.2604 52.0573 32.3594 52.3385 32.3594C52.625 32.3594 52.8698 32.2604 53.0729 32.0573C53.2708 31.8594 53.375 31.6146 53.375 31.3281C53.375 31.0469 53.2708 30.8021 53.0729 30.599C52.8698 30.3958 52.625 30.2969 52.3385 30.2969Z" fill="white"/>
</svg>
