<svg width="65" height="138" viewBox="0 0 65 138" fill="none" xmlns="http://www.w3.org/2000/svg">
<path d="M21.8385 15.6458C21.3646 15.6458 20.9114 15.7344 20.4739 15.9166C20.0364 16.0937 19.651 16.3541 19.3177 16.6875C18.9844 17.0208 18.7239 17.4062 18.5416 17.8437C18.3646 18.2812 18.2708 18.7344 18.2708 19.2083C18.2708 19.6771 18.3646 20.1354 18.5416 20.5729C18.7239 21.0052 18.9791 21.3906 19.3177 21.7291C19.651 22.0625 20.0364 22.3177 20.4687 22.5C20.9062 22.6823 21.3646 22.7708 21.8333 22.7708C22.3073 22.7708 22.7604 22.6823 23.1979 22.5C23.6354 22.3177 24.0208 22.0625 24.3541 21.7291C24.6875 21.3958 24.9479 21.0104 25.1302 20.5729C25.3073 20.1354 25.401 19.6823 25.401 19.2083C25.401 18.7344 25.3073 18.2812 25.1302 17.8437C24.9479 17.4062 24.6875 17.0208 24.3541 16.6875C24.0208 16.3541 23.6354 16.0989 23.1979 15.9166C22.7656 15.7344 22.3073 15.6458 21.8385 15.6458ZM21.8385 20.3854C21.5104 20.3854 21.2344 20.2708 21.0052 20.0416C20.776 19.8125 20.6562 19.5312 20.6562 19.2083C20.6562 18.8802 20.7708 18.6041 21.0052 18.375C21.2344 18.1458 21.5104 18.0312 21.8333 18.0312C22.1614 18.0312 22.4375 18.1458 22.6666 18.375C22.8958 18.6041 23.0156 18.8802 23.0104 19.2083C23.0104 19.5312 22.8958 19.8073 22.6666 20.0416C22.4375 20.2708 22.1614 20.3854 21.8385 20.3854Z" fill="white"/>
<mask id="mask0_1_6" style="mask-type:luminance" maskUnits="userSpaceOnUse" x="0" y="0" width="65" height="138">
<path d="M0 0H64.9583V138H0V0Z" fill="white"/>
</mask>
<g mask="url(#mask0_1_6)">
<path d="M62.974 56.1979C62.7552 56.1979 62.5469 56.2396 62.3438 56.3229C62.1458 56.4062 61.9635 56.526 61.8125 56.6823C61.6563 56.8333 61.5365 57.0104 61.4531 57.2135C61.3698 57.4167 61.3281 57.625 61.3281 57.8437V60.25H60.2448V58.1875C60.2448 58.0104 60.1823 57.8594 60.0573 57.7344C59.9323 57.6094 59.7813 57.5469 59.6042 57.5469H55.0156V45.8073C55.0156 45.5573 54.9688 45.3125 54.8698 45.0833C54.776 44.849 54.6406 44.6458 54.4635 44.4687C54.2865 44.2917 54.0833 44.1562 53.849 44.0573C53.6198 43.9635 53.3802 43.9167 53.125 43.9167H33.9219C33.6719 43.9167 33.4323 43.9635 33.1979 44.0573C32.9687 44.1562 32.7656 44.2917 32.5885 44.4687C32.4115 44.6458 32.276 44.849 32.1771 45.0833C32.0833 45.3125 32.0365 45.5521 32.0365 45.8021V57.5469H29.5313C29.2448 57.5469 28.9896 57.6302 28.7656 57.8021C28.5417 57.974 28.3958 58.1979 28.3229 58.474H26.3854C26.6823 57.8177 26.8333 57.1354 26.8281 56.4167V51.4271C26.8333 50.6354 26.6563 49.8854 26.2969 49.1823C25.9427 48.4792 25.4479 47.8906 24.8177 47.4167V25.9635H32.5833C36.2396 25.9635 39.3906 23.9375 40.1042 21.125L42.1302 13.1406C43.0417 12.4583 43.5469 11.7187 43.5469 10.9427V6.1927C43.5469 2.78125 33.8229 0.0208282 21.8385 0.0208282C9.84896 0.0208282 0.125 2.78125 0.125 6.1927V10.9427C0.125 11.7187 0.625 12.4583 1.54167 13.1406L3.56771 21.125C4.28125 23.9375 7.42708 25.9635 11.0885 25.9635H18.8542V47.4219C18.224 47.8958 17.7292 48.4844 17.375 49.1875C17.026 49.8906 16.849 50.6354 16.849 51.4271V53.276H14.1823V50.8698C14.1823 50.651 14.1406 50.4427 14.0573 50.2396C13.974 50.0417 13.8542 49.8594 13.6979 49.7083C13.5469 49.5521 13.3698 49.4323 13.1667 49.349C12.9635 49.2656 12.7552 49.224 12.5365 49.224C12.3177 49.224 12.1094 49.2656 11.9063 49.349C11.7031 49.4323 11.526 49.5521 11.3698 49.7083C11.2187 49.8594 11.099 50.0417 11.0156 50.2396C10.9323 50.4427 10.8906 50.651 10.8906 50.8698V57.8125C10.8906 58.0312 10.9323 58.2396 11.0156 58.4427C11.099 58.6458 11.2187 58.8229 11.3698 58.974C11.526 59.1302 11.7031 59.25 11.9063 59.3333C12.1094 59.4167 12.3177 59.4583 12.5365 59.4583C12.7552 59.4583 12.9635 59.4167 13.1667 59.3333C13.3698 59.25 13.5469 59.1302 13.6979 58.974C13.8542 58.8229 13.974 58.6458 14.0573 58.4427C14.1406 58.2396 14.1823 58.0312 14.1823 57.8125V55.4062H16.849V56.4219C16.849 57.2083 17.0208 57.9531 17.375 58.6562C17.7292 59.3646 18.224 59.9479 18.8542 60.4219V78.0729H17.6302V78.0781L17.625 78.0729L9.01042 106.729L8.82292 106.661L7.60938 110L8.71875 110.401L2.65625 127.542C2.32292 127.734 2.08854 128.016 1.95833 128.38L0.770833 131.646C0.630208 132.036 0.635416 132.422 0.791667 132.807L0.208333 134.448C0.104167 134.74 0.114584 135.026 0.244792 135.307C0.369792 135.589 0.583333 135.781 0.869792 135.891C1.16146 135.995 1.44792 135.984 1.72917 135.859C2.01042 135.729 2.20313 135.521 2.3125 135.229L2.90625 133.703C3.35417 133.521 3.65625 133.208 3.82292 132.755L5.00521 129.49C5.14583 129.099 5.14062 128.714 4.98958 128.333L11.5469 111.437L12.6875 111.849L13.901 108.51L13.7135 108.443L18.7031 96.8385L19.3385 107.953H19.1406V111.5H20.3438L20.7292 129.625C20.4583 129.932 20.3177 130.292 20.3177 130.708V134.182C20.3177 134.661 20.5 135.062 20.8542 135.38L20.8906 137.021C20.8958 137.323 21.0104 137.583 21.2292 137.797C21.4479 138.01 21.7135 138.115 22.0156 138.109C22.3229 138.109 22.5833 138 22.7969 137.786C23.0156 137.573 23.125 137.312 23.1302 137.005L23.1458 135.266C23.4219 134.958 23.5625 134.594 23.5625 134.177V130.703C23.5625 130.318 23.4427 129.979 23.1979 129.677L23.3646 111.5H24.5417V107.948H24.3438L24.9792 96.8542L29.9583 108.443L29.776 108.51L30.9896 111.849L32.125 111.437L38.6823 128.333C38.5313 128.719 38.526 129.104 38.6667 129.49L39.8542 132.755C40.0208 133.208 40.3229 133.521 40.7708 133.703L41.3594 135.229C41.4688 135.521 41.6615 135.729 41.9427 135.854C42.224 135.984 42.5104 135.995 42.8021 135.885C43.0885 135.781 43.3021 135.589 43.4271 135.307C43.5573 135.026 43.5677 134.74 43.4635 134.448L42.8802 132.807C43.0365 132.422 43.0417 132.036 42.901 131.646L41.7135 128.38C41.5833 128.016 41.349 127.74 41.0156 127.542L34.9531 110.401L36.0625 110L34.849 106.661L34.6615 106.729L26.0469 78.0781V78.0729H24.8177V64.1562H28.3229C28.3958 64.4271 28.5469 64.651 28.7708 64.8229C28.9948 65 29.25 65.0833 29.5313 65.0833H32.0365V70.3021C32.0365 70.5521 32.0885 70.7917 32.1823 71.026C32.276 71.2552 32.4167 71.4583 32.5938 71.6354C32.7708 71.8125 32.974 71.9531 33.2031 72.0469C33.4375 72.1406 33.6771 72.1927 33.9271 72.1927C34.2604 72.1927 34.5469 72.3125 34.7813 72.5469C35.0156 72.7812 35.1354 73.0677 35.1354 73.401V86.9062C35.1354 87.3854 35.224 87.849 35.4115 88.2917C35.5938 88.7344 35.8542 89.125 36.1927 89.4635C36.5313 89.8021 36.9219 90.0677 37.3646 90.25C37.8073 90.4323 38.2708 90.526 38.75 90.526H48.3021C48.7813 90.526 49.2448 90.4323 49.6875 90.25C50.1302 90.0677 50.5208 89.8021 50.8594 89.4635C51.1979 89.125 51.4583 88.7344 51.6458 88.2917C51.8281 87.849 51.9167 87.3854 51.9167 86.9062V73.3854C51.9167 72.7135 52.4688 72.1927 53.1354 72.1875C53.3854 72.1875 53.625 72.1406 53.8594 72.0417C54.0885 71.9479 54.2917 71.8125 54.4688 71.6354C54.6406 71.4583 54.776 71.2552 54.875 71.0208C54.9688 70.7917 55.0156 70.5521 55.0156 70.3021V65.0833H59.6094C59.7865 65.0833 59.9323 65.0208 60.0573 64.8958C60.1823 64.7708 60.2448 64.6198 60.2448 64.4479V62.3802H61.3333V64.7865C61.3333 65.0052 61.375 65.2135 61.4583 65.4167C61.5417 65.6198 61.6563 65.7969 61.8125 65.9479C61.9688 66.1042 62.1458 66.224 62.349 66.3073C62.5469 66.3906 62.7604 66.4323 62.9792 66.4323C63.1927 66.4323 63.4063 66.3906 63.6042 66.3073C63.8073 66.224 63.9844 66.1042 64.1406 65.9479C64.2969 65.7969 64.4115 65.6198 64.5 65.4167C64.5833 65.2135 64.625 65.0052 64.625 64.7865V57.8437C64.625 57.625 64.5833 57.4167 64.5 57.2135C64.4115 57.0104 64.2969 56.8333 64.1406 56.6823C63.9844 56.526 63.8073 56.4062 63.6042 56.3229C63.4063 56.2396 63.1927 56.1979 62.974 56.1979ZM12.0469 107.839L10.6771 107.339L17.9271 83.224L18.4792 92.875L12.0469 107.839ZM25.75 83.25L32.9948 107.339L31.625 107.839L25.2031 92.8958L25.75 83.25ZM13.2292 12.026C13.2292 11.8125 13.3073 11.6302 13.4583 11.4792C13.6094 11.3281 13.7917 11.25 14.0052 11.25H29.6667C29.8802 11.25 30.0677 11.3281 30.2188 11.4792C30.3698 11.6302 30.4427 11.8125 30.4427 12.026C30.4427 12.2396 30.3698 12.4219 30.2188 12.5729C30.0677 12.7292 29.8802 12.8021 29.6667 12.8021H14.0052C13.7917 12.8021 13.6094 12.7292 13.4531 12.5729C13.3021 12.4219 13.2292 12.2396 13.2292 12.026ZM24.0938 81.2031L23.8906 84.7708L23.6354 89.25L23.4115 93.2083L22.5677 107.948H21.1094L20.2708 93.1927L20.0417 89.2344L19.7917 84.7917L19.5833 81.2083L19.5417 80.4427L19.8021 80.349H23.8698L24.1354 80.4427L24.0938 81.2031ZM18.3125 22.901C17.8854 22.901 17.4687 22.8281 17.0625 22.6823C16.6563 22.5417 16.2917 22.3333 15.9583 22.0573C15.625 21.7865 15.349 21.4687 15.1302 21.099C14.9115 20.7292 14.7552 20.3333 14.6719 19.9167L13.9792 16.4167C13.9323 16.1823 13.9844 15.974 14.1354 15.7865C14.2865 15.6042 14.4844 15.5104 14.7188 15.5104H28.9531C29.0677 15.5104 29.1771 15.5365 29.276 15.5833C29.3802 15.6302 29.4687 15.6979 29.5365 15.7865C29.6094 15.875 29.6615 15.974 29.6875 16.0833C29.7135 16.1927 29.7187 16.3021 29.6979 16.4167L29 19.9167C28.9167 20.3333 28.7656 20.7292 28.5417 21.099C28.3229 21.4687 28.0469 21.7865 27.7135 22.0573C27.3854 22.3333 27.0156 22.5417 26.6094 22.6823C26.2083 22.8281 25.7917 22.901 25.3594 22.901H18.3125ZM34.4115 48.1823C34.4115 47.9323 34.4583 47.6875 34.5521 47.4583C34.651 47.2292 34.7865 47.0208 34.9635 46.8437C35.1406 46.6667 35.3438 46.5312 35.5781 46.4375C35.8073 46.3385 36.0469 46.2917 36.2969 46.2917H50.75C51 46.2917 51.2396 46.3385 51.474 46.4375C51.7031 46.5312 51.9063 46.6667 52.0833 46.8437C52.2604 47.0208 52.401 47.2292 52.4948 47.4583C52.5885 47.6875 52.6406 47.9323 52.6406 48.1823V57.5469H51.6875V49.1302C51.6875 48.8802 51.6406 48.6406 51.5469 48.4062C51.4479 48.1771 51.3125 47.974 51.1354 47.7969C50.9583 47.6198 50.7552 47.4844 50.5208 47.3854C50.2917 47.2917 50.0521 47.2448 49.8021 47.2448H37.25C37 47.2448 36.7604 47.2917 36.526 47.3854C36.2969 47.4844 36.0938 47.6198 35.9167 47.7969C35.7396 47.974 35.599 48.1771 35.5052 48.4062C35.4115 48.6406 35.3594 48.8802 35.3594 49.1302V57.5469H34.4115V48.1823ZM52.6406 67.9271C52.6406 68.1771 52.5938 68.4167 52.4948 68.651C52.401 68.8802 52.2656 69.0833 52.0885 69.2604C51.9115 69.4375 51.7031 69.5729 51.474 69.6719C51.2448 69.7656 51 69.8125 50.75 69.8125H36.2969C36.0469 69.8125 35.8073 69.7656 35.5781 69.6719C35.3438 69.5729 35.1406 69.4375 34.9635 69.2604C34.7865 69.0833 34.651 68.8802 34.5521 68.651C34.4583 68.4167 34.4115 68.1771 34.4115 67.9271V65.0833H35.3594V66.974C35.3594 67.224 35.4115 67.4687 35.5052 67.6979C35.599 67.9323 35.7396 68.1354 35.9167 68.3125C36.0938 68.4896 36.2969 68.625 36.526 68.7187C36.7604 68.8177 37 68.8646 37.25 68.8646H49.8021C50.0521 68.8646 50.2917 68.8177 50.526 68.7187C50.7552 68.625 50.9583 68.4896 51.1354 68.3125C51.3125 68.1354 51.4479 67.9323 51.5469 67.6979C51.6406 67.4687 51.6875 67.224 51.6875 66.974V65.0833H52.6406V67.9271Z" fill="white"/>
</g>
<path d="M39.3906 79.0312H37.2031C36.9531 79.0312 36.7396 79.1198 36.5625 79.2969C36.3854 79.474 36.2969 79.6927 36.2969 79.9427C36.2969 80.1927 36.3854 80.4063 36.5625 80.5833C36.7396 80.7604 36.9531 80.849 37.2031 80.849H39.3906C39.6406 80.849 39.8542 80.7604 40.0313 80.5833C40.2083 80.4063 40.2969 80.1927 40.2969 79.9427C40.2969 79.6927 40.2083 79.474 40.0313 79.2969C39.8542 79.1198 39.6406 79.0312 39.3906 79.0312Z" fill="black"/>
<path d="M39.3906 82.3229H37.2031C36.9531 82.3229 36.7396 82.4167 36.5625 82.5937C36.3854 82.7708 36.2969 82.9844 36.2969 83.2344C36.2969 83.4844 36.3854 83.6979 36.5625 83.875C36.7396 84.0521 36.9531 84.1406 37.2031 84.1406H39.3906C39.6406 84.1406 39.8542 84.0521 40.0313 83.875C40.2083 83.6979 40.2969 83.4844 40.2969 83.2344C40.2969 82.9844 40.2083 82.7708 40.0313 82.5937C39.8542 82.4167 39.6406 82.3229 39.3906 82.3229Z" fill="black"/>
<path d="M39.3906 85.6198H37.2031C36.9583 85.625 36.7448 85.7135 36.5729 85.8906C36.401 86.0677 36.3177 86.2812 36.3177 86.526C36.3177 86.7708 36.401 86.9844 36.5729 87.1614C36.7448 87.3385 36.9583 87.4271 37.2031 87.4323H39.3906C39.6354 87.4271 39.8437 87.3385 40.0208 87.1614C40.1927 86.9844 40.276 86.7708 40.276 86.526C40.276 86.2812 40.1927 86.0677 40.0208 85.8906C39.8437 85.7135 39.6354 85.625 39.3906 85.6198Z" fill="black"/>
<path d="M44.6198 79.0312H42.4323C42.1823 79.0312 41.9688 79.1198 41.7917 79.2969C41.6146 79.474 41.5261 79.6927 41.5261 79.9427C41.5261 80.1927 41.6146 80.4063 41.7917 80.5833C41.9688 80.7604 42.1823 80.849 42.4323 80.849H44.6198C44.8698 80.849 45.0834 80.7604 45.2604 80.5833C45.4375 80.4063 45.5261 80.1927 45.5261 79.9427C45.5261 79.6927 45.4375 79.474 45.2604 79.2969C45.0834 79.1198 44.8698 79.0312 44.6198 79.0312Z" fill="black"/>
<path d="M44.6198 82.3229H42.4323C42.1823 82.3229 41.9688 82.4167 41.7917 82.5937C41.6146 82.7708 41.5261 82.9844 41.5261 83.2344C41.5261 83.4844 41.6146 83.6979 41.7917 83.875C41.9688 84.0521 42.1823 84.1406 42.4323 84.1406H44.6198C44.8698 84.1406 45.0834 84.0521 45.2604 83.875C45.4375 83.6979 45.5261 83.4844 45.5261 83.2344C45.5261 82.9844 45.4375 82.7708 45.2604 82.5937C45.0834 82.4167 44.8698 82.3229 44.6198 82.3229Z" fill="black"/>
<path d="M44.6198 85.6198H42.4323C42.1771 85.6094 41.9583 85.6979 41.776 85.875C41.5937 86.0521 41.5052 86.2708 41.5052 86.526C41.5052 86.7812 41.5937 86.9948 41.776 87.1771C41.9583 87.3542 42.1771 87.4375 42.4323 87.4323H44.6198C44.8646 87.4271 45.0729 87.3385 45.25 87.1614C45.4219 86.9844 45.5052 86.7708 45.5052 86.526C45.5052 86.2812 45.4219 86.0677 45.25 85.8906C45.0729 85.7135 44.8646 85.625 44.6198 85.6198Z" fill="black"/>
<path d="M49.8489 79.0312H47.6614C47.4114 79.0312 47.1979 79.1198 47.0208 79.2969C46.8437 79.474 46.7552 79.6927 46.7552 79.9427C46.7552 80.1927 46.8437 80.4063 47.0208 80.5833C47.1979 80.7604 47.4114 80.849 47.6614 80.849H49.8489C50.0989 80.849 50.3125 80.7604 50.4896 80.5833C50.6666 80.4063 50.7552 80.1927 50.7552 79.9427C50.7552 79.6927 50.6666 79.474 50.4896 79.2969C50.3125 79.1198 50.0989 79.0312 49.8489 79.0312Z" fill="black"/>
<path d="M49.8489 82.3229H47.6614C47.4114 82.3229 47.1979 82.4167 47.0208 82.5937C46.8437 82.7708 46.7552 82.9844 46.7552 83.2344C46.7552 83.4844 46.8437 83.6979 47.0208 83.875C47.1979 84.0521 47.4114 84.1406 47.6614 84.1406H49.8489C50.0989 84.1406 50.3125 84.0521 50.4896 83.875C50.6666 83.6979 50.7552 83.4844 50.7552 83.2344C50.7552 82.9844 50.6666 82.7708 50.4896 82.5937C50.3125 82.4167 50.0989 82.3229 49.8489 82.3229Z" fill="black"/>
<path d="M49.8489 85.6198H47.6614C47.4114 85.625 47.2031 85.7135 47.0312 85.8906C46.8594 86.0677 46.7708 86.2812 46.7708 86.526C46.7708 86.7708 46.8594 86.9844 47.0312 87.1614C47.2031 87.3385 47.4114 87.4271 47.6614 87.4323H49.8489C50.0937 87.4271 50.3021 87.3385 50.4739 87.1614C50.651 86.9844 50.7344 86.7708 50.7344 86.526C50.7344 86.2812 50.651 86.0677 50.4739 85.8906C50.3021 85.7135 50.0937 85.625 49.8489 85.6198Z" fill="black"/>
<path d="M42.4323 72.4479H44.6198C44.8698 72.4479 45.0834 72.5364 45.2604 72.7135C45.4375 72.8906 45.5261 73.1042 45.5261 73.3542V76.651C45.5261 76.901 45.4375 77.1146 45.2604 77.2917C45.0834 77.4687 44.8698 77.5573 44.6198 77.5573H42.4323C42.1823 77.5573 41.9688 77.4687 41.7917 77.2917C41.6146 77.1146 41.5261 76.901 41.5261 76.651V73.3542C41.5261 73.1042 41.6146 72.8906 41.7917 72.7135C41.9688 72.5364 42.1823 72.4479 42.4323 72.4479Z" fill="black"/>
<path d="M39.3906 72.4479H37.2031C36.9583 72.4531 36.7448 72.5469 36.5729 72.7239C36.401 72.901 36.3177 73.1094 36.3177 73.3594C36.3177 73.6042 36.401 73.8177 36.5729 73.9896C36.7448 74.1667 36.9583 74.2604 37.2031 74.2656H39.3906C39.6354 74.2604 39.8437 74.1667 40.0208 73.9896C40.1927 73.8177 40.276 73.6042 40.276 73.3594C40.276 73.1094 40.1927 72.901 40.0208 72.7239C39.8437 72.5469 39.6354 72.4531 39.3906 72.4479Z" fill="black"/>
<path d="M39.3906 75.7396H37.2031C36.9531 75.7396 36.7396 75.8281 36.5625 76.0052C36.3854 76.1823 36.2969 76.3958 36.2969 76.651C36.2969 76.901 36.3854 77.1146 36.5625 77.2916C36.7396 77.4687 36.9531 77.5573 37.2031 77.5573H39.3906C39.6406 77.5573 39.8542 77.4687 40.0313 77.2916C40.2083 77.1146 40.2969 76.901 40.2969 76.651C40.2969 76.3958 40.2083 76.1823 40.0313 76.0052C39.8542 75.8281 39.6406 75.7396 39.3906 75.7396Z" fill="black"/>
<path d="M47.6614 74.2656H49.8489C50.0937 74.2604 50.3021 74.1667 50.4739 73.9896C50.651 73.8177 50.7344 73.6042 50.7344 73.3594C50.7344 73.1094 50.651 72.901 50.4739 72.7239C50.3021 72.5469 50.0937 72.4531 49.8489 72.4479H47.6614C47.4114 72.4531 47.2031 72.5469 47.0312 72.7239C46.8594 72.901 46.7708 73.1094 46.7708 73.3594C46.7708 73.6042 46.8594 73.8177 47.0312 73.9896C47.2031 74.1667 47.4114 74.2604 47.6614 74.2656Z" fill="black"/>
<path d="M49.8489 75.7396H47.6614C47.4114 75.7396 47.1979 75.8281 47.0208 76.0052C46.8437 76.1823 46.7552 76.3958 46.7552 76.651C46.7552 76.901 46.8437 77.1146 47.0208 77.2916C47.1979 77.4687 47.4114 77.5573 47.6614 77.5573H49.8489C50.0989 77.5573 50.3125 77.4687 50.4896 77.2916C50.6666 77.1146 50.7552 76.901 50.7552 76.651C50.7552 76.3958 50.6666 76.1823 50.4896 76.0052C50.3125 75.8281 50.0989 75.7396 49.8489 75.7396Z" fill="black"/>
</svg>
