<svg width="84" height="84" viewBox="0 0 84 84" fill="none" xmlns="http://www.w3.org/2000/svg">
<mask id="mask0_1_5" style="mask-type:luminance" maskUnits="userSpaceOnUse" x="70" y="0" width="14" height="83">
<path d="M70.6615 0H83.9948V82.1146H70.6615V0Z" fill="white"/>
</mask>
<g mask="url(#mask0_1_5)">
<path d="M83.9583 81.1719H71.7865V75.7604H76.5208C77.2656 75.7604 77.875 75.151 77.875 74.4062C77.875 73.6615 77.2656 73.0521 76.5208 73.0521H71.7865V68.9948H76.5208C77.2656 68.9948 77.875 68.3906 77.875 67.6406C77.875 66.8958 77.2656 66.2917 76.5208 66.2917H71.7865V62.2292H76.5208C77.2656 62.2292 77.875 61.625 77.875 60.8802C77.875 60.1302 77.2656 59.526 76.5208 59.526H71.7865V55.4688H76.5208C77.2656 55.4688 77.875 54.8594 77.875 54.1146C77.875 53.3646 77.2656 52.7604 76.5208 52.7604H71.7865V48.7031H76.5208C77.2656 48.7031 77.875 48.099 77.875 47.349C77.875 46.6042 77.2656 45.9948 76.5208 45.9948H71.7865V41.9375H76.5208C77.2656 41.9375 77.875 41.3333 77.875 40.5885C77.875 39.8385 77.2656 39.2344 76.5208 39.2344H71.7865V35.1771H76.5208C77.2656 35.1771 77.875 34.5677 77.875 33.8229C77.875 33.0729 77.2656 32.4688 76.5208 32.4688H71.7865V28.4115H76.5208C77.2656 28.4115 77.875 27.8073 77.875 27.0573C77.875 26.3125 77.2656 25.7031 76.5208 25.7031H71.7865V21.6458H76.5208C77.2656 21.6458 77.875 21.0417 77.875 20.2917C77.875 19.5469 77.2656 18.9427 76.5208 18.9427H71.7865V14.8802H76.5208C77.2656 14.8802 77.875 14.276 77.875 13.5312C77.875 12.7812 77.2656 12.1771 76.5208 12.1771H71.7865V8.11979H76.5208C77.2656 8.11979 77.875 7.51042 77.875 6.76562C77.875 6.02083 77.2656 5.41146 76.5208 5.41146H71.7865V0H83.9583V81.1719Z" fill="white"/>
</g>
<mask id="mask1_1_5" style="mask-type:luminance" maskUnits="userSpaceOnUse" x="0" y="10" width="46" height="74">
<path d="M0 10.1146H45.3281V84H0V10.1146Z" fill="white"/>
</mask>
<g mask="url(#mask1_1_5)">
<path d="M0.375023 83.3542C0.630231 83.6875 1.02607 83.875 1.43752 83.875H8.62502C9.26565 83.875 9.81773 83.4271 9.94794 82.7969L17.4584 47.6094V82.5104C17.4584 83.2656 18.0677 83.875 18.8125 83.875H26C26.75 83.875 27.3542 83.2656 27.3542 82.5104V48.5052L34.1823 82.7813C34.3125 83.4167 34.8646 83.875 35.5104 83.875H43.375C43.7917 83.875 44.1823 83.6875 44.4375 83.3542C44.6927 83.026 44.7865 82.599 44.6927 82.1927L33.8281 36.3958C35.849 35.599 37.2865 33.6198 37.2865 31.3073C37.2865 28.2917 34.8594 25.8438 31.875 25.8438H28.4948V23.1146H30.5261C32.0417 23.1146 33.3698 22.2656 34.0625 21.0104C34.2344 21.0469 34.4063 21.0625 34.5834 21.0625H37.2865C38.7813 21.0625 39.9948 19.8438 39.9948 18.3333V15.6042C39.9948 14.0938 38.7813 12.8698 37.2865 12.8698H34.5834C34.4063 12.8698 34.2344 12.8906 34.0625 12.9271C33.3698 11.6719 32.0417 10.8229 30.5261 10.8229H14.2917C12.0521 10.8229 10.2292 12.6615 10.2292 14.9219V19.0156C10.2292 21.276 12.0521 23.1146 14.2917 23.1146H16.3177V25.8438H12.9375C9.95315 25.8438 7.52607 28.2917 7.52607 31.3073C7.52607 33.6198 8.96356 35.599 10.9844 36.3958L0.125023 82.1927C0.0260655 82.599 0.119815 83.026 0.375023 83.3542ZM34.5834 15.6042H37.2865V18.3333H34.5834V15.6042ZM24.6511 81.1458H20.1667V36.7656H24.6511V81.1458ZM41.6615 81.1458H36.6198L27.7761 36.7656H31.1354L41.6615 81.1458ZM14.2917 20.3802C13.5417 20.3802 12.9375 19.7708 12.9375 19.0156V14.9219C12.9375 14.1667 13.5417 13.5573 14.2917 13.5573H30.5261C31.2709 13.5573 31.875 14.1667 31.875 14.9219V19.0156C31.875 19.7708 31.2709 20.3802 30.5261 20.3802H14.2917ZM25.7917 23.1146V25.8438H19.0261V23.1146H25.7917ZM10.2292 31.3073C10.2292 29.7969 11.4427 28.5729 12.9375 28.5729H31.875C33.3698 28.5729 34.5834 29.7969 34.5834 31.3073C34.5834 32.8125 33.3698 34.0365 31.875 34.0365H12.9375C11.4427 34.0365 10.2292 32.8125 10.2292 31.3073ZM13.6771 36.7656H17.0052L7.53648 81.1458H3.15107L13.6771 36.7656Z" fill="white"/>
</g>
</svg>
