<svg width="119" height="103" viewBox="0 0 119 103" fill="none" xmlns="http://www.w3.org/2000/svg">
<mask id="mask0_0_218" style="mask-type:luminance" maskUnits="userSpaceOnUse" x="0" y="0" width="119" height="103">
<path d="M0 0H119V103H0V0Z" fill="white"/>
</mask>
<g mask="url(#mask0_0_218)">
<path fill-rule="evenodd" clip-rule="evenodd" d="M21.2239 13.3906H58.2604V11.0521H21.2239V13.3906ZM30.2083 45.2812H34.5208V40.9687H30.2083V45.2812ZM36.0208 48.276H28.7083C27.8802 48.276 27.2083 47.6042 27.2083 46.776V39.4687C27.2083 38.6406 27.8802 37.9687 28.7083 37.9687H36.0208C36.8489 37.9687 37.5156 38.6406 37.5156 39.4687V46.776C37.5156 47.6042 36.8489 48.276 36.0208 48.276ZM44.9583 31.6406H49.2708V27.3281H44.9583V31.6406ZM50.7708 34.6406H43.4635C42.6354 34.6406 41.9635 33.9687 41.9635 33.1406V25.8333C41.9635 25.0052 42.6354 24.3333 43.4635 24.3333H50.7708C51.599 24.3333 52.2708 25.0052 52.2708 25.8333V33.1406C52.2708 33.9687 51.599 34.6406 50.7708 34.6406ZM30.2083 31.6406H34.5208V27.3281H30.2083V31.6406ZM36.0208 34.6406H28.7083C27.8802 34.6406 27.2083 33.9687 27.2083 33.1406V25.8333C27.2083 25.0052 27.8802 24.3333 28.7083 24.3333H36.0208C36.8489 24.3333 37.5156 25.0052 37.5156 25.8333V33.1406C37.5156 33.9687 36.8489 34.6406 36.0208 34.6406ZM96.6562 31.6406H100.969V27.3281H96.6562V31.6406ZM102.469 34.6406H95.1562C94.3281 34.6406 93.6615 33.9687 93.6615 33.1406V25.8333C93.6615 25.0052 94.3281 24.3333 95.1562 24.3333H102.469C103.297 24.3333 103.964 25.0052 103.964 25.8333V33.1406C103.964 33.9687 103.297 34.6406 102.469 34.6406ZM81.9062 31.6406H86.2187V27.3281H81.9062V31.6406ZM87.7135 34.6406H80.4062C79.5781 34.6406 78.9062 33.9687 78.9062 33.1406V25.8333C78.9062 25.0052 79.5781 24.3333 80.4062 24.3333H87.7135C88.5417 24.3333 89.2135 25.0052 89.2135 25.8333V33.1406C89.2135 33.9687 88.5417 34.6406 87.7135 34.6406ZM4.86457 61.0833H18.5625C19.1979 61.0833 19.8021 61.2083 20.3594 61.4323L20.2239 16.3854H19.7239C18.8958 16.3854 18.2239 15.7135 18.2239 14.8854V9.55207C18.2239 8.72394 18.8958 8.05207 19.7239 8.05207H59.7552C60.5833 8.05207 61.2552 8.72394 61.2552 9.55207V14.8854C61.2552 15.7135 60.5833 16.3854 59.7552 16.3854H59.2656V35.026L65.7552 29.8125C66.3177 29.3594 67.1146 29.3802 67.651 29.8281L71.9115 33.2552V23.6146H65.9323C65.1042 23.6146 64.4323 22.9427 64.4323 22.1146C64.4323 21.6042 64.6875 21.151 65.0781 20.8802L90.5 0.442693C91.0625 -0.0104328 91.8594 0.0156099 92.3958 0.463526L117.88 20.9479C118.521 21.4635 118.625 22.4062 118.109 23.0521C117.812 23.4167 117.38 23.6094 116.943 23.6094H110.964V65.5729C111.573 65.6719 112.167 65.8489 112.724 66.1042C114.156 66.75 115.37 67.8854 116.099 69.3906C116.823 70.8958 116.964 72.5521 116.578 74.0729C116.198 75.5989 115.292 76.9948 113.943 77.9792C113.865 78.0312 113.786 78.0781 113.708 78.1146L78.0677 98.6198C77.8073 98.7708 77.5208 98.8333 77.2396 98.8177L23.3698 95.8333V97.9896C23.3698 99.3073 22.8281 100.51 21.9583 101.38V101.385C21.0885 102.255 19.8854 102.797 18.5625 102.797H4.86457C3.54166 102.797 2.33853 102.255 1.46874 101.385L1.3802 101.292C0.56249 100.427 0.0572815 99.2604 0.0572815 97.9896V65.8906C0.0572815 64.5729 0.598948 63.3698 1.47395 62.4948C2.33853 61.625 3.54166 61.0833 4.86457 61.0833ZM23.3542 65.5312L23.2083 16.3854H56.2708V37.4375L40.3333 50.25C39.9427 50.5208 39.6875 50.9687 39.6875 51.4792C39.6875 52.3073 40.3594 52.9792 41.1875 52.9792H47.1667V65C43.6927 63.4687 39.9792 62.6823 36.2604 62.651C31.8333 62.6146 27.4062 63.6302 23.3646 65.7135C23.3646 65.651 23.3594 65.5937 23.3542 65.5312ZM58.7864 39.25C58.7344 39.2969 58.6823 39.3437 58.6198 39.3802L45.4375 49.9844H48.151L65.7396 35.9271C66.2708 35.4844 67.0625 35.4583 67.6198 35.9114L85.2292 49.9844H87.9479L72.5573 37.6094C72.4948 37.5677 72.4427 37.526 72.3906 37.4739L66.6927 32.8958L58.7864 39.25ZM20.3698 66.1562V65.8333C20.3594 65.3854 20.1823 64.9739 19.901 64.6667L19.8385 64.6146C19.5104 64.2864 19.0573 64.0781 18.5625 64.0781H4.86457C4.36978 64.0781 3.91666 64.2864 3.58853 64.6146H3.58332C3.2552 64.9375 3.05728 65.3906 3.05728 65.8906V97.9896C3.05728 98.4583 3.23437 98.8906 3.53124 99.2135L3.58853 99.2656C3.91666 99.5937 4.36978 99.7969 4.86457 99.7969H18.5625C19.0573 99.7969 19.5104 99.5937 19.8385 99.2656C20.1719 98.9427 20.3698 98.4844 20.3698 97.9896V66.1562ZM74.9062 35.6667V22.8229L91.4375 9.61457L107.964 22.8281V65.7656L107.937 65.776L86.2187 73.4635V52.9792L92.1979 52.9739C92.6354 52.9739 93.0677 52.7864 93.3594 52.4167C93.8802 51.776 93.776 50.8333 93.1354 50.3177L74.9062 35.6667ZM109.661 68.4896C109.609 68.4948 109.552 68.5 109.5 68.5C109.302 68.5208 109.099 68.5573 108.901 68.6042L85.3073 76.9583C85.25 76.9844 85.1927 77.0052 85.1302 77.0208L79.9271 78.8646C78.7969 79.9375 77.2917 80.6354 75.6198 80.7344L51.276 80.7396C50.4479 80.7396 49.776 80.0677 49.776 79.2396C49.776 78.4114 50.4479 77.7448 51.276 77.7448H75.5312C76.5 77.6614 77.3594 77.2292 77.9896 76.5781C78.0104 76.5521 78.0312 76.5312 78.0521 76.5104C78.6823 75.8229 79.0677 74.9062 79.0677 73.8958C79.0677 72.875 78.6719 71.9427 78.0208 71.25C77.3906 70.5781 76.5156 70.1302 75.5312 70.0521H50.5469V70.0469C50.2604 70.0469 49.9687 69.9687 49.7135 69.7969C49.1667 69.4271 48.6094 69.0885 48.0417 68.7708C47.9739 68.7396 47.9062 68.7031 47.8437 68.6614C44.2292 66.6823 40.2344 65.6719 36.2344 65.6354C31.7917 65.5989 27.3333 66.7604 23.3698 69.1302V92.8385L76.9687 95.8073L112.214 75.5312C112.958 74.9792 113.464 74.1979 113.677 73.3489C113.891 72.4792 113.818 71.5417 113.406 70.6927C112.995 69.8385 112.307 69.1979 111.495 68.8281C110.927 68.5729 110.297 68.4531 109.661 68.4896ZM72.8958 20.6146L90.4844 6.55728C91.0208 6.11457 91.8073 6.09373 92.3698 6.54165L109.974 20.6146H112.693L91.4375 3.52603L70.1823 20.6146H72.8958ZM50.1614 66.5469C50.4375 66.7083 50.7135 66.8802 50.9844 67.0573H75.5365C75.6042 67.0573 75.6719 67.0625 75.7396 67.0677C77.5 67.2031 79.0677 68 80.1979 69.2031C81.3594 70.4323 82.0677 72.0885 82.0677 73.8958C82.0677 74.2604 82.0364 74.6146 81.9844 74.9635L83.2187 74.526V52.1927L66.6927 38.9844L50.1614 52.1927V66.5469Z" fill="white"/>
</g>
</svg>
