<svg width="79" height="79" viewBox="0 0 79 79" fill="none" xmlns="http://www.w3.org/2000/svg">
<path d="M31.8177 18.3542L20.6875 11.7761C20.1614 11.5156 19.5469 11.5156 19.0208 11.7761L15.25 14.0573V12.7448C15.25 11.8646 14.5521 11.1667 13.6719 11.1667H12.0104C11.1302 11.1667 10.4323 11.8646 10.4323 12.7448V16.9479L7.97916 18.3542C7.18749 18.7917 6.92707 19.7552 7.45311 20.5417C7.89061 21.3334 8.85416 21.5938 9.64061 21.0677L10.4323 20.6302V28.7813C10.4323 29.6563 11.1302 30.3594 12.0104 30.3594H16.8281C17.7083 30.3594 18.4062 29.6563 18.4062 28.7813V24.1354H21.3854V28.7813C21.3854 29.6563 22.0885 30.3594 22.9635 30.3594H27.7864C28.6614 30.3594 29.3646 29.6563 29.3646 28.7813V20.6302L30.151 21.0677C30.4167 21.2448 30.6771 21.3334 30.9427 21.3334C31.4687 21.3334 31.9948 21.0677 32.3437 20.5417C32.8698 19.7552 32.6042 18.7917 31.8177 18.3542ZM26.2083 27.2031H24.6302V22.5573C24.6302 21.6823 23.9271 20.9792 23.0521 20.9792H16.8281C15.9531 20.9792 15.25 21.6823 15.25 22.5573V27.2031H13.6719V18.7917L19.9844 15.0209L26.2969 18.7917V27.2031H26.2083Z" fill="white"/>
<path d="M31.8177 41.9323L20.6875 35.3542C20.1614 35.0938 19.5469 35.0938 19.0208 35.3542L15.25 37.6354V36.3177C15.25 35.4427 14.5521 34.7448 13.6719 34.7448H12.0104C11.1302 34.7448 10.4323 35.4427 10.4323 36.3177V40.5261L8.06248 41.9323C7.27603 42.3698 7.0104 43.3334 7.53644 44.1198C7.97915 44.9115 8.94269 45.1719 9.72915 44.6459L10.5208 44.2084V52.3594C10.5208 53.2344 11.2187 53.9375 12.0989 53.9375H16.9167C17.7917 53.9375 18.4948 53.2344 18.4948 52.3594V47.7136H21.3854V52.3594C21.3854 53.2344 22.0885 53.9375 22.9635 53.9375H27.7864C28.6614 53.9375 29.3646 53.2344 29.3646 52.3594V44.2084L30.151 44.6459C30.4167 44.8229 30.6771 44.9115 30.9427 44.9115C31.4687 44.9115 31.9948 44.6459 32.3437 44.1198C32.8698 43.4219 32.6042 42.4531 31.8177 41.9323ZM26.2083 50.8698H24.6302V46.224C24.6302 45.349 23.9271 44.6459 23.0521 44.6459H16.8281C15.9531 44.6459 15.25 45.349 15.25 46.224V50.8698H13.6719V42.4531L19.9844 38.6875L26.2969 42.4531V50.8698H26.2083Z" fill="white"/>
<path d="M31.8177 65.5938L20.6875 59.0208C20.1614 58.7604 19.5469 58.7604 19.0208 59.0208L15.25 61.3021V59.9844C15.25 59.1094 14.5521 58.4062 13.6719 58.4062H12.0104C11.1302 58.4062 10.4323 59.1094 10.4323 59.9844V64.1927L8.06248 65.5938C7.27603 66.0313 7.0104 67 7.53644 67.7865C7.97915 68.5729 8.94269 68.8385 9.72915 68.3125L10.5208 67.875V76.026C10.5208 76.901 11.2187 77.6042 12.0989 77.6042H16.9167C17.7917 77.6042 18.4948 76.901 18.4948 76.026V71.3802H21.3854V76.026C21.3854 76.901 22.0885 77.6042 22.9635 77.6042H27.7864C28.6614 77.6042 29.3646 76.901 29.3646 76.026V67.875L30.151 68.3125C30.4167 68.4896 30.6771 68.5729 30.9427 68.5729C31.4687 68.5729 31.9948 68.3125 32.3437 67.7865C32.8698 67 32.6042 66.0313 31.8177 65.5938ZM26.2083 74.4479H24.6302V69.8021C24.6302 68.9271 23.9271 68.224 23.0521 68.224H16.8281C15.9531 68.224 15.25 68.9271 15.25 69.8021V74.4479H13.6719V66.0313L19.9844 62.2656L26.2969 66.0313V74.4479H26.2083Z" fill="white"/>
<path d="M48.0312 10.026L48.8229 9.58854V17.7396C48.8229 18.6146 49.5208 19.3177 50.401 19.3177H55.2187C56.0989 19.3177 56.7968 18.6146 56.7968 17.7396V13.0938H59.776V17.7396C59.776 18.6146 60.4791 19.3177 61.3541 19.3177H66.1771C67.0521 19.3177 67.7552 18.6146 67.7552 17.7396V9.58854L68.5416 10.026C68.8073 10.2031 69.0677 10.2865 69.3333 10.2865C69.8593 10.2865 70.3854 10.026 70.7344 9.5C71.1719 8.70833 70.9114 7.74479 70.2083 7.30729L59.1666 0.645833C58.6406 0.385416 58.026 0.385416 57.5 0.645833L53.7291 2.92708V1.60938C53.7291 0.734375 53.0312 0.03125 52.151 0.03125H50.4896C49.6094 0.03125 48.9114 0.734375 48.9114 1.60938V5.81771L46.5416 7.21875C45.7552 7.65625 45.4896 8.625 46.0156 9.41146C46.2812 10.2031 47.2448 10.4635 48.0312 10.026ZM58.2864 3.89063L64.5989 7.65625V16.0729H63.0208V11.4271C63.0208 10.5521 62.3177 9.84896 61.4427 9.84896H55.2187C54.3437 9.84896 53.6406 10.5521 53.6406 11.4271V16.0729H52.0625V7.65625L58.2864 3.89063Z" fill="white"/>
<path d="M48.0313 33.6042L48.8229 33.1667V41.3177C48.8229 42.1927 49.5208 42.8959 50.4011 42.8959H55.2188C56.099 42.8959 56.7969 42.1927 56.7969 41.3177V36.7605H59.7761V41.4063C59.7761 42.2813 60.4792 42.9792 61.3542 42.9792H66.1771C67.0521 42.9792 67.7552 42.2813 67.7552 41.4063V33.25L68.5417 33.6927C68.8073 33.8646 69.0677 33.9532 69.3333 33.9532C69.8594 33.9532 70.3854 33.6927 70.7344 33.1667C71.1719 32.375 70.9115 31.4115 70.2083 30.974L59.0781 24.4011C58.5521 24.1355 57.9375 24.1355 57.4115 24.4011L53.6406 26.6771V25.3646C53.6406 24.4896 52.9427 23.7865 52.0625 23.7865H50.4011C49.5208 23.7865 48.8229 24.4896 48.8229 25.3646V29.573L46.4531 30.974C45.6667 31.4115 45.4011 32.375 45.9271 33.1667C46.2813 33.8646 47.2448 34.0417 48.0313 33.6042ZM58.2865 27.5573L64.599 31.323V39.7396H63.0208V35.0938C63.0208 34.2188 62.3177 33.5157 61.4427 33.5157H55.2188C54.3438 33.5157 53.6406 34.2188 53.6406 35.0938V39.7396H52.0625V31.323L58.2865 27.5573Z" fill="white"/>
<path d="M48.0313 57.2709L48.8229 56.8282V64.9792C48.8229 65.8594 49.5208 66.5573 50.4011 66.5573H55.2188C56.099 66.5573 56.7969 65.8594 56.7969 64.9792V60.3386H59.7761V64.9792C59.7761 65.8594 60.4792 66.5573 61.3542 66.5573H66.1771C67.0521 66.5573 67.7552 65.8594 67.7552 64.9792V56.8282L68.5417 57.2709C68.8073 57.4427 69.0677 57.5313 69.3333 57.5313C69.8594 57.5313 70.3854 57.2709 70.7344 56.7448C71.1719 55.9532 70.9115 54.9896 70.2083 54.5521L59.0781 47.9792C58.5521 47.7136 57.9375 47.7136 57.4115 47.9792L53.6406 50.2552V48.9427C53.6406 48.0677 52.9427 47.3646 52.0625 47.3646H50.4011C49.5208 47.3646 48.8229 48.0677 48.8229 48.9427V53.1511L46.4531 54.5521C45.6667 54.9896 45.4011 55.9532 45.9271 56.7448C46.2813 57.4427 47.2448 57.7084 48.0313 57.2709ZM58.2865 51.1355L64.599 54.9011V63.3177H63.0208V58.6719C63.0208 57.7917 62.3177 57.0938 61.4427 57.0938H55.2188C54.3438 57.0938 53.6406 57.7917 53.6406 58.6719V63.3177H52.0625V54.9011L58.2865 51.1355Z" fill="white"/>
<mask id="mask0_1_2" style="mask-type:luminance" maskUnits="userSpaceOnUse" x="0" y="0" width="79" height="79">
<path d="M0 0H78.8125V78.6667H0V0Z" fill="white"/>
</mask>
<g mask="url(#mask0_1_2)">
<path d="M77.2188 19.7552C76.3438 19.7552 75.6406 20.4531 75.6406 21.3334V57.9688C75.6406 67.5209 67.8438 75.3229 58.2865 75.3229C48.7344 75.3229 41.0208 67.5209 41.0208 58.0573V21.3334C41.0208 10.0261 31.8177 0.822937 20.5104 0.822937C9.20313 0.822937 0 10.0261 0 21.3334V57.9688C0 58.8438 0.703125 59.5469 1.57813 59.5469C2.45313 59.5469 3.15625 58.8438 3.15625 57.9688V21.3334C3.24479 11.7761 10.9583 4.06773 20.5104 4.06773C30.0625 4.06773 37.776 11.8646 37.776 21.3334V57.9688C37.776 69.2761 46.9792 78.4792 58.2865 78.4792C69.5938 78.4792 78.7969 69.2761 78.7969 57.9688V21.3334C78.7969 20.4531 78.099 19.7552 77.2188 19.7552Z" fill="white"/>
</g>
</svg>
